0
SECTION
2
HEADER
9
$INSUNITS
70
4
9
$ACADVER
1
AC1014
9
$HANDSEED
5
FFFF
0
ENDSEC
0
SECTION
2
TABLES
0
TABLE
2
VPORT
5
8
100
AcDbSymbolTable
0
ENDTAB
0
TABLE
2
LTYPE
5
5
100
AcDbSymbolTable
0
LTYPE
5
14
100
AcDbSymbolTableRecord
100
AcDbLinetypeTableRecord
2
BYBLOCK
70
0
0
LTYPE
5
15
100
AcDbSymbolTableRecord
100
AcDbLinetypeTableRecord
2
BYLAYER
70
0
0
LTYPE
5
16
100
AcDbSymbolTableRecord
100
AcDbLinetypeTableRecord
2
DASHED
70
0
3
Dashed __ __ __ __ __ __ __ __ __ __ __ __ __ _
72
65
73
2
40
0.75
49
0.5
74
0
49
-0.25
74
0
0
ENDTAB
0
TABLE
2
LAYER
5
2
100
AcDbSymbolTable
70
3
0
LAYER
5
50
100
AcDbSymbolTableRecord
100
AcDbLayerTableRecord
2
1
70
0
62
7
6
DASHED
0
LAYER
5
51
100
AcDbSymbolTableRecord
100
AcDbLayerTableRecord
2
0
70
0
62
7
6
CONTINUOUS
0
ENDTAB
0
TABLE
2
STYLE
5
3
100
AcDbSymbolTable
70
1
0
STYLE
5
11
100
AcDbSymbolTableRecord
100
AcDbTextStyleTableRecord
2
STANDARD
70
0
0
ENDTAB
0
TABLE
2
VIEW
5
6
100
AcDbSymbolTable
70
0
0
ENDTAB
0
TABLE
2
UCS
5
7
100
AcDbSymbolTable
70
0
0
ENDTAB
0
TABLE
2
APPID
5
9
100
AcDbSymbolTable
70
2
0
APPID
5
12
100
AcDbSymbolTableRecord
100
AcDbRegAppTableRecord
2
ACAD
70
0
0
ENDTAB
0
TABLE
2
DIMSTYLE
5
A
100
AcDbSymbolTable
70
1
0
ENDTAB
0
TABLE
2
BLOCK_RECORD
5
1
100
AcDbSymbolTable
70
1
0
BLOCK_RECORD
5
1F
100
AcDbSymbolTableRecord
100
AcDbBlockTableRecord
2
*MODEL_SPACE
0
BLOCK_RECORD
5
1B
100
AcDbSymbolTableRecord
100
AcDbBlockTableRecord
2
*PAPER_SPACE
0
ENDTAB
0
ENDSEC
0
SECTION
2
BLOCKS
0
BLOCK
5
20
100
AcDbEntity
100
AcDbBlockBegin
2
*MODEL_SPACE
0
ENDBLK
5
21
100
AcDbEntity
100
AcDbBlockEnd
0
BLOCK
5
1C
100
AcDbEntity
100
AcDbBlockBegin
2
*PAPER_SPACE
0
ENDBLK
5
1D
100
AcDbEntity
100
AcDbBlockEnd
0
ENDSEC
0
SECTION
2
ENTITIES
0
SPLINE
5
100
100
AcDbEntity
8
0
100
AcDbSpline
70
0
71
3
72
323
73
319
74
0
42
0.000000001
43
0.0000000001
44
0.0000000001
40
0
40
0
40
0
40
0
40
0.41330191316539217
40
0.41330191316539217
40
0.41330191316539217
40
0.85365724128196918
40
0.85365724128196918
40
0.85365724128196918
40
1.3126698408290869
40
1.3126698408290869
40
1.3126698408290869
40
1.7811928515731681
40
1.7811928515731681
40
1.7811928515731681
40
2.2497159052526063
40
2.2497159052526063
40
2.2497159052526063
40
2.7087273433122743
40
2.7087273433122743
40
2.7087273433122743
40
3.1490832873823731
40
3.1490832873823731
40
3.1490832873823731
40
3.562386574940092
40
3.562386574940092
40
3.562386574940092
40
3.941422599224607
40
3.941422599224607
40
3.941422599224607
40
6.4491621256752811
40
6.4491621256752811
40
6.4491621256752811
40
7.4958875280922719
40
7.4958875280922719
40
7.4958875280922719
40
8.5653265984134102
40
8.5653265984134102
40
8.5653265984134102
40
9.6537165540307051
40
9.6537165540307051
40
9.6537165540307051
40
10.755668090466537
40
10.755668090466537
40
10.755668090466537
40
11.86468374951888
40
11.86468374951888
40
11.86468374951888
40
12.973699170695483
40
12.973699170695483
40
12.973699170695483
40
14.075651407648429
40
14.075651407648429
40
14.075651407648429
40
15.164040914014118
40
15.164040914014118
40
15.164040914014118
40
16.233479562378193
40
16.233479562378193
40
16.233479562378193
40
17.280204964795182
40
17.280204964795182
40
17.280204964795182
40
18.300894833151098
40
18.300894833151098
40
18.300894833151098
40
18.926277622494343
40
18.926277622494343
40
18.926277622494343
40
19.608927599782433
40
19.608927599782433
40
19.608927599782433
40
20.336752970347604
40
20.336752970347604
40
20.336752970347604
40
21.095717236991124
40
21.095717236991124
40
21.095717236991124
40
21.870549411949682
40
21.870549411949682
40
21.870549411949682
40
22.645381622985436
40
22.645381622985436
40
22.645381622985436
40
23.404346049295313
40
23.404346049295313
40
23.404346049295313
40
24.132171645204807
40
24.132171645204807
40
24.132171645204807
40
24.814821981806006
40
24.814821981806006
40
24.814821981806006
40
25.440204606763611
40
25.440204606763611
40
25.440204606763611
40
26.241802333537883
40
26.241802333537883
40
26.241802333537883
40
30.307386237329887
40
30.307386237329887
40
30.307386237329887
40
33.87637774603062
40
33.87637774603062
40
33.87637774603062
40
37.036002816593182
40
37.036002816593182
40
37.036002816593182
40
39.957496190952448
40
39.957496190952448
40
39.957496190952448
40
42.878987672631368
40
42.878987672631368
40
42.878987672631368
40
46.038613322633779
40
46.038613322633779
40
46.038613322633779
40
49.607605787752519
40
49.607605787752519
40
49.607605787752519
40
53.673188071155394
40
53.673188071155394
40
53.673188071155394
40
58.254219837782628
40
58.254219837782628
40
58.254219837782628
40
86.208578666911919
40
86.208578666911919
40
86.208578666911919
40
88.112448909491775
40
88.112448909491775
40
88.112448909491775
40
90.24102512201749
40
90.24102512201749
40
90.24102512201749
40
92.54355129078489
40
92.54355129078489
40
92.54355129078489
40
94.964634279357099
40
94.964634279357099
40
94.964634279357099
40
97.4457751936813
40
97.4457751936813
40
97.4457751936813
40
99.926914782694794
40
99.926914782694794
40
99.926914782694794
40
102.34799634527525
40
102.34799634527525
40
102.34799634527525
40
104.65052336888787
40
104.65052336888787
40
104.65052336888787
40
106.77909975845827
40
106.77909975845827
40
106.77909975845827
40
108.68296893557547
40
108.68296893557547
40
108.68296893557547
40
114.89268713063591
40
114.89268713063591
40
114.89268713063591
40
117.78090747075449
40
117.78090747075449
40
117.78090747075449
40
120.38145837165132
40
120.38145837165132
40
120.38145837165132
40
122.70948101725041
40
122.70948101725041
40
122.70948101725041
40
124.81751848277821
40
124.81751848277821
40
124.81751848277821
40
126.80014094770881
40
126.80014094770881
40
126.80014094770881
40
128.7827610127992
40
128.7827610127992
40
128.7827610127992
40
130.89079880459335
40
130.89079880459335
40
130.89079880459335
40
133.21881989108314
40
133.21881989108314
40
133.21881989108314
40
135.81936937256123
40
135.81936937256123
40
135.81936937256123
40
136.17021595429327
40
136.17021595429327
40
136.17021595429327
40
136.59173306955736
40
136.59173306955736
40
136.59173306955736
40
137.05443905292003
40
137.05443905292003
40
137.05443905292003
40
137.54949169092515
40
137.54949169092515
40
137.54949169092515
40
138.06677973469269
40
138.06677973469269
40
138.06677973469269
40
138.59538036123072
40
138.59538036123072
40
138.59538036123072
40
139.12398048619121
40
139.12398048619121
40
139.12398048619121
40
139.64126729173594
40
139.64126729173594
40
139.64126729173594
40
140.13632013742549
40
140.13632013742549
40
140.13632013742549
40
140.59902653130345
40
140.59902653130345
40
140.59902653130345
40
141.02054955503701
40
141.02054955503701
40
141.02054955503701
40
143.25134459376039
40
143.25134459376039
40
143.25134459376039
40
145.32979895865608
40
145.32979895865608
40
145.32979895865608
40
147.50092146140108
40
147.50092146140108
40
147.50092146140108
40
149.74786641753971
40
149.74786641753971
40
149.74786641753971
40
152.0483329988235
40
152.0483329988235
40
152.0483329988235
40
154.37644569374402
40
154.37644569374402
40
154.37644569374402
40
156.70455696042089
40
156.70455696042089
40
156.70455696042089
40
159.00502448158198
40
159.00502448158198
40
159.00502448158198
40
161.25196943772062
40
161.25196943772062
40
161.25196943772062
40
163.4230915038421
40
163.4230915038421
40
163.4230915038421
40
165.50154586873779
40
165.50154586873779
40
165.50154586873779
40
167.57240259205273
40
167.57240259205273
40
167.57240259205273
40
168.02026363776125
40
168.02026363776125
40
168.02026363776125
40
168.5115339486714
40
168.5115339486714
40
168.5115339486714
40
169.03691473428523
40
169.03691473428523
40
169.03691473428523
40
169.58574782135278
40
169.58574782135278
40
169.58574782135278
40
170.14652049497994
40
170.14652049497994
40
170.14652049497994
40
170.70729201051685
40
170.70729201051685
40
170.70729201051685
40
171.25612701156754
40
171.25612701156754
40
171.25612701156754
40
171.78150680716166
40
171.78150680716166
40
171.78150680716166
40
172.27277671494934
40
172.27277671494934
40
172.27277671494934
40
172.72063832286713
40
172.72063832286713
40
172.72063832286713
40
174.24974702347092
40
174.24974702347092
40
174.24974702347092
40
178.47617348542045
40
178.47617348542045
40
178.47617348542045
40
182.70260085771275
40
182.70260085771275
40
182.70260085771275
40
186.92902684527715
40
186.92902684527715
40
186.92902684527715
40
191.155453727073
40
191.155453727073
40
191.155453727073
40
195.38187937014536
40
195.38187937014536
40
195.38187937014536
40
199.60830572460372
40
199.60830572460372
40
199.60830572460372
40
203.83473163707416
40
203.83473163707416
40
203.83473163707416
40
208.06115809902369
40
208.06115809902369
40
208.06115809902369
40
209.99520429567013
40
209.99520429567013
40
209.99520429567013
40
210.37424255303245
40
210.37424255303245
40
210.37424255303245
40
210.37424255303245
10
373.29887390136719
20
124.72455978393555
30
0
10
373.29511681190843
20
124.66774438237579
30
0
10
373.28609545822007
20
124.47154206487559
30
0
10
373.27160263061523
20
124.31215858459473
30
0
10
373.25616114909303
20
124.14234237392705
30
0
10
373.23450846043102
20
124.0143228396413
30
0
10
373.20798492431641
20
123.87642288208006
30
0
10
373.18033762114158
20
123.73268028614433
30
0
10
373.14739798413603
20
123.57820228967083
30
0
10
373.10958480834961
20
123.42808151245116
30
0
10
373.07098817073506
20
123.27485034061058
30
0
10
373.02731394974245
20
123.12615881543186
30
0
10
372.97882843017584
20
122.97817420959473
30
0
10
372.93034290616595
20
122.8301895901963
30
0
10
372.87704608270025
20
122.68291189026904
30
0
10
372.81893539428717
20
122.5377788543701
30
0
10
372.76200442697257
20
122.39559220422608
30
0
10
372.70045306591328
20
122.25546402318517
30
0
10
372.63384246826178
20
122.11774063110352
30
0
10
372.56993910947415
20
121.98561469847527
30
0
10
372.50137939980084
20
121.85570205257437
30
0
10
372.42810440063477
20
121.72840118408203
30
0
10
372.35933094938719
20
121.60892086783933
30
0
10
372.28640376726247
20
121.49174128424148
30
0
10
372.20678710937506
20
121.3793478012085
30
0
10
372.13377152401449
20
121.27627294009123
30
0
10
372.05512973639117
20
121.1772234422136
30
0
10
371.97534561157227
20
121.07917594909667
30
0
10
371.44748601361124
20
120.43048411453339
30
0
10
370.86962317027042
20
119.82565278815912
30
0
10
370.34138488769537
20
119.1768274307251
30
0
10
370.12089929775726
20
118.9060090398216
30
0
10
369.90905935190813
20
118.62752596174082
30
0
10
369.72225189208984
20
118.33284378051758
30
0
10
369.53139075917409
20
118.03176707291128
30
0
10
369.3666602963732
20
117.71378060173411
30
0
10
369.22414398193359
20
117.38648843765259
30
0
10
369.07910222176952
20
117.05339652636528
30
0
10
368.95706887255926
20
116.71066619891762
30
0
10
368.85932159423828
20
116.36106300354002
30
0
10
368.76035636309825
20
116.00710367462403
30
0
10
368.68628619311863
20
115.6460991357915
30
0
10
368.63677215576172
20
115.28181838989256
30
0
10
368.58694070586944
20
114.91520240167964
30
0
10
368.56198123469255
20
114.54526806714256
30
0
10
368.56197738647461
20
114.17532777786255
30
0
10
368.56197353825746
20
113.80538756793202
30
0
10
368.58692530229371
20
113.43544140326108
30
0
10
368.63677215576172
20
113.06883740425108
30
0
10
368.68630154068762
20
112.7045682614863
30
0
10
368.76040991726677
20
112.34359884825686
30
0
10
368.85932159423828
20
111.9895920753479
30
0
10
368.95701587504539
20
111.6399423864631
30
0
10
369.07890665991386
20
111.29708500151068
30
0
10
369.22414398193359
20
110.96416711807251
30
0
10
369.36685245573307
20
110.63704594573667
30
0
10
369.53210153261585
20
110.31952115838192
30
0
10
369.72225189208984
20
110.01781225204468
30
0
10
369.90836374791689
20
109.72251118275778
30
0
10
370.11833038809368
20
109.44236131821674
30
0
10
370.34138488769537
20
109.17382860183714
30
0
10
370.55889128173993
20
108.91197518517424
30
0
10
370.78884255544637
20
108.66116818994591
30
0
10
371.00643157958984
20
108.39954137802124
30
0
10
371.13974967656333
20
108.23924106498689
30
0
10
371.26842687846528
20
108.0748788994778
30
0
10
371.38871002197271
20
107.9046001434326
30
0
10
371.5200076633256
20
107.71872872047746
30
0
10
371.64130354774528
20
107.52580751330183
30
0
10
371.75567245483398
20
107.32897043228149
30
0
10
371.87760989708465
20
107.11910736013473
30
0
10
371.99167322010732
20
106.90479298750559
30
0
10
372.09828186035162
20
106.68682670593262
30
0
10
372.20945158832905
20
106.45953507014011
30
0
10
372.3125151138691
20
106.22827235817149
30
0
10
372.40810775756842
20
105.99398136138916
30
0
10
372.50569898719914
20
105.75479196791099
30
0
10
372.59550367712188
20
105.51244633927183
30
0
10
372.67751693725586
20
105.26749420166014
30
0
10
372.75953020120852
20
105.02254205264319
30
0
10
372.83375203464686
20
104.77498339441095
30
0
10
372.89987564086914
20
104.52525329589844
30
0
10
372.9646451021116
20
104.28063741874422
30
0
10
373.02164462693293
20
104.03393812845894
30
0
10
373.06970977783209
20
103.78553485870361
30
0
10
373.1158029093188
20
103.54732309070998
30
0
10
373.15367974752303
20
103.3075442968458
30
0
10
373.18283843994146
20
103.06655502319336
30
0
10
373.21018728739347
20
102.84052366389423
30
0
10
373.22986665173812
20
102.61342742743935
30
0
10
373.23647308349615
20
102.38601493835448
30
0
10
373.24252530000126
20
102.17768014124572
30
0
10
373.23760596550335
20
101.96907992688365
30
0
10
373.22929382324219
20
101.76067352294922
30
0
10
373.21863955483872
20
101.49354410014126
30
0
10
373.20241111161783
20
101.22673309596487
30
0
10
373.1784553527832
20
100.96068954467771
30
0
10
373.05695532319481
20
99.611356402013598
30
0
10
372.73668038905066
20
98.281764962993037
30
0
10
372.31400299072271
20
96.988071441650376
30
0
10
371.94295369466829
20
95.852396640245701
30
0
10
371.49299012190602
20
94.744385804073232
30
0
10
370.89692687988281
20
93.712465286254854
30
0
10
370.36923261147507
20
92.798906951644611
30
0
10
369.72703206310439
20
91.94498474995649
30
0
10
368.96211242675781
20
91.214521408081026
30
0
10
368.25484254517477
20
90.539110950877159
30
0
10
367.44265446431001
20
89.969251157963214
30
0
10
366.55720329284668
20
89.555746078491211
30
0
10
365.67175269502013
20
89.142241266907149
30
0
10
364.71303910152136
20
88.885090966177302
30
0
10
363.74141693115234
20
88.776990890502901
30
0
10
362.69059670769423
20
88.660079451941499
30
0
10
361.62467775565506
20
88.717507052893353
30
0
10
360.58408737182617
20
88.897424697875948
30
0
10
359.40867621539468
20
89.100652798421464
30
0
10
358.26558202940043
20
89.460167156402719
30
0
10
357.16296005249029
20
89.914083480834961
30
0
10
355.90691918985777
20
90.43115774893586
30
0
10
354.70339668751654
20
91.070731791535707
30
0
10
353.56227111816406
20
91.801939010620103
30
0
10
352.27646944978926
20
92.625851371781096
30
0
10
351.06988951460806
20
93.566105013056728
30
0
10
349.87067985534674
20
94.514503479003906
30
0
10
342.55286613255896
20
100.30181786158946
30
0
10
335.50949797110258
20
106.39241952992211
30
0
10
328.43900012969976
20
112.46246385574339
30
0
10
327.95745410237879
20
112.87587261370174
30
0
10
327.47578223459954
20
113.28918601685285
30
0
10
327.0023078918457
20
113.71171855926514
30
0
10
326.47295132085304
20
114.1841208788571
30
0
10
325.9538415075956
20
114.66804695546649
30
0
10
325.43990612030029
20
115.157310962677
30
0
10
324.8839712792834
20
115.68655824703966
30
0
10
324.33409114228681
20
116.22205155561963
30
0
10
323.79026412963867
20
116.76364469528197
30
0
10
323.21843552377607
20
117.33312440628384
30
0
10
322.65329943977548
20
117.90934827956031
30
0
10
322.09400177001953
20
118.49116802215576
30
0
10
321.52083003725869
20
119.08742051532884
30
0
10
320.95378996942065
20
119.68954994600212
30
0
10
320.39288806915283
20
120.29734420776366
30
0
10
319.83198646849286
20
120.90513814486965
30
0
10
319.27722302884558
20
121.51859690701212
30
0
10
318.72880935668945
20
122.13769626617432
30
0
10
318.19367048896771
20
122.74180981565378
30
0
10
317.6645777065051
20
123.35129419651281
30
0
10
317.14274024963379
20
123.96690940856934
30
0
10
316.64645591747819
20
124.55237942486914
30
0
10
316.15673375624118
20
125.14339454892257
30
0
10
315.67373466491699
20
125.7399444580078
30
0
10
315.22722504681769
20
126.29142639010124
30
0
10
314.78646104524097
20
126.8476384161458
30
0
10
314.35796737670898
20
127.41314315795898
30
0
10
313.97470845675423
20
127.91894931682043
30
0
10
313.60126593292091
20
128.43218974651182
30
0
10
313.22783279418945
20
128.94530296325684
30
0
10
312.00983179701461
20
130.618888793861
30
0
10
310.79193064075901
20
132.29112130325208
30
0
10
309.63515472412109
20
134.01020812988281
30
0
10
309.0971232665824
20
134.80977767283798
30
0
10
308.57231503549338
20
135.61948321281955
30
0
10
308.12599754333496
20
136.47278022766113
30
0
10
307.72413368959906
20
137.24108806410126
30
0
10
307.38590372847841
20
138.04473631481159
30
0
10
307.12922668457031
20
138.87471961975098
30
0
10
306.89944845926533
20
139.61772369965641
30
0
10
306.73502589089918
20
140.38183241724354
30
0
10
306.66939544677734
20
141.1568775177002
30
0
10
306.609966714265
20
141.85868517078509
30
0
10
306.63154162887884
20
142.56946000526804
30
0
10
306.75782012939453
20
143.26305961608887
30
0
10
306.87658585156703
20
143.91539440262275
30
0
10
307.08796734570063
20
144.55253680978996
30
0
10
307.39232444763184
20
145.14140892028809
30
0
10
307.69668118115783
20
145.73028031799345
30
0
10
308.09401329739933
20
146.27088153588602
30
0
10
308.55728530883789
20
146.74566841125488
30
0
10
309.04986324910431
20
147.25048962937353
30
0
10
309.616987480852
20
147.68090649566918
30
0
10
310.22401809692383
20
148.03633689880371
30
0
10
310.89439510812406
20
148.4288580748935
30
0
10
311.61344190293522
20
148.7299258407682
30
0
10
312.35147857666016
20
148.98163795471191
30
0
10
313.17591307182238
20
149.26281659660518
30
0
10
314.02404376222199
20
149.4824076333569
30
0
10
314.88728713989258
20
149.55829429626465
30
0
10
315.00374944542284
20
149.56853235420968
30
0
10
315.12048682267846
20
149.57615479460526
30
0
10
315.23734283447266
20
149.58183860778809
30
0
10
315.37773698837776
20
149.58866730346665
30
0
10
315.51830238301392
20
149.5926977251772
30
0
10
315.65877532958984
20
149.59028434753418
30
0
10
315.81297469784215
20
149.58763514484443
30
0
10
315.96706266803977
20
149.57722129342514
30
0
10
316.12062454223633
20
149.5621395111084
30
0
10
316.2849215551376
20
149.54600339791733
30
0
10
316.44861634477564
20
149.52452389383922
30
0
10
316.61151695251465
20
149.49809455871582
30
0
10
316.78173427939407
20
149.47047814378439
30
0
10
316.95108448047517
20
149.43745726647259
30
0
10
317.11936569213867
20
149.39972496032715
30
0
10
317.2913270490493
20
149.36116748560971
30
0
10
317.46217214979094
20
149.31769026013231
30
0
10
317.63166427612305
20
149.26946067810059
30
0
10
317.80115624162778
20
149.22123114183285
30
0
10
317.96929523529053
20
149.16824925802956
30
0
10
318.13579750061035
20
149.11050224304199
30
0
10
318.29873621529509
20
149.05399115365302
30
0
10
318.46010751179119
20
148.99291672098104
30
0
10
318.61935424804688
20
148.92676734924316
30
0
10
318.77175626005476
20
148.86346120192141
30
0
10
318.92221242201055
20
148.79550700073059
30
0
10
319.07042694091797
20
148.72278022766113
30
0
10
319.20895721331442
20
148.65480537770654
30
0
10
319.34552920774553
20
148.58266125452414
30
0
10
319.47790718078613
20
148.50356101989746
30
0
10
319.59850279867709
20
148.43150113371686
30
0
10
319.71561775144647
20
148.35366829307765
30
0
10
319.83176612854004
20
148.27450752258301
30
0
10
320.44644957116941
20
147.85557084738824
30
0
10
321.03406149636618
20
147.39944197180029
30
0
10
321.64529514312744
20
146.9754467010498
30
0
10
322.21478773165728
20
146.58040600663855
30
0
10
322.80478595378975
20
146.21325997372901
30
0
10
323.41826438903809
20
145.89075660705566
30
0
10
324.05909483410943
20
145.55387438898941
30
0
10
324.72554590328974
20
145.26570437660953
30
0
10
325.4062871932984
20
145.01809501647949
30
0
10
326.11080211868199
20
144.7618383556354
30
0
10
326.83062281290114
20
144.54902482800929
30
0
10
327.56041240692139
20
144.37895011901855
30
0
10
328.30758539299109
20
144.20482427615539
30
0
10
329.06520784804195
20
144.07549755541498
30
0
10
329.82759761810308
20
143.98905563354492
30
0
10
330.59914949223037
20
143.90157488624072
30
0
10
331.37558395335708
20
143.85801587706146
30
0
10
332.15201950073242
20
143.8580150604248
30
0
10
332.92845457178248
20
143.85801424378863
30
0
10
333.70489072907964
20
143.90157156625116
30
0
10
334.47643995285034
20
143.98905563354492
30
0
10
335.23882788321549
20
144.07550092433019
30
0
10
335.99644424490612
20
144.20483599015955
30
0
10
336.7436261177063
20
144.37895011901855
30
0
10
337.47342409353655
20
144.54901331705702
30
0
10
338.19326746885895
20
144.76179616224468
30
0
10
338.89775133132935
20
145.01809501647949
30
0
10
339.57846246973867
20
145.26574509639383
30
0
10
340.24483321502265
20
145.55402385268579
30
0
10
340.88577365875244
20
145.89075660705566
30
0
10
341.49935752107683
20
146.21311695429017
30
0
10
342.08963558344414
20
146.57988334932213
30
0
10
342.65874290466309
20
146.9754467010498
30
0
10
343.22576989468951
20
147.36956409917866
30
0
10
343.77178063694703
20
147.7922683083531
30
0
10
344.34224891662603
20
148.18137168884277
30
0
10
344.46562322707643
20
148.26552248735666
30
0
10
344.59014146687343
20
148.34810170597925
30
0
10
344.71838283538824
20
148.42448234558105
30
0
10
344.85905409399726
20
148.50826623552695
30
0
10
345.00420519267311
20
148.5845917095117
30
0
10
345.15146732330322
20
148.65639686584473
30
0
10
345.30895433638625
20
148.73318768468226
30
0
10
345.4688557100971
20
148.80480867321904
30
0
10
345.63083839416504
20
148.87140464782715
30
0
10
345.80005177041107
20
148.94097337841507
30
0
10
345.9715364181244
20
149.00505846226122
30
0
10
346.14469146728516
20
149.06420707702637
30
0
10
346.3216134170691
20
149.12464244002609
30
0
10
346.50027923631092
20
149.17992421693887
30
0
10
346.68037605285645
20
149.23006248474121
30
0
10
346.86047249747168
20
149.28020064899957
30
0
10
347.04199993348027
20
149.32519532539197
30
0
10
347.22469902038574
20
149.3648853302002
30
0
10
347.40350919667969
20
149.40373049837851
30
0
10
347.58344167549438
20
149.4374944206786
30
0
10
347.76425933837891
20
149.46535682678223
30
0
10
347.93734951408612
20
149.49202849530823
30
0
10
348.11125083148454
20
149.51329228767349
30
0
10
348.28577041625977
20
149.52899742126465
30
0
10
348.44895944834411
20
149.54368291087772
30
0
10
348.61268907281158
20
149.55350809456672
30
0
10
348.77639102935797
20
149.55424690246582
30
0
10
348.92562838405013
20
149.55492042976391
30
0
10
349.07484274424746
20
149.54804237339073
30
0
10
349.22404098510748
20
149.54047966003418
30
0
10
349.7334401481088
20
149.51465871314065
30
0
10
350.24265140701959
20
149.48085667839791
30
0
10
350.74843597412109
20
149.42050743103027
30
0
10
352.14641459892357
20
149.25370329478238
30
0
10
353.51821471149151
20
148.88408940231568
30
0
10
354.85808563232422
20
148.43386650085449
30
0
10
356.1979568417558
20
147.98364350241846
30
0
10
357.5058988456974
20
147.45281146026272
30
0
10
358.76279449462891
20
146.81648063659668
30
0
10
360.01968973175673
20
146.18015002141524
30
0
10
361.22553864732356
20
145.43832069385377
30
0
10
362.36641502380371
20
144.60817909240723
30
0
10
363.50729164167171
20
143.7780373153185
30
0
10
364.58319569295901
20
142.85958322697431
30
0
10
365.58021545410156
20
141.86333465576172
30
0
10
366.57723492302762
20
140.86708637653965
30
0
10
367.49537014804923
20
139.7930436600507
30
0
10
368.32505798339844
20
138.64953422546387
30
0
10
369.15474595839953
20
137.50602459840312
30
0
10
369.89598651395363
20
136.29304822985938
30
0
10
370.53336334228516
20
135.0459156036377
30
0
10
371.17074010396163
20
133.79878310783769
30
0
10
371.70425316013927
20
132.51749436150368
30
0
10
372.1507453918457
20
131.14120674133301
30
0
10
372.5972376816008
20
129.76491894223068
30
0
10
372.95670912425743
20
128.29363224459001
30
0
10
373.13738632202154
20
127.03155708312988
30
0
10
373.22006563758572
20
126.45402150126671
30
0
10
373.26530454378059
20
125.92029586174303
30
0
10
373.28912734985352
20
125.10347270965575
30
0
10
373.29379619122614
20
124.9433900680533
30
0
10
373.29764246273356
20
124.77243394895456
30
0
10
373.29887390136719
20
124.72455978393555
30
0
0
ENDSEC
0
SECTION
2
OBJECTS
0
DICTIONARY
5
C
100
AcDbDictionary
3
ACAD_GROUP
350
D
3
ACAD_MLINESTYLE
350
17
0
DICTIONARY
5
D
100
AcDbDictionary
0
DICTIONARY
5
1A
330
C
100
AcDbDictionary
0
DICTIONARY
5
17
100
AcDbDictionary
0
ENDSEC
0
EOF
