0
SECTION
2
HEADER
9
$INSUNITS
70
4
9
$ACADVER
1
AC1014
9
$HANDSEED
5
FFFF
0
ENDSEC
0
SECTION
2
TABLES
0
TABLE
2
VPORT
5
8
100
AcDbSymbolTable
0
ENDTAB
0
TABLE
2
LTYPE
5
5
100
AcDbSymbolTable
0
LTYPE
5
14
100
AcDbSymbolTableRecord
100
AcDbLinetypeTableRecord
2
BYBLOCK
70
0
0
LTYPE
5
15
100
AcDbSymbolTableRecord
100
AcDbLinetypeTableRecord
2
BYLAYER
70
0
0
LTYPE
5
16
100
AcDbSymbolTableRecord
100
AcDbLinetypeTableRecord
2
DASHED
70
0
3
Dashed __ __ __ __ __ __ __ __ __ __ __ __ __ _
72
65
73
2
40
0.75
49
0.5
74
0
49
-0.25
74
0
0
ENDTAB
0
TABLE
2
LAYER
5
2
100
AcDbSymbolTable
70
3
0
LAYER
5
50
100
AcDbSymbolTableRecord
100
AcDbLayerTableRecord
2
1
70
0
62
7
6
DASHED
0
LAYER
5
51
100
AcDbSymbolTableRecord
100
AcDbLayerTableRecord
2
0
70
0
62
7
6
CONTINUOUS
0
ENDTAB
0
TABLE
2
STYLE
5
3
100
AcDbSymbolTable
70
1
0
STYLE
5
11
100
AcDbSymbolTableRecord
100
AcDbTextStyleTableRecord
2
STANDARD
70
0
0
ENDTAB
0
TABLE
2
VIEW
5
6
100
AcDbSymbolTable
70
0
0
ENDTAB
0
TABLE
2
UCS
5
7
100
AcDbSymbolTable
70
0
0
ENDTAB
0
TABLE
2
APPID
5
9
100
AcDbSymbolTable
70
2
0
APPID
5
12
100
AcDbSymbolTableRecord
100
AcDbRegAppTableRecord
2
ACAD
70
0
0
ENDTAB
0
TABLE
2
DIMSTYLE
5
A
100
AcDbSymbolTable
70
1
0
ENDTAB
0
TABLE
2
BLOCK_RECORD
5
1
100
AcDbSymbolTable
70
1
0
BLOCK_RECORD
5
1F
100
AcDbSymbolTableRecord
100
AcDbBlockTableRecord
2
*MODEL_SPACE
0
BLOCK_RECORD
5
1B
100
AcDbSymbolTableRecord
100
AcDbBlockTableRecord
2
*PAPER_SPACE
0
ENDTAB
0
ENDSEC
0
SECTION
2
BLOCKS
0
BLOCK
5
20
100
AcDbEntity
100
AcDbBlockBegin
2
*MODEL_SPACE
0
ENDBLK
5
21
100
AcDbEntity
100
AcDbBlockEnd
0
BLOCK
5
1C
100
AcDbEntity
100
AcDbBlockBegin
2
*PAPER_SPACE
0
ENDBLK
5
1D
100
AcDbEntity
100
AcDbBlockEnd
0
ENDSEC
0
SECTION
2
ENTITIES
0
SPLINE
5
100
100
AcDbEntity
8
0
100
AcDbSpline
70
0
71
3
72
148
73
144
74
0
42
0.000000001
43
0.0000000001
44
0.0000000001
40
0
40
0
40
0
40
0
40
9.2036016086860695
40
10.055917853197739
40
10.975766757908614
40
11.941724936610708
40
12.931063049571797
40
13.920400961074634
40
14.886358951476556
40
15.806208449508164
40
16.658524606208257
40
17.423865928487636
40
18.44361318127962
40
20.13361314823246
40
22.015664691352587
40
24.046841946554888
40
26.179833176268723
40
28.364452439181999
40
30.54906891867271
40
32.682061766696151
40
34.713237967343957
40
36.595288977576985
40
38.285292100425053
40
55.961077497372962
40
57.430575451310418
40
59.0332374834734
40
60.741020328747283
40
62.521291066928342
40
64.33851069646623
40
66.155730354713555
40
67.936000862892115
40
69.64378516656933
40
71.246447380698257
40
72.715945596288307
40
82.922516221593483
40
83.804630982703912
40
84.786986099761094
40
85.847178200347358
40
86.960513861086554
40
88.10079651031478
40
89.241079608930903
40
90.354414847857058
40
91.414607001107257
40
92.396961346976639
40
93.279072605246853
40
95.179711535340843
40
95.703136639433069
40
96.286040624600489
40
96.915129090391076
40
97.575754221335671
40
98.252366644607918
40
98.928980597083836
40
99.589605009678465
40
100.21869637744122
40
100.80159853676669
40
101.325020378001
40
106.92463988156533
40
107.64160665218203
40
108.40722129036901
40
109.21190996569045
40
110.04383477100865
40
110.88972842004264
40
111.73562179359408
40
112.56754740844407
40
113.37223646256
40
114.13785050647174
40
114.85481600989571
40
126.69606422559008
40
128.21465938846708
40
129.89840729162421
40
131.71083749889115
40
133.61130171504036
40
135.55645208458625
40
137.50160245413215
40
139.40206667028136
40
141.21449640338312
40
142.89824477758683
40
144.41683994046383
40
151.37411076178336
40
152.88739371479878
40
154.50336323684937
40
156.20180271832569
40
157.95773380209289
40
159.7431453566837
40
161.52855676904397
40
163.28448791322035
40
164.98292926513963
40
166.59889839593461
40
168.1121809401719
40
171.05950668479085
40
172.00601008510313
40
173.01495301997926
40
174.0741162751292
40
175.16832063062361
40
176.28050549891782
40
177.39269025892654
40
178.48689451987113
40
179.5460571536166
40
180.55499957258613
40
181.50150332147427
40
186.86000154982219
40
188.03102497147717
40
189.33790032308082
40
190.75008687571821
40
192.23410741053132
40
193.75453359045588
40
195.27496007086523
40
196.7589806422005
40
198.17116777434001
40
199.47804176583406
40
200.64906432883535
40
203.90159648561792
40
204.6875648442109
40
205.56777985120789
40
206.52085739544702
40
207.52355714990395
40
208.55138469312678
40
209.57921312575775
40
210.58191290253887
40
211.53499107022196
40
212.41520565873182
40
213.20117507300526
40
220.1025949027578
40
221.14208060457702
40
222.25497989705741
40
223.42671258605847
40
224.63940303228168
40
225.87308008047933
40
227.10675664921672
40
228.31944590584209
40
229.49118074478724
40
230.60407697540168
40
231.64356078750029
40
233.63490429634979
40
235.15954054177203
40
236.82233455725043
40
238.5941947755023
40
240.44125822632722
40
242.32665779471975
40
244.21206117752257
40
246.05912626571188
40
247.83098582820625
40
251.01841184468466
40
251.01841184468466
40
251.01841184468466
40
251.01841184468466
10
375
20
158.52657318115234
30
0
10
374.38505250588952
20
155.49037278468143
30
0
10
375.20415917615355
20
152.09945155269619
30
0
10
374.91781521420785
20
148.45037916904923
30
0
10
374.81318932131501
20
147.54355061320209
30
0
10
374.67058247408858
20
146.59564656804778
30
0
10
374.49401859271347
20
145.62995551313853
30
0
10
374.2875709964834
20
144.67021164102823
30
0
10
374.05665078853559
20
143.73986600093528
30
0
10
373.80602270641202
20
142.86210646570058
30
0
10
373.5452003809628
20
142.05709314566354
30
0
10
373.2271408241416
20
141.23721980280726
30
0
10
372.7818309886768
20
140.16790220207531
30
0
10
372.16213487022964
20
138.76777944163769
30
0
10
371.31309305573348
20
137.10330735201572
30
0
10
370.33368139032211
20
135.34151955122974
30
0
10
369.24165246280319
20
133.52828918011312
30
0
10
368.06545073200175
20
131.7073819395163
30
0
10
366.83323102783453
20
129.9239257157609
30
0
10
365.57610469489538
20
128.22094840914272
30
0
10
364.32260185173459
20
126.64251406845852
30
0
10
363.11182549133628
20
125.21904396257627
30
0
10
358.19566761491467
20
120.11839955993227
30
0
10
353.35136190433445
20
115.14290263621544
30
0
10
348.28856707172946
20
110.42291216820409
30
0
10
347.00035472159101
20
109.47984449452221
30
0
10
345.56407260755969
20
108.57452104141183
30
0
10
344.00260095004012
20
107.74103403365754
30
0
10
342.3572420472147
20
106.99615634837812
30
0
10
340.66708803185549
20
106.35941050814544
30
0
10
338.97359710881278
20
105.84468315055361
30
0
10
337.31783024530546
20
105.46911011268665
30
0
10
335.74008077645885
20
105.22548829843302
30
0
10
331.31284300962051
20
105.06604000173661
30
0
10
327.12761136934819
20
105.11643039822491
30
0
10
323.1037451734482
20
105.19065453872436
30
0
10
322.13149363429113
20
105.2691509296732
30
0
10
321.08627855349931
20
105.38907665851802
30
0
10
319.99376037076354
20
105.55363328204967
30
0
10
318.88072859925262
20
105.7570786209902
30
0
10
317.77456027741164
20
105.99504876409281
30
0
10
316.70225404315863
20
106.26115810316774
30
0
10
315.69063037011381
20
106.55016149760104
30
0
10
314.76260728873353
20
106.85032477861945
30
0
10
313.5930260629649
20
107.30643723191712
30
0
10
312.57447939261687
20
107.72713147627087
30
0
10
311.65613599240748
20
108.12937174821137
30
0
10
311.14086020605447
20
108.39292038076537
30
0
10
310.59513059115096
20
108.69608181610963
30
0
10
310.03356439266429
20
109.03435374330439
30
0
10
309.46959190815284
20
109.39862890747517
30
0
10
308.91722762265312
20
109.78027316443247
30
0
10
308.38978274653084
20
110.16962317102281
30
0
10
307.90092437135917
20
110.55786563981843
30
0
10
307.46002776017343
20
110.93283782050933
30
0
10
305.85052092300981
20
112.48471239848743
30
0
10
304.20962267008804
20
114.06701948115852
30
0
10
302.6119990926282
20
115.8094810007936
30
0
10
302.18454330107369
20
116.44379693839286
30
0
10
301.80097363199297
20
117.14767502180676
30
0
10
301.47707498880823
20
117.91060571389951
30
0
10
301.2187238717633
20
118.71232826297518
30
0
10
301.0329125269667
20
119.53389735630688
30
0
10
300.92325310582675
20
120.3554544391215
30
0
10
300.89506667139318
20
121.15655235351736
30
0
10
300.93991379576858
20
121.92016595838257
30
0
10
301.86040951818359
20
126.27111404336178
30
0
10
303.27525581551077
20
130.75031846556979
30
0
10
304.39181307772776
20
135.64127602784251
30
0
10
304.64205789449875
20
137.29533214912934
30
0
10
304.83155790005219
20
139.08460732627489
30
0
10
304.94569157161845
20
140.96780976335148
30
0
10
304.98441343278637
20
142.89817371394261
30
0
10
304.94570527289852
20
144.82854390904546
30
0
10
304.83150559726045
20
146.71172816446403
30
0
10
304.64223855231444
20
148.50106469163026
30
0
10
304.39121612090707
20
150.1549166003914
30
0
10
303.64272428883578
20
153.45946265257228
30
0
10
302.66709752578043
20
156.64550639468897
30
0
10
301.98542323659098
20
159.94333544861792
30
0
10
301.88876130460511
20
161.55454468693574
30
0
10
301.94884065821674
20
163.245560986155
30
0
10
302.18012032797799
20
164.97956549319844
30
0
10
302.5723698308625
20
166.7136394891059
30
0
10
303.11761961565952
20
168.4058464684847
30
0
10
303.80136135855338
20
170.01605894813309
30
0
10
304.61065712507445
20
171.50204040727914
30
0
10
305.51391638001394
20
172.83977105379975
30
0
10
306.87997625855667
20
174.33984166368754
30
0
10
308.15081620432551
20
175.61669204304599
30
0
10
309.35991619373124
20
176.72001382955165
30
0
10
310.19704996244525
20
177.28170743261617
30
0
10
311.12597539685078
20
177.7825469156767
30
0
10
312.13222942604637
20
178.20238979063762
30
0
10
313.18926161164848
20
178.53351078159864
30
0
10
314.27205662115296
20
178.76700126901281
30
0
10
315.35445103060584
20
178.89825052357995
30
0
10
316.40955748415195
20
178.92096529126258
30
0
10
317.41480006985449
20
178.84522389829553
30
0
10
319.79607985912514
20
178.30504828889593
30
0
10
322.16951148500505
20
177.54108976594497
30
0
10
324.70138490783415
20
176.89586967132098
30
0
10
325.97169508981716
20
176.63378665658226
30
0
10
327.35173076951867
20
176.39129707139011
30
0
10
328.80865597348071
20
176.17831266454928
30
0
10
330.3064160194898
20
175.99901397960912
30
0
10
331.8082864567973
20
175.85828005579128
30
0
10
333.27735715229693
20
175.7590103937307
30
0
10
334.677471921804
20
175.7051132613839
30
0
10
335.97453626116811
20
175.69247416523922
30
0
10
337.88357556759456
20
175.76721664722959
30
0
10
339.61680997332064
20
175.873486750193
30
0
10
341.25297773896358
20
175.98016141705301
30
0
10
342.12249733838451
20
176.05993793948682
30
0
10
343.06256066624206
20
176.15976479179008
30
0
10
344.04989965557013
20
176.2795033131093
30
0
10
345.0602592274368
20
176.41555997811324
30
0
10
346.06875118724332
20
176.56483936223361
30
0
10
347.05059005078863
20
176.72346941727272
30
0
10
347.98152648283644
20
176.88795627261618
30
0
10
348.83899546338409
20
177.05271338987728
30
0
10
351.62994150971269
20
177.659139650329
30
0
10
354.44043798244019
20
178.4143975066815
30
0
10
357.41399617096238
20
178.9543652790006
30
0
10
358.52466247949133
20
178.9942308736189
30
0
10
359.68981700838799
20
178.92885978865229
30
0
10
360.88401905868722
20
178.74776440845793
30
0
10
362.07770885200046
20
178.45882482085685
30
0
10
363.24200694547631
20
178.06790128524963
30
0
10
364.34925260641558
20
177.58535626809567
30
0
10
365.37054144403567
20
177.02054585230539
30
0
10
366.28882872077304
20
176.39485351259316
30
0
10
367.31222371100239
20
175.46390925063696
30
0
10
368.38050341632902
20
174.38532890497368
30
0
10
369.55287670171111
20
173.11564881032621
30
0
10
370.53287607254475
20
171.78070939611914
30
0
10
371.47170832266329
20
170.29006444159776
30
0
10
372.33660978411888
20
168.67014235460246
30
0
10
373.10934208852427
20
166.96301093554493
30
0
10
373.77019969758578
20
165.20946161031605
30
0
10
374.30346432081302
20
163.4523935883542
30
0
10
374.80909623952294
20
161.23877179941303
30
0
10
374.99729192014161
20
159.59055314606442
30
0
10
375
20
158.52657318115234
30
0
0
ENDSEC
0
SECTION
2
OBJECTS
0
DICTIONARY
5
C
100
AcDbDictionary
3
ACAD_GROUP
350
D
3
ACAD_MLINESTYLE
350
17
0
DICTIONARY
5
D
100
AcDbDictionary
0
DICTIONARY
5
1A
330
C
100
AcDbDictionary
0
DICTIONARY
5
17
100
AcDbDictionary
0
ENDSEC
0
EOF
