0
SECTION
2
HEADER
9
$INSUNITS
70
4
9
$ACADVER
1
AC1014
9
$HANDSEED
5
FFFF
0
ENDSEC
0
SECTION
2
TABLES
0
TABLE
2
VPORT
5
8
100
AcDbSymbolTable
0
ENDTAB
0
TABLE
2
LTYPE
5
5
100
AcDbSymbolTable
0
LTYPE
5
14
100
AcDbSymbolTableRecord
100
AcDbLinetypeTableRecord
2
BYBLOCK
70
0
0
LTYPE
5
15
100
AcDbSymbolTableRecord
100
AcDbLinetypeTableRecord
2
BYLAYER
70
0
0
LTYPE
5
16
100
AcDbSymbolTableRecord
100
AcDbLinetypeTableRecord
2
DASHED
70
0
3
Dashed __ __ __ __ __ __ __ __ __ __ __ __ __ _
72
65
73
2
40
0.75
49
0.5
74
0
49
-0.25
74
0
0
ENDTAB
0
TABLE
2
LAYER
5
2
100
AcDbSymbolTable
70
3
0
LAYER
5
50
100
AcDbSymbolTableRecord
100
AcDbLayerTableRecord
2
1
70
0
62
7
6
DASHED
0
LAYER
5
51
100
AcDbSymbolTableRecord
100
AcDbLayerTableRecord
2
0
70
0
62
7
6
CONTINUOUS
0
ENDTAB
0
TABLE
2
STYLE
5
3
100
AcDbSymbolTable
70
1
0
STYLE
5
11
100
AcDbSymbolTableRecord
100
AcDbTextStyleTableRecord
2
STANDARD
70
0
0
ENDTAB
0
TABLE
2
VIEW
5
6
100
AcDbSymbolTable
70
0
0
ENDTAB
0
TABLE
2
UCS
5
7
100
AcDbSymbolTable
70
0
0
ENDTAB
0
TABLE
2
APPID
5
9
100
AcDbSymbolTable
70
2
0
APPID
5
12
100
AcDbSymbolTableRecord
100
AcDbRegAppTableRecord
2
ACAD
70
0
0
ENDTAB
0
TABLE
2
DIMSTYLE
5
A
100
AcDbSymbolTable
70
1
0
ENDTAB
0
TABLE
2
BLOCK_RECORD
5
1
100
AcDbSymbolTable
70
1
0
BLOCK_RECORD
5
1F
100
AcDbSymbolTableRecord
100
AcDbBlockTableRecord
2
*MODEL_SPACE
0
BLOCK_RECORD
5
1B
100
AcDbSymbolTableRecord
100
AcDbBlockTableRecord
2
*PAPER_SPACE
0
ENDTAB
0
ENDSEC
0
SECTION
2
BLOCKS
0
BLOCK
5
20
100
AcDbEntity
100
AcDbBlockBegin
2
*MODEL_SPACE
0
ENDBLK
5
21
100
AcDbEntity
100
AcDbBlockEnd
0
BLOCK
5
1C
100
AcDbEntity
100
AcDbBlockBegin
2
*PAPER_SPACE
0
ENDBLK
5
1D
100
AcDbEntity
100
AcDbBlockEnd
0
ENDSEC
0
SECTION
2
ENTITIES
0
SPLINE
5
100
100
AcDbEntity
8
0
100
AcDbSpline
70
0
71
3
72
434
73
430
74
0
42
0.000000001
43
0.0000000001
44
0.0000000001
40
0
40
0
40
0
40
0
40
1.2834807918884952
40
1.2834807918884952
40
1.2834807918884952
40
2.6297436709231934
40
2.6297436709231934
40
2.6297436709231934
40
4.0462584645128015
40
4.0462584645128015
40
4.0462584645128015
40
6.1159533853446009
40
6.1159533853446009
40
6.1159533853446009
40
7.3159960929303569
40
7.3159960929303569
40
7.3159960929303569
40
8.6064288948157479
40
8.6064288948157479
40
8.6064288948157479
40
9.9690404171795954
40
9.9690404171795954
40
9.9690404171795954
40
11.381781530936303
40
11.381781530936303
40
11.381781530936303
40
12.820177639483287
40
12.820177639483287
40
12.820177639483287
40
14.258572532066703
40
14.258572532066703
40
14.258572532066703
40
15.671315431045269
40
15.671315431045269
40
15.671315431045269
40
17.033926380278661
40
17.033926380278661
40
17.033926380278661
40
18.324358328142889
40
18.324358328142889
40
18.324358328142889
40
19.524398968972196
40
19.524398968972196
40
19.524398968972196
40
23.841403270156153
40
23.841403270156153
40
23.841403270156153
40
25.635595600591891
40
25.635595600591891
40
25.635595600591891
40
27.274426095167112
40
27.274426095167112
40
27.274426095167112
40
28.768434275956224
40
28.768434275956224
40
28.768434275956224
40
30.147716062596796
40
30.147716062596796
40
30.147716062596796
40
31.462677996068077
40
31.462677996068077
40
31.462677996068077
40
32.777640306446202
40
32.777640306446202
40
32.777640306446202
40
34.156922499614389
40
34.156922499614389
40
34.156922499614389
40
35.650931702771871
40
35.650931702771871
40
35.650931702771871
40
37.289761144261611
40
37.289761144261611
40
37.289761144261611
40
39.083953694655889
40
39.083953694655889
40
39.083953694655889
40
43.74851050159279
40
43.74851050159279
40
43.74851050159279
40
44.50372998464303
40
44.50372998464303
40
44.50372998464303
40
45.345982414802158
40
45.345982414802158
40
45.345982414802158
40
46.2557373159961
40
46.2557373159961
40
46.2557373159961
40
47.211552135861822
40
47.211552135861822
40
47.211552135861822
40
48.190711989666312
40
48.190711989666312
40
48.190711989666312
40
49.169872553496717
40
49.169872553496717
40
49.169872553496717
40
50.125686280475954
40
50.125686280475954
40
50.125686280475954
40
51.035440277236695
40
51.035440277236695
40
51.035440277236695
40
51.877692024939037
40
51.877692024939037
40
51.877692024939037
40
52.632911568488019
40
52.632911568488019
40
52.632911568488019
40
61.76786499657976
40
61.76786499657976
40
61.76786499657976
40
63.519115406189265
40
63.519115406189265
40
63.519115406189265
40
65.418515917280729
40
65.418515917280729
40
65.418515917280729
40
67.435393485082287
40
67.435393485082287
40
67.435393485082287
40
69.533501522804997
40
69.533501522804997
40
69.533501522804997
40
71.673078783768105
40
71.673078783768105
40
71.673078783768105
40
73.812655531673514
40
73.812655531673514
40
73.812655531673514
40
75.91076300855552
40
75.91076300855552
40
75.91076300855552
40
77.927641155239286
40
77.927641155239286
40
77.927641155239286
40
79.827041615766035
40
79.827041615766035
40
79.827041615766035
40
81.578292149918511
40
81.578292149918511
40
81.578292149918511
40
87.759237195458894
40
87.759237195458894
40
87.759237195458894
40
90.454734380305851
40
90.454734380305851
40
90.454734380305851
40
92.796233018886781
40
92.796233018886781
40
92.796233018886781
40
94.787669694752623
40
94.787669694752623
40
94.787669694752623
40
96.479948092542017
40
96.479948092542017
40
96.479948092542017
40
97.991386477028428
40
97.991386477028428
40
97.991386477028428
40
99.502822512792065
40
99.502822512792065
40
99.502822512792065
40
101.19510060722563
40
101.19510060722563
40
101.19510060722563
40
103.18653722776375
40
103.18653722776375
40
103.18653722776375
40
105.5280346238616
40
105.5280346238616
40
105.5280346238616
40
108.22353241725236
40
108.22353241725236
40
108.22353241725236
40
114.811433633142
40
114.811433633142
40
114.811433633142
40
116.78387404061418
40
116.78387404061418
40
116.78387404061418
40
118.9545010771964
40
118.9545010771964
40
118.9545010771964
40
121.2804631699989
40
121.2804631699989
40
121.2804631699989
40
123.71306846025766
40
123.71306846025766
40
123.71306846025766
40
126.19990568647263
40
126.19990568647263
40
126.19990568647263
40
128.68674270698145
40
128.68674270698145
40
128.68674270698145
40
131.11934740716794
40
131.11934740716794
40
131.11934740716794
40
133.44530917283575
40
133.44530917283575
40
133.44530917283575
40
135.61593669327058
40
135.61593669327058
40
135.61593669327058
40
137.58837631336297
40
137.58837631336297
40
137.58837631336297
40
147.115558909051
40
147.115558909051
40
147.115558909051
40
148.16056551639073
40
148.16056551639073
40
148.16056551639073
40
149.3263764101446
40
149.3263764101446
40
149.3263764101446
40
150.58586427968703
40
150.58586427968703
40
150.58586427968703
40
151.90925817752904
40
151.90925817752904
40
151.90925817752904
40
153.26504322258992
40
153.26504322258992
40
153.26504322258992
40
154.62082811893558
40
154.62082811893558
40
154.62082811893558
40
155.94422256352829
40
155.94422256352829
40
155.94422256352829
40
157.20371105943283
40
157.20371105943283
40
157.20371105943283
40
158.36952352682459
40
158.36952352682459
40
158.36952352682459
40
159.41452728645913
40
159.41452728645913
40
159.41452728645913
40
160.96690576715051
40
160.96690576715051
40
160.96690576715051
40
162.3998034088817
40
162.3998034088817
40
162.3998034088817
40
163.70366093953797
40
163.70366093953797
40
163.70366093953797
40
164.88672431431712
40
164.88672431431712
40
164.88672431431712
40
165.97363596609307
40
165.97363596609307
40
165.97363596609307
40
167.00641269723866
40
167.00641269723866
40
167.00641269723866
40
168.0391907149635
40
168.0391907149635
40
168.0391907149635
40
169.12610500655208
40
169.12610500655208
40
169.12610500655208
40
170.30916421822459
40
170.30916421822459
40
170.30916421822459
40
171.61302200826441
40
171.61302200826441
40
171.61302200826441
40
173.04591937345899
40
173.04591937345899
40
173.04591937345899
40
176.05234713835156
40
176.05234713835156
40
176.05234713835156
40
177.09554583089454
40
177.09554583089454
40
177.09554583089454
40
178.25878599113105
40
178.25878599113105
40
178.25878599113105
40
179.51514423214147
40
179.51514423214147
40
179.51514423214147
40
180.83504304655017
40
180.83504304655017
40
180.83504304655017
40
182.18715180830438
40
182.18715180830438
40
182.18715180830438
40
183.539259356922
40
183.539259356922
40
183.539259356922
40
184.85915715494858
40
184.85915715494858
40
184.85915715494858
40
186.11551651518815
40
186.11551651518815
40
186.11551651518815
40
187.27875701388106
40
187.27875701388106
40
187.27875701388106
40
188.3219513033568
40
188.3219513033568
40
188.3219513033568
40
193.53550309648804
40
193.53550309648804
40
193.53550309648804
40
194.84284096346593
40
194.84284096346593
40
194.84284096346593
40
196.29918343073007
40
196.29918343073007
40
196.29918343073007
40
197.8711961414995
40
197.8711961414995
40
197.8711961414995
40
199.52217328082745
40
199.52217328082745
40
199.52217328082745
40
201.21318655076286
40
201.21318655076286
40
201.21318655076286
40
202.90420042027904
40
202.90420042027904
40
202.90420042027904
40
204.55517795532725
40
204.55517795532725
40
204.55517795532725
40
206.12719004159004
40
206.12719004159004
40
206.12719004159004
40
207.58353185840474
40
207.58353185840474
40
207.58353185840474
40
208.89087050947623
40
208.89087050947623
40
208.89087050947623
40
212.06221286997993
40
212.06221286997993
40
212.06221286997993
40
213.6561728474496
40
213.6561728474496
40
213.6561728474496
40
215.43180236459253
40
215.43180236459253
40
215.43180236459253
40
217.34846177946883
40
217.34846177946883
40
217.34846177946883
40
219.36139839661803
40
219.36139839661803
40
219.36139839661803
40
221.42314998065152
40
221.42314998065152
40
221.42314998065152
40
223.48490013107141
40
223.48490013107141
40
223.48490013107141
40
225.49783722024102
40
225.49783722024102
40
225.49783722024102
40
227.41449594006457
40
227.41449594006457
40
227.41449594006457
40
229.19012601196306
40
229.19012601196306
40
229.19012601196306
40
230.78408409749161
40
230.78408409749161
40
230.78408409749161
40
232.77242898882807
40
232.77242898882807
40
232.77242898882807
40
233.29610619055396
40
233.29610619055396
40
233.29610619055396
40
233.86242468113667
40
233.86242468113667
40
233.86242468113667
40
234.46263363979151
40
234.46263363979151
40
234.46263363979151
40
235.08631419412762
40
235.08631419412762
40
235.08631419412762
40
235.72198561821801
40
235.72198561821801
40
235.72198561821801
40
236.35765555982664
40
236.35765555982664
40
236.35765555982664
40
236.98133591102592
40
236.98133591102592
40
236.98133591102592
40
237.58154661062548
40
237.58154661062548
40
237.58154661062548
40
238.14786474450344
40
238.14786474450344
40
238.14786474450344
40
238.67154350840534
40
238.67154350840534
40
238.67154350840534
40
243.41767408793993
40
243.41767408793993
40
243.41767408793993
40
244.83418915883681
40
244.83418915883681
40
244.83418915883681
40
246.18045149739655
40
246.18045149739655
40
246.18045149739655
40
247.46393372374229
40
247.46393372374229
40
247.46393372374229
40
248.69980052133769
40
248.69980052133769
40
248.69980052133769
40
249.90988621220441
40
249.90988621220441
40
249.90988621220441
40
251.11997115633091
40
251.11997115633091
40
251.11997115633091
40
252.35583902441567
40
252.35583902441567
40
252.35583902441567
40
252.35583902441567
10
339.13688659667969
20
-41.033940315246582
30
0
10
339.07278697766344
20
-41.579293822269044
30
0
10
339.06075955969874
20
-41.921504834599979
30
0
10
338.987060546875
20
-42.308646202087409
30
0
10
338.90975651099603
20
-42.714724777848694
30
0
10
338.7645999249911
20
-43.170236795089743
30
0
10
338.58979797363281
20
-43.594961166381836
30
0
10
338.40587434779172
20
-44.041848891284928
30
0
10
338.18913066774462
20
-44.45465195584147
30
0
10
337.95487976074219
20
-44.861212730407722
30
0
10
337.61261160045376
20
-45.455245898248393
30
0
10
337.23296787224029
20
-46.035952619008938
30
0
10
336.88839912414551
20
-46.634981632232666
30
0
10
336.68861257142652
20
-46.982308376728184
30
0
10
336.50061776618452
20
-47.335794835219119
30
0
10
336.33460426330566
20
-47.699600696563721
30
0
10
336.15608622530874
20
-48.09080928774938
30
0
10
336.00298556859946
20
-48.493950392880777
30
0
10
335.86801338195806
20
-48.902725696563721
30
0
10
335.72549169741342
20
-49.334365327889245
30
0
10
335.60318318526123
20
-49.772287068305559
30
0
10
335.50012016296387
20
-50.214733600616469
30
0
10
335.39326551912905
20
-50.673457452995414
30
0
10
335.30709847117856
20
-51.137045149676688
30
0
10
335.23998260498047
20
-51.603317737579353
30
0
10
335.17164793288725
20
-52.078057708994123
30
0
10
335.12306265373292
20
-52.555580970832466
30
0
10
335.09400177001959
20
-53.034286975860603
30
0
10
335.06494091087313
20
-53.512992576209477
30
0
10
335.05540441415741
20
-53.992880917748437
30
0
10
335.0657787322998
20
-54.472404956817627
30
0
10
335.07596803731127
20
-54.943377277824546
30
0
10
335.10536432017193
20
-55.4139981742656
30
0
10
335.156005859375
20
-55.882263660430915
30
0
10
335.20485035603042
20
-56.333912491267917
30
0
10
335.2734590626203
20
-56.783370111868564
30
0
10
335.36245918273926
20
-57.229143619537354
30
0
10
335.44674486856172
20
-57.65130401398519
30
0
10
335.54931887371902
20
-58.070160261142476
30
0
10
335.68005752563477
20
-58.479881763458259
30
0
10
335.80163828460923
20
-58.860903370226723
30
0
10
335.94757616740901
20
-59.234025140255717
30
0
10
336.10097885131836
20
-59.603680133819587
30
0
10
336.65282686689244
20
-60.933470261649354
30
0
10
337.3012780340955
20
-62.218396296302586
30
0
10
337.86149215698242
20
-63.545395374298096
30
0
10
338.09432303056064
20
-64.096910129004712
30
0
10
338.31191253501743
20
-64.655692248440161
30
0
10
338.47627258300781
20
-65.230972766876235
30
0
10
338.6264004450922
20
-65.756438872463207
30
0
10
338.73211817019018
20
-66.295669840746754
30
0
10
338.78439712524414
20
-66.840576648712172
30
0
10
338.83205622531108
20
-67.337330420113659
30
0
10
338.835303938869
20
-67.838801214561627
30
0
10
338.77828216552734
20
-68.334572315216079
30
0
10
338.72563915163801
20
-68.792272653318804
30
0
10
338.6216275594885
20
-69.245115057801186
30
0
10
338.45807647705078
20
-69.676170825958252
30
0
10
338.3021522491905
20
-70.087125231229095
30
0
10
338.09211204838363
20
-70.478277568724906
30
0
10
337.83166122436523
20
-70.832340717315688
30
0
10
337.57121032569398
20
-71.186403967391399
30
0
10
337.26034877491293
20
-71.503378007300412
30
0
10
336.91446495056152
20
-71.774612903594971
30
0
10
336.55166261313514
20
-72.059114945723735
30
0
10
336.15032805985095
20
-72.293293854165597
30
0
10
335.72907257080084
20
-72.479782581329346
30
0
10
335.27277756413804
20
-72.68178321328692
30
0
10
334.79310979627951
20
-72.827830087274037
30
0
10
334.30466842651367
20
-72.930489063262954
30
0
10
333.76888049728132
20
-73.043099181010746
30
0
10
333.22253560760686
20
-73.10350219753937
30
0
10
332.67633056640625
20
-73.115631580352783
30
0
10
332.07834459477328
20
-73.128910844035602
30
0
10
331.48052624409684
20
-73.084329821957937
30
0
10
330.88415145874023
20
-73.030655384063735
30
0
10
329.33369130110032
20
-72.891112131260201
30
0
10
327.79298820658471
20
-72.690106448652031
30
0
10
326.25186538696289
20
-72.482918262481704
30
0
10
326.00234843876734
20
-72.449373263175232
30
0
10
325.75282048809288
20
-72.415666198592845
30
0
10
325.50432968139648
20
-72.375462055206313
30
0
10
325.2272023157638
20
-72.33062470893843
30
0
10
324.95136491304584
20
-72.277706526365449
30
0
10
324.6763916015625
20
-72.220840930938721
30
0
10
324.37938050505284
20
-72.159417832237779
30
0
10
324.08337755554317
20
-72.093389233252594
30
0
10
323.7884407043457
20
-72.022858142852797
30
0
10
323.47857151548061
20
-71.948756138700972
30
0
10
323.16987910848252
20
-71.869684189289345
30
0
10
322.86233711242676
20
-71.786396503448501
30
0
10
322.54728364219596
20
-71.701074580627619
30
0
10
322.23343746496244
20
-71.611328474340908
30
0
10
321.92088890075684
20
-71.517269611358643
30
0
10
321.60834010991044
20
-71.42321068017074
30
0
10
321.2970889339739
20
-71.324838986032603
30
0
10
320.98727512359619
20
-71.222107410430908
30
0
10
320.68484842903206
20
-71.12182533843837
30
0
10
320.38379137289945
20
-71.017388817931959
30
0
10
320.08448505401611
20
-70.908180713653593
30
0
10
319.79960201438831
20
-70.804235241286349
30
0
10
319.51630504490322
20
-70.695966980586974
30
0
10
319.23474884033203
20
-70.583218097686782
30
0
10
318.97408364268426
20
-70.47883499630737
30
0
10
318.71491046976769
20
-70.370611514712778
30
0
10
318.45898818969727
20
-70.255218982696533
30
0
10
318.2295110671314
20
-70.151750280380384
30
0
10
318.00264770183281
20
-70.04251757459653
30
0
10
317.77630710601807
20
-69.932259082794189
30
0
10
315.03854585590835
20
-68.598598962012957
30
0
10
312.37726963963541
20
-67.114858775844723
30
0
10
309.61927604675293
20
-65.820055484771729
30
0
10
309.09054457075189
20
-65.571830377582657
30
0
10
308.55825851442586
20
-65.330549124678228
30
0
10
308.01340007781982
20
-65.121456623077393
30
0
10
307.42244838565563
20
-64.894675574389694
30
0
10
306.81670717243401
20
-64.705759767176943
30
0
10
306.20516681671143
20
-64.540066242218032
30
0
10
305.55580296845517
20
-64.36412464818973
30
0
10
304.89990044520829
20
-64.214366745314322
30
0
10
304.23910236358643
20
-64.090193271636963
30
0
10
303.55169040140476
20
-63.961018666617008
30
0
10
302.85898059898932
20
-63.859530835603458
30
0
10
302.16361713409424
20
-63.782917499542236
30
0
10
301.45450977124892
20
-63.704789896589517
30
0
10
300.74264280967509
20
-63.652529797576221
30
0
10
300.02981615066528
20
-63.625805377960212
30
0
10
299.31698966258699
20
-63.599080964752552
30
0
10
298.6032034775331
20
-63.597892218695563
30
0
10
297.8902416229248
20
-63.622723102569587
30
0
10
297.19109839314831
20
-63.647072714316252
30
0
10
296.49274784914564
20
-63.696443105774783
30
0
10
295.79757690429688
20
-63.773750782012939
30
0
10
295.12931986678859
20
-63.848065451062865
30
0
10
294.46400099461505
20
-63.948196066625229
30
0
10
293.80334854125977
20
-64.075165271759033
30
0
10
293.18117730289595
20
-64.194738864789642
30
0
10
292.56314470282814
20
-64.338115553714147
30
0
10
291.95666313171387
20
-64.519546985626221
30
0
10
291.39748606640296
20
-64.686827081978294
30
0
10
290.84812838310268
20
-64.886457028738803
30
0
10
290.30299091339111
20
-65.095955371856689
30
0
10
288.37895738601077
20
-65.835368562996749
30
0
10
286.50749502767178
20
-66.697712293589646
30
0
10
284.59090995788574
20
-67.457355976104736
30
0
10
283.75509122433215
20
-67.788634994542804
30
0
10
282.91069099112514
20
-68.100382375835693
30
0
10
282.04529571533203
20
-68.343670368194594
30
0
10
281.2935524482661
20
-68.555007447711432
30
0
10
280.52596656818429
20
-68.714685874870582
30
0
10
279.74851417541504
20
-68.799093723297133
30
0
10
279.08729354381194
20
-68.870882313013936
30
0
10
278.41893602453018
20
-68.888224343653533
30
0
10
277.75712203979492
20
-68.812412738800063
30
0
10
277.19472730071266
20
-68.747989730652179
30
0
10
276.63705779234789
20
-68.616298426333273
30
0
10
276.12015342712402
20
-68.383297443389907
30
0
10
275.65848642261193
20
-68.175195378325583
30
0
10
275.22933759917532
20
-67.886279014073793
30
0
10
274.87791442871094
20
-67.522316455841064
30
0
10
274.52649180434594
20
-67.158354463193533
30
0
10
274.2527945913875
20
-66.719346509803245
30
0
10
274.06099700927734
20
-66.25066995620729
30
0
10
273.84625100674054
20
-65.725916644616206
30
0
10
273.73417554860839
20
-65.163970352992294
30
0
10
273.68951225280762
20
-64.59966897964479
30
0
10
273.63695344279637
20
-63.935611208288741
30
0
10
273.67774752348572
20
-63.268292101305235
30
0
10
273.77260780334473
20
-62.609966754913337
30
0
10
273.88414291121217
20
-61.835918980324692
30
0
10
274.07042268756794
20
-61.07430477170162
30
0
10
274.30824089050293
20
-60.330557346344008
30
0
10
274.58201375153948
20
-59.474366112805797
30
0
10
274.92408677850744
20
-58.64185244070454
30
0
10
275.2832202911377
20
-57.817566394805908
30
0
10
276.16095653352102
20
-55.802979309136127
30
0
10
277.14060061334084
20
-53.837538514500842
30
0
10
278.01190567016602
20
-51.821341037750258
30
0
10
278.27277741747935
20
-51.217684540443578
30
0
10
278.52393739141155
20
-50.609478090768327
30
0
10
278.74799728393555
20
-49.991398334503181
30
0
10
278.99457023928767
20
-49.311215235114815
30
0
10
279.20832359870002
20
-48.61907505235132
30
0
10
279.40225219726562
20
-47.921719074249282
30
0
10
279.61005877175853
20
-47.174458700671437
30
0
10
279.79510164874728
20
-46.421209312232399
30
0
10
279.95856094360352
20
-45.663263797760017
30
0
10
280.12951469501667
20
-44.870567186779617
30
0
10
280.27686031833616
20
-44.072733951847795
30
0
10
280.40322494506836
20
-43.271644592285163
30
0
10
280.53240671536736
20
-42.452695933058507
30
0
10
280.63966157036509
20
-41.630344348299076
30
0
10
280.72529602050781
20
-40.805751323699951
30
0
10
280.81093046356705
20
-39.981158367309504
30
0
10
280.87494450534808
20
-39.154323971450189
30
0
10
280.91684150695801
20
-38.326302051544189
30
0
10
280.95782482922618
20
-37.516337426758028
30
0
10
280.977645238717
20
-36.705236507620242
30
0
10
280.97314834594727
20
-35.894349098205566
30
0
10
280.96884859241726
20
-35.119010174287773
30
0
10
280.94231689421594
20
-34.343866450326786
30
0
10
280.89282608032227
20
-33.569774627685547
30
0
10
280.84664040167871
20
-32.847378826357229
30
0
10
280.78045975918008
20
-32.125899119932086
30
0
10
280.6778564453125
20
-31.409818172454838
30
0
10
280.58462126814834
20
-30.759118585031153
30
0
10
280.46131088430218
20
-30.112876902123556
30
0
10
280.33352851867676
20
-29.467665672302246
30
0
10
279.71632030737294
20
-26.35119754994313
30
0
10
278.99477912664332
20
-23.258770274719343
30
0
10
278.25362777709961
20
-20.170288562774662
30
0
10
278.17233322338103
20
-19.831522745785822
30
0
10
278.09080273571857
20
-19.492804398674156
30
0
10
278.00074195861816
20
-19.156342029571533
30
0
10
277.90027002446368
20
-18.780984120364973
30
0
10
277.7891815768931
20
-18.408433926063449
30
0
10
277.67293930053711
20
-18.0375657081604
30
0
10
277.54735655141138
20
-17.636896934047602
30
0
10
277.41575844058298
20
-17.238191301675329
30
0
10
277.27828788757324
20
-16.841505527496338
30
0
10
277.13384212085685
20
-16.424692038772601
30
0
10
276.98291286142882
20
-16.010108582371107
30
0
10
276.82650566101074
20
-15.597614765167233
30
0
10
276.66627026653561
20
-15.175024824668766
30
0
10
276.50028549525894
20
-14.754628066453265
30
0
10
276.3287181854248
20
-14.336519718170164
30
0
10
276.15715089440977
20
-13.918411415749112
30
0
10
275.98000106606202
20
-13.502591522758443
30
0
10
275.79718208312988
20
-13.089273929595944
30
0
10
275.61873074691084
20
-12.685830722551819
30
0
10
275.43487789887212
20
-12.28477168088849
30
0
10
275.2449836730957
20
-11.886589527130123
30
0
10
275.06425932913208
20
-11.507635358188066
30
0
10
274.8780629889759
20
-11.131286939183479
30
0
10
274.68572235107422
20
-10.758078098297123
30
0
10
274.50768728812523
20
-10.412627130653572
30
0
10
274.32438791786689
20
-10.069866088648464
30
0
10
274.1331672668457
20
-9.7315297126769984
30
0
10
273.96176208391432
20
-9.428253847303619
30
0
10
273.78399226277315
20
-9.1285331391511839
30
0
10
273.60092735290527
20
-8.8322224617004341
30
0
10
273.32897998044024
20
-8.3920457493845966
30
0
10
273.04534749909106
20
-7.9593942329821621
30
0
10
272.77799987792969
20
-7.5159134864807076
30
0
10
272.53122901589484
20
-7.1065658153302369
30
0
10
272.29833271140279
20
-6.687991735452834
30
0
10
272.10465240478516
20
-6.2510819435119602
30
0
10
271.92841404764886
20
-5.8535182195942381
30
0
10
271.78464650735111
20
-5.4407725398347839
30
0
10
271.68267822265625
20
-5.017395496368402
30
0
10
271.59015665478921
20
-4.6332416589508618
30
0
10
271.53204822583598
20
-4.240335067666936
30
0
10
271.52246475219727
20
-3.8452305793762243
30
0
10
271.51366016118004
20
-3.4822376229994534
30
0
10
271.5458134637787
20
-3.1173895133062235
30
0
10
271.62796401977539
20
-2.7634510993957528
30
0
10
271.70602297014682
20
-2.4271410068983101
30
0
10
271.82922285519197
20
-2.1006809327752363
30
0
10
271.99657440185547
20
-1.7986950874328489
30
0
10
272.16392615699675
20
-1.4967088658922956
30
0
10
272.37542968376005
20
-1.2191969341098918
30
0
10
272.61921691894531
20
-0.97471284866332386
30
0
10
272.87578302074274
20
-0.71741336902951591
30
0
10
273.16810603765839
20
-0.49669499967383679
30
0
10
273.48056602478027
20
-0.31179475784300692
30
0
10
273.820665210985
20
-0.11053883910932427
30
0
10
274.18462143352104
20
0.048281978368676093
30
0
10
274.55940628051758
20
0.17372846603393555
30
0
10
274.9724592685032
20
0.31198391306625606
30
0
10
275.39866513418525
20
0.40970157251256634
30
0
10
275.82917785644531
20
0.46991300582886364
30
0
10
276.30229735622629
20
0.53608341552582317
30
0
10
276.78061837424605
20
0.55695644516066345
30
0
10
277.25861358642578
20
0.56945371627808328
30
0
10
278.26151729208487
20
0.59567481472200257
30
0
10
279.26298672995949
20
0.58502401237587431
30
0
10
280.26504135131836
20
0.56945371627808328
30
0
10
280.61274372523371
20
0.56405098792339459
30
0
10
280.96051655621955
20
0.55805594429138683
30
0
10
281.30790328979492
20
0.54294919967651012
30
0
10
281.69526401265324
20
0.52610411335493268
30
0
10
282.08214466879633
20
0.49792969862448633
30
0
10
282.46846771240234
20
0.46409559249877663
30
0
10
282.88571615010068
20
0.42755304564447982
30
0
10
283.30231412758121
20
0.38440841606650622
30
0
10
283.71815872192383
20
0.33483457565307351
30
0
10
284.15503474114718
20
0.28275352818468491
30
0
10
284.59107924517997
20
0.22357650762675707
30
0
10
285.02620506286621
20
0.15834760665894176
30
0
10
285.47194940639952
20
0.091526902256915399
30
0
10
285.91672967844568
20
0.018355341147056059
30
0
10
286.36039924621582
20
-0.061024188995348894
30
0
10
286.80406841591753
20
-0.14040364791700011
30
0
10
287.24662688333621
20
-0.22599106473138342
30
0
10
287.68788719177246
20
-0.3178715705871582
30
0
10
288.11863584786641
20
-0.4075633095946074
30
0
10
288.54814745748394
20
-0.5032518823720622
30
0
10
288.97598075866699
20
-0.60587358474730291
30
0
10
289.38321863221086
20
-0.70355519050163906
30
0
10
289.78893589195326
20
-0.80751848580568275
30
0
10
290.19296646118164
20
-0.91793870925902077
30
0
10
290.56705108673555
20
-1.0201748049658788
30
0
10
290.93968978427932
20
-1.1279461504372268
30
0
10
291.30887508392334
20
-1.2463841438293466
30
0
10
291.63996052737184
20
-1.3525993577102691
30
0
10
291.96826857361123
20
-1.4673932291993896
30
0
10
292.29622840881348
20
-1.5831151008605815
30
0
10
293.93526689296112
20
-2.1614560461575039
30
0
10
295.5656081759472
20
-2.7629754760953995
30
0
10
297.18635368347168
20
-3.3908200263976918
30
0
10
297.59276797813976
20
-3.548256834883472
30
0
10
297.9985788963325
20
-3.707348950791034
30
0
10
298.3996753692627
20
-3.8776288032531614
30
0
10
298.84648704798229
20
-4.067316401787533
30
0
10
299.28744837541905
20
-4.2708873281069248
30
0
10
299.72493934631348
20
-4.4814572334289426
30
0
10
300.19717811058223
20
-4.7087516886222902
30
0
10
300.66537335876524
20
-4.9442010650280288
30
0
10
301.12951278686523
20
-5.1874299049377415
30
0
10
301.61696659687851
20
-5.4428764745266367
30
0
10
302.09994689398934
20
-5.7069036837020759
30
0
10
302.57880926132202
20
-5.9781670570373491
30
0
10
303.06928402220325
20
-6.2560085564926959
30
0
10
303.55543871244424
20
-6.5414414288026324
30
0
10
304.03714370727539
20
-6.8341965675353933
30
0
10
304.51884887290419
20
-7.1269518100700324
30
0
10
304.9961043399677
20
-7.4270293242200047
30
0
10
305.46860647201538
20
-7.7344422340393049
30
0
10
305.92992167429475
20
-8.0345768557858896
30
0
10
306.38670595637859
20
-8.341703640354897
30
0
10
306.83795046806335
20
-8.6567349433898855
30
0
10
307.26761217524552
20
-8.9566984531342229
30
0
10
307.69225136792812
20
-9.2638284257006163
30
0
10
308.11145687103271
20
-9.5783658027648819
30
0
10
308.49981680117889
20
-9.8697591954574939
30
0
10
308.88351325579697
20
-10.167510008666586
30
0
10
309.25776958465576
20
-10.4766411781311
30
0
10
309.59373450612964
20
-10.754144111457444
30
0
10
309.92209218367049
20
-11.040817806730043
30
0
10
310.24866104125977
20
-11.329441547393797
30
0
10
311.04085184113052
20
-12.029585075058788
30
0
10
311.82251631817667
20
-12.74120365771315
30
0
10
312.59462928771973
20
-13.463415622711178
30
0
10
312.98270380999912
20
-13.826409218670253
30
0
10
313.36836542580204
20
-14.192078920035476
30
0
10
313.74383544921875
20
-14.567966938018797
30
0
10
314.16209918595291
20
-14.986696309712976
30
0
10
314.56771579415266
20
-15.418105973041506
30
0
10
314.96613216400146
20
-15.855930805206295
30
0
10
315.39619287145149
20
-16.328530003706629
30
0
10
315.81786415662305
20
-16.808603893700745
30
0
10
316.23142242431641
20
-17.295591831207272
30
0
10
316.66575445738579
20
-17.807042036657631
30
0
10
317.0911379394405
20
-18.326118345102188
30
0
10
317.50854873657227
20
-18.851503849029537
30
0
10
317.93608200555218
20
-19.389630278705475
30
0
10
318.35525121577956
20
-19.934375618097381
30
0
10
318.76606750488281
20
-20.485353946685791
30
0
10
319.17688350833004
20
-21.036331892158199
30
0
10
319.57934660226931
20
-21.593542818159044
30
0
10
319.9730110168457
20
-22.156910419464108
30
0
10
320.35735521132807
20
-22.706939985011871
30
0
10
320.73331242159276
20
-23.262838151571195
30
0
10
321.09966278076172
20
-23.825014591217041
30
0
10
321.44849067716723
20
-24.360302246715033
30
0
10
321.78860873243298
20
-24.901281961002198
30
0
10
322.11827850341797
20
-25.448591709136963
30
0
10
322.42369101796874
20
-25.95563014919933
30
0
10
322.72013625965462
20
-26.468101360732177
30
0
10
323.00378036499023
20
-26.98766565322876
30
0
10
323.25840367998558
20
-27.454071194610123
30
0
10
323.50271132750129
20
-27.926192624224065
30
0
10
323.73435974121094
20
-28.404336452484131
30
0
10
324.02332401459267
20
-29.000785535353014
30
0
10
324.2925896108224
20
-29.60660590312175
30
0
10
324.59681510925293
20
-30.195896148681641
30
0
10
324.67694002038172
20
-30.351099538266503
30
0
10
324.75948994471702
20
-30.505156306661469
30
0
10
324.85114669799805
20
-30.653666019439697
30
0
10
324.95026675516073
20
-30.814268383071838
30
0
10
325.06003709974237
20
-30.968383555937717
30
0
10
325.17563819885254
20
-31.117801666259766
30
0
10
325.29815726978188
20
-31.276161475963828
30
0
10
325.42722584184116
20
-31.429245224690099
30
0
10
325.56229400634766
20
-31.576874732971195
30
0
10
325.70264410692153
20
-31.730277397548996
30
0
10
325.84947221146587
20
-31.877790896892328
30
0
10
326.0015983581543
20
-32.019581317901611
30
0
10
326.1566492790696
20
-32.164097798684452
30
0
10
326.31720392059106
20
-32.302669022087144
30
0
10
326.48273086547852
20
-32.435020446777344
30
0
10
326.64825742433214
20
-32.567371562804034
30
0
10
326.81875626335955
20
-32.693502909129222
30
0
10
326.99384307861328
20
-32.812963008880615
30
0
10
327.16562752094751
20
-32.930169930413996
30
0
10
327.34182850087257
20
-33.040954889448678
30
0
10
327.52235412597656
20
-33.144102334976196
30
0
10
327.69608640971921
20
-33.243368249515477
30
0
10
327.87382398214163
20
-33.335560648164837
30
0
10
328.05524826049805
20
-33.420284748077393
30
0
10
328.22642791262268
20
-33.500224666157798
30
0
10
328.40088966595039
20
-33.57351590850773
30
0
10
328.57940292358398
20
-33.63470983505249
30
0
10
328.74447551530466
20
-33.691296332807426
30
0
10
328.91301248520097
20
-33.737538604395056
30
0
10
329.08191299438477
20
-33.782097339630127
30
0
10
330.61266796631367
20
-34.185935704792875
30
0
10
332.17328369374684
20
-34.451490068418799
30
0
10
333.70646667480469
20
-34.849457979202271
30
0
10
334.16405560176679
20
-34.968234218901394
30
0
10
334.61920091631953
20
-35.098805390925627
30
0
10
335.05828857421875
20
-35.272651195526123
30
0
10
335.47559947284674
20
-35.437875035539406
30
0
10
335.87840599172512
20
-35.642187499625074
30
0
10
336.2594108581543
20
-35.880703449249268
30
0
10
336.62264836410452
20
-36.108096709295552
30
0
10
336.96607015554463
20
-36.366577819506595
30
0
10
337.28026199340826
20
-36.658642768859863
30
0
10
337.5827977453809
20
-36.939872509512199
30
0
10
337.8582320966608
20
-37.252240482355475
30
0
10
338.09569931030273
20
-37.587313175201416
30
0
10
338.32821278006924
20
-37.915396000795539
30
0
10
338.52432663584329
20
-38.265246151906418
30
0
10
338.68564987182617
20
-38.643847942352295
30
0
10
338.8469730082569
20
-39.022449499164161
30
0
10
338.97350556783488
20
-39.429802659825924
30
0
10
339.03558349609375
20
-39.802231311798096
30
0
10
339.09898410050982
20
-40.182595191508028
30
0
10
339.09515418102922
20
-40.526530455182353
30
0
10
339.13688659667969
20
-41.033940315246582
30
0
0
ENDSEC
0
SECTION
2
OBJECTS
0
DICTIONARY
5
C
100
AcDbDictionary
3
ACAD_GROUP
350
D
3
ACAD_MLINESTYLE
350
17
0
DICTIONARY
5
D
100
AcDbDictionary
0
DICTIONARY
5
1A
330
C
100
AcDbDictionary
0
DICTIONARY
5
17
100
AcDbDictionary
0
ENDSEC
0
EOF
