0
SECTION
2
HEADER
9
$INSUNITS
70
4
9
$ACADVER
1
AC1014
9
$HANDSEED
5
FFFF
0
ENDSEC
0
SECTION
2
TABLES
0
TABLE
2
VPORT
5
8
100
AcDbSymbolTable
0
ENDTAB
0
TABLE
2
LTYPE
5
5
100
AcDbSymbolTable
0
LTYPE
5
14
100
AcDbSymbolTableRecord
100
AcDbLinetypeTableRecord
2
BYBLOCK
70
0
0
LTYPE
5
15
100
AcDbSymbolTableRecord
100
AcDbLinetypeTableRecord
2
BYLAYER
70
0
0
LTYPE
5
16
100
AcDbSymbolTableRecord
100
AcDbLinetypeTableRecord
2
DASHED
70
0
3
Dashed __ __ __ __ __ __ __ __ __ __ __ __ __ _
72
65
73
2
40
0.75
49
0.5
74
0
49
-0.25
74
0
0
ENDTAB
0
TABLE
2
LAYER
5
2
100
AcDbSymbolTable
70
3
0
LAYER
5
50
100
AcDbSymbolTableRecord
100
AcDbLayerTableRecord
2
1
70
0
62
7
6
DASHED
0
LAYER
5
51
100
AcDbSymbolTableRecord
100
AcDbLayerTableRecord
2
0
70
0
62
7
6
CONTINUOUS
0
ENDTAB
0
TABLE
2
STYLE
5
3
100
AcDbSymbolTable
70
1
0
STYLE
5
11
100
AcDbSymbolTableRecord
100
AcDbTextStyleTableRecord
2
STANDARD
70
0
0
ENDTAB
0
TABLE
2
VIEW
5
6
100
AcDbSymbolTable
70
0
0
ENDTAB
0
TABLE
2
UCS
5
7
100
AcDbSymbolTable
70
0
0
ENDTAB
0
TABLE
2
APPID
5
9
100
AcDbSymbolTable
70
2
0
APPID
5
12
100
AcDbSymbolTableRecord
100
AcDbRegAppTableRecord
2
ACAD
70
0
0
ENDTAB
0
TABLE
2
DIMSTYLE
5
A
100
AcDbSymbolTable
70
1
0
ENDTAB
0
TABLE
2
BLOCK_RECORD
5
1
100
AcDbSymbolTable
70
1
0
BLOCK_RECORD
5
1F
100
AcDbSymbolTableRecord
100
AcDbBlockTableRecord
2
*MODEL_SPACE
0
BLOCK_RECORD
5
1B
100
AcDbSymbolTableRecord
100
AcDbBlockTableRecord
2
*PAPER_SPACE
0
ENDTAB
0
ENDSEC
0
SECTION
2
BLOCKS
0
BLOCK
5
20
100
AcDbEntity
100
AcDbBlockBegin
2
*MODEL_SPACE
0
ENDBLK
5
21
100
AcDbEntity
100
AcDbBlockEnd
0
BLOCK
5
1C
100
AcDbEntity
100
AcDbBlockBegin
2
*PAPER_SPACE
0
ENDBLK
5
1D
100
AcDbEntity
100
AcDbBlockEnd
0
ENDSEC
0
SECTION
2
ENTITIES
0
SPLINE
5
100
100
AcDbEntity
8
0
100
AcDbSpline
70
0
71
3
72
398
73
394
74
0
42
0.000000001
43
0.0000000001
44
0.0000000001
40
0
40
0
40
0
40
0
40
0.82900458737303917
40
0.82900458737303917
40
0.82900458737303917
40
1.6725700200582474
40
1.6725700200582474
40
1.6725700200582474
40
2.5161351000916592
40
2.5161351000916592
40
2.5161351000916592
40
3.3451408552288631
40
3.3451408552288631
40
3.3451408552288631
40
4.145719585407635
40
4.145719585407635
40
4.145719585407635
40
4.9054348462227644
40
4.9054348462227644
40
4.9054348462227644
40
5.6141065510482466
40
5.6141065510482466
40
5.6141065510482466
40
6.7764638173483087
40
6.7764638173483087
40
6.7764638173483087
40
7.5806618938131134
40
7.5806618938131134
40
7.5806618938131134
40
8.4620821761580647
40
8.4620821761580647
40
8.4620821761580647
40
9.4042170036588519
40
9.4042170036588519
40
9.4042170036588519
40
10.388122342215278
40
10.388122342215278
40
10.388122342215278
40
11.393287490617718
40
11.393287490617718
40
11.393287490617718
40
12.39845468498341
40
12.39845468498341
40
12.39845468498341
40
13.382357238552329
40
13.382357238552329
40
13.382357238552329
40
14.324495385154492
40
14.324495385154492
40
14.324495385154492
40
15.205912692468885
40
15.205912692468885
40
15.205912692468885
40
16.010112112273706
40
16.010112112273706
40
16.010112112273706
40
21.418155208549788
40
21.418155208549788
40
21.418155208549788
40
23.286273673816385
40
23.286273673816385
40
23.286273673816385
40
25.375291929930189
40
25.375291929930189
40
25.375291929930189
40
27.635285812832645
40
27.635285812832645
40
27.635285812832645
40
30.011799339204053
40
30.011799339204053
40
30.011799339204053
40
32.447334519675103
40
32.447334519675103
40
32.447334519675103
40
34.882870699012315
40
34.882870699012315
40
34.882870699012315
40
37.259384076754849
40
37.259384076754849
40
37.259384076754849
40
39.519376768166609
40
39.519376768166609
40
39.519376768166609
40
41.608394726701079
40
41.608394726701079
40
41.608394726701079
40
43.476510121365202
40
43.476510121365202
40
43.476510121365202
40
46.482124741523293
40
46.482124741523293
40
46.482124741523293
40
46.656986924041462
40
46.656986924041462
40
46.656986924041462
40
46.851721366613859
40
46.851721366613859
40
46.851721366613859
40
47.061885914479049
40
47.061885914479049
40
47.061885914479049
40
47.282585291495216
40
47.282585291495216
40
47.282585291495216
40
47.508625873034561
40
47.508625873034561
40
47.508625873034561
40
47.734666679021231
40
47.734666679021231
40
47.734666679021231
40
47.955365814199261
40
47.955365814199261
40
47.955365814199261
40
48.165530437239561
40
48.165530437239561
40
48.165530437239561
40
48.360264928565314
40
48.360264928565314
40
48.360264928565314
40
48.535128429416361
40
48.535128429416361
40
48.535128429416361
40
50.482901885989847
40
50.482901885989847
40
50.482901885989847
40
51.141758744231559
40
51.141758744231559
40
51.141758744231559
40
51.875486293522265
40
51.875486293522265
40
51.875486293522265
40
52.667351928789813
40
52.667351928789813
40
52.667351928789813
40
53.498910284850666
40
53.498910284850666
40
53.498910284850666
40
54.350595958370036
40
54.350595958370036
40
54.350595958370036
40
55.202280880955996
40
55.202280880955996
40
55.202280880955996
40
56.033838946109931
40
56.033838946109931
40
56.033838946109931
40
56.825705117239252
40
56.825705117239252
40
56.825705117239252
40
57.559432910538547
40
57.559432910538547
40
57.559432910538547
40
58.218290036620225
40
58.218290036620225
40
58.218290036620225
40
60.117517814200639
40
60.117517814200639
40
60.117517814200639
40
60.986577485133921
40
60.986577485133921
40
60.986577485133921
40
61.9544008757603
40
61.9544008757603
40
61.9544008757603
40
62.998908730504496
40
62.998908730504496
40
62.998908730504496
40
64.095774867384577
40
64.095774867384577
40
64.095774867384577
40
65.219187286254069
40
65.219187286254069
40
65.219187286254069
40
66.342600503423142
40
66.342600503423142
40
66.342600503423142
40
67.439467178466288
40
67.439467178466288
40
67.439467178466288
40
68.483974925508647
40
68.483974925508647
40
68.483974925508647
40
69.451797561950869
40
69.451797561950869
40
69.451797561950869
40
70.320862661346808
40
70.320862661346808
40
70.320862661346808
40
77.47065674013318
40
77.47065674013318
40
77.47065674013318
40
79.184389332014121
40
79.184389332014121
40
79.184389332014121
40
81.053417842270235
40
81.053417842270235
40
81.053417842270235
40
83.045041850948209
40
83.045041850948209
40
83.045041850948209
40
85.121200827145685
40
85.121200827145685
40
85.121200827145685
40
87.240447951162182
40
87.240447951162182
40
87.240447951162182
40
89.359695865806771
40
89.359695865806771
40
89.359695865806771
40
91.435852894484455
40
91.435852894484455
40
91.435852894484455
40
93.427476655689546
40
93.427476655689546
40
93.427476655689546
40
95.296506669648252
40
95.296506669648252
40
95.296506669648252
40
97.010242040933832
40
97.010242040933832
40
97.010242040933832
40
106.00151210624145
40
106.00151210624145
40
106.00151210624145
40
108.35183259720128
40
108.35183259720128
40
108.35183259720128
40
110.91513586588776
40
110.91513586588776
40
110.91513586588776
40
113.64657258104636
40
113.64657258104636
40
113.64657258104636
40
116.4939421959641
40
116.4939421959641
40
116.4939421959641
40
119.40040978020282
40
119.40040978020282
40
119.40040978020282
40
122.3068791008327
40
122.3068791008327
40
122.3068791008327
40
125.15424934660159
40
125.15424934660159
40
125.15424934660159
40
127.88568583091914
40
127.88568583091914
40
127.88568583091914
40
130.44898751824763
40
130.44898751824763
40
130.44898751824763
40
132.79931345156021
40
132.79931345156021
40
132.79931345156021
40
138.66280459558223
40
138.66280459558223
40
138.66280459558223
40
140.29598893883485
40
140.29598893883485
40
140.29598893883485
40
142.07716551774112
40
142.07716551774112
40
142.07716551774112
40
143.9751744411314
40
143.9751744411314
40
143.9751744411314
40
145.95374308167118
40
145.95374308167118
40
145.95374308167118
40
147.97337860575445
40
147.97337860575445
40
147.97337860575445
40
149.99301126237376
40
149.99301126237376
40
149.99301126237376
40
151.97158136935485
40
151.97158136935485
40
151.97158136935485
40
153.86958882424838
40
153.86958882424838
40
153.86958882424838
40
155.65076610837374
40
155.65076610837374
40
155.65076610837374
40
157.28394613107875
40
157.28394613107875
40
157.28394613107875
40
158.71017901175173
40
158.71017901175173
40
158.71017901175173
40
160.42780609077914
40
160.42780609077914
40
160.42780609077914
40
162.40019024686151
40
162.40019024686151
40
162.40019024686151
40
164.58246235007277
40
164.58246235007277
40
164.58246235007277
40
166.92359606837263
40
166.92359606837263
40
166.92359606837263
40
169.36813257197019
40
169.36813257197019
40
169.36813257197019
40
171.85779347342569
40
171.85779347342569
40
171.85779347342569
40
174.3330870522513
40
174.3330870522513
40
174.3330870522513
40
176.73490688062805
40
176.73490688062805
40
176.73490688062805
40
179.00613797593917
40
179.00613797593917
40
179.00613797593917
40
191.24317967227617
40
191.24317967227617
40
191.24317967227617
40
191.72492209482908
40
191.72492209482908
40
191.72492209482908
40
192.23575306505123
40
192.23575306505123
40
192.23575306505123
40
192.77008296157499
40
192.77008296157499
40
192.77008296157499
40
193.32085569692225
40
193.32085569692225
40
193.32085569692225
40
193.88008173704605
40
193.88008173704605
40
193.88008173704605
40
194.4393091190008
40
194.4393091190008
40
194.4393091190008
40
194.99008232477871
40
194.99008232477871
40
194.99008232477871
40
195.52441138982542
40
195.52441138982542
40
195.52441138982542
40
196.03524255000076
40
196.03524255000076
40
196.03524255000076
40
196.51698372132819
40
196.51698372132819
40
196.51698372132819
40
197.87160244672893
40
197.87160244672893
40
197.87160244672893
40
200.80386724494596
40
200.80386724494596
40
200.80386724494596
40
204.08531755136789
40
204.08531755136789
40
204.08531755136789
40
207.63687811973062
40
207.63687811973062
40
207.63687811973062
40
211.37245512735549
40
211.37245512735549
40
211.37245512735549
40
215.20123223185328
40
215.20123223185328
40
215.20123223185328
40
219.03001094919131
40
219.03001094919131
40
219.03001094919131
40
222.76558857285687
40
222.76558857285687
40
222.76558857285687
40
226.31714887771494
40
226.31714887771494
40
226.31714887771494
40
229.59859880322603
40
229.59859880322603
40
229.59859880322603
40
232.5308642913858
40
232.5308642913858
40
232.5308642913858
40
237.32384446926335
40
237.32384446926335
40
237.32384446926335
40
238.03251893120603
40
238.03251893120603
40
238.03251893120603
40
238.79223397803977
40
238.79223397803977
40
238.79223397803977
40
239.59281408067974
40
239.59281408067974
40
239.59281408067974
40
239.59281408067974
10
365.31501770019531
20
-188.84415054321292
30
0
10
365.29542135203138
20
-189.07239371142987
30
0
10
365.27754023673305
20
-189.3830508262597
30
0
10
365.24410247802734
20
-189.67011642456058
30
0
10
365.21007741010817
20
-189.96222411531178
30
0
10
365.1599444179077
20
-190.22990427680867
30
0
10
365.09921646118164
20
-190.50114631652832
30
0
10
365.03848852984288
20
-190.77238824285553
30
0
10
364.96716564283707
20
-191.04719204442733
30
0
10
364.88392639160156
20
-191.31677627563477
30
0
10
364.80212378980957
20
-191.58170767743766
30
0
10
364.70881260981395
20
-191.84159812609659
30
0
10
364.60353851318359
20
-192.09692573547363
30
0
10
364.50187431835894
20
-192.34349803250296
30
0
10
364.38905356931537
20
-192.58581504920269
30
0
10
364.26494979858398
20
-192.82238006591797
30
0
10
364.14718058364588
20
-193.04687023359136
30
0
10
364.01925077633223
20
-193.26618060734049
30
0
10
363.87650680541987
20
-193.47528076171875
30
0
10
363.74335348017087
20
-193.67033194803236
30
0
10
363.59730977784892
20
-193.8564988273238
30
0
10
363.4477653503418
20
-194.03954696655276
30
0
10
363.20248385996479
20
-194.33978095821163
30
0
10
362.94778462077784
20
-194.63162482812197
30
0
10
362.68747711181641
20
-194.91877174377441
30
0
10
362.50737861364763
20
-195.11743957502182
30
0
10
362.32459553958233
20
-195.31385906039887
30
0
10
362.1325569152832
20
-195.5008354187012
30
0
10
361.92207800044292
20
-195.70576596920827
30
0
10
361.70048068643212
20
-195.89935279043061
30
0
10
361.47321701049805
20
-196.0857906341553
30
0
10
361.23029881538491
20
-196.28507080645844
30
0
10
360.98090674470404
20
-196.47618319996747
30
0
10
360.72569847106934
20
-196.65923118591309
30
0
10
360.45917527763311
20
-196.8503947915105
30
0
10
360.18630871382038
20
-197.03276304996359
30
0
10
359.90840148925781
20
-197.20704078674316
30
0
10
359.62448936308783
20
-197.38508424304797
30
0
10
359.33531638982203
20
-197.55468376718537
30
0
10
359.04145431518555
20
-197.71572494506839
30
0
10
358.74759164240754
20
-197.87676645074265
30
0
10
358.44903984917011
20
-198.02924957532227
30
0
10
358.14620208740234
20
-198.17276382446292
30
0
10
357.8497709575459
20
-198.31324198271807
30
0
10
357.54923328311565
20
-198.4451267305206
30
0
10
357.24469184875488
20
-198.5669002532959
30
0
10
356.95307749986284
20
-198.68350476929865
30
0
10
356.65779207788842
20
-198.79083823841771
30
0
10
356.35911750793457
20
-198.88843154907227
30
0
10
356.07969252534417
20
-198.97973496715306
30
0
10
355.79730117833805
20
-199.06251327519215
30
0
10
355.51128959655762
20
-199.12943840026855
30
0
10
355.25033448912268
20
-199.19050044920976
30
0
10
354.98636567418953
20
-199.23836532743053
30
0
10
354.72208023071289
20
-199.28398704528809
30
0
10
352.94482569304205
20
-199.59078186535862
30
0
10
351.15325248009805
20
-199.79613578417005
30
0
10
349.37065887451172
20
-200.06451225280762
30
0
10
348.75489158653374
20
-200.15721843650098
30
0
10
348.14019578303839
20
-200.2574447356634
30
0
10
347.5272331237793
20
-200.36724662780762
30
0
10
346.84178934207267
20
-200.49003228702034
30
0
10
346.15851281705204
20
-200.62479200325572
30
0
10
345.47683143615723
20
-200.7670593261719
30
0
10
344.73935786626282
20
-200.92097051320266
30
0
10
344.00375123475544
20
-201.08366851697323
30
0
10
343.26994323730469
20
-201.25410842895508
30
0
10
342.49830193115145
20
-201.43333579736648
30
0
10
341.72864950630594
20
-201.62112396027123
30
0
10
340.96090698242188
20
-201.81639671325686
30
0
10
340.17409726906908
20
-202.0165191423558
30
0
10
339.38929350099113
20
-202.22450254352185
30
0
10
338.60658168792725
20
-202.44008255004886
30
0
10
337.82386955385613
20
-202.65566264498995
30
0
10
337.04324937651478
20
-202.87883935152303
30
0
10
336.26493549346924
20
-203.10980606079102
30
0
10
335.50548327476156
20
-203.33517552113634
30
0
10
334.74822692330088
20
-203.56796199321818
30
0
10
333.99362993240351
20
-203.80908203125003
30
0
10
333.27603090672113
20
-204.03837992993152
30
0
10
332.56083685714992
20
-204.27521423691593
30
0
10
331.84859132766724
20
-204.52068328857425
30
0
10
331.19022915347551
20
-204.74758192374563
30
0
10
330.5343862472742
20
-204.98185823829795
30
0
10
329.88263702392578
20
-205.22709655761719
30
0
10
329.29980682247947
20
-205.44640222601043
30
0
10
328.72025030872533
20
-205.67447412798276
30
0
10
328.14417743682861
20
-205.91091918945312
30
0
10
327.21733263323949
20
-206.29133612496443
30
0
10
326.29950546543677
20
-206.69342753386474
30
0
10
325.36735200881958
20
-207.06111907958984
30
0
10
325.3131207089142
20
-207.08251082613907
30
0
10
325.25884091825856
20
-207.10378613812583
30
0
10
325.20398545265198
20
-207.12347412109378
30
0
10
325.14289592281125
20
-207.14539955021417
30
0
10
325.08109243756371
20
-207.16535636469661
30
0
10
325.01899290084839
20
-207.1842956542969
30
0
10
324.95197280474201
20
-207.2047356297997
30
0
10
324.88460788216997
20
-207.22399044141386
30
0
10
324.81692957878113
20
-207.24208450317383
30
0
10
324.74585879378355
20
-207.26108555829319
30
0
10
324.67444242313081
20
-207.27880657814157
30
0
10
324.60277128219604
20
-207.29541778564453
30
0
10
324.529365608852
20
-207.31243100541346
30
0
10
324.4556926844794
20
-207.32828004508889
30
0
10
324.38179111480713
20
-207.34297943115237
30
0
10
324.30788947175415
20
-207.3576788318116
30
0
10
324.23375918294738
20
-207.37122857657585
30
0
10
324.15943050384521
20
-207.38360214233398
30
0
10
324.08685831881348
20
-207.39568330285709
30
0
10
324.01409700919493
20
-207.40664321716093
30
0
10
323.94116497039795
20
-207.41628646850586
30
0
10
323.87171415705893
20
-207.42546942376376
30
0
10
323.80210852420083
20
-207.4334584113123
30
0
10
323.73236799240112
20
-207.44022369384768
30
0
10
323.6677477590415
20
-207.44649227432589
30
0
10
323.60301170794429
20
-207.45171024058612
30
0
10
323.5381817817688
20
-207.4548263549805
30
0
10
323.47996719546825
20
-207.45762449653384
30
0
10
323.42167691491795
20
-207.45872785281409
30
0
10
323.36338710784906
20
-207.45973205566406
30
0
10
322.71410730706208
20
-207.47091769272765
30
0
10
322.06488625271481
20
-207.46980103039391
30
0
10
321.41561365127563
20
-207.45973205566406
30
0
10
321.19598969814956
20
-207.45632610871795
30
0
10
320.97635984696024
20
-207.45189583037515
30
0
10
320.7570161819458
20
-207.44124603271487
30
0
10
320.51274690285987
20
-207.4293860211813
30
0
10
320.26883254842124
20
-207.40981263669298
30
0
10
320.02535438537598
20
-207.38622665405273
30
0
10
319.76258383731624
20
-207.36077179803038
30
0
10
319.50032134390909
20
-207.33064326162099
30
0
10
319.2386417388916
20
-207.29603576660156
30
0
10
318.96384529304066
20
-207.25969355097305
30
0
10
318.68969163536133
20
-207.2184121022654
30
0
10
318.41625118255615
20
-207.17289733886719
30
0
10
318.13619228528518
20
-207.12628092086442
30
0
10
317.8568815360195
20
-207.07522377894594
30
0
10
317.57843208312988
20
-207.01983642578128
30
0
10
317.29998287574983
20
-206.96444912145176
30
0
10
317.02239496322699
20
-206.90473161351193
30
0
10
316.74581527709961
20
-206.84062576293945
30
0
10
316.47577166994188
20
-206.77803484973506
30
0
10
316.20668919980415
20
-206.71126055214373
30
0
10
315.93890190124512
20
-206.63967895507812
30
0
10
315.68389661457547
20
-206.57151408774425
30
0
10
315.43006580817644
20
-206.49898989190069
30
0
10
315.1775598526001
20
-206.42193984985354
30
0
10
314.94359274510799
20
-206.35054677942563
30
0
10
314.71076309030059
20
-206.27526803687019
30
0
10
314.48053741455078
20
-206.19277572631836
30
0
10
314.27380430663254
20
-206.11870105291723
30
0
10
314.06917086387273
20
-206.03880986676586
30
0
10
313.86499786376953
20
-205.95782089233398
30
0
10
313.27644684431857
20
-205.7243613093232
30
0
10
312.69172184422519
20
-205.48177972349382
30
0
10
312.1103401184082
20
-205.23101806640628
30
0
10
311.84430809355604
20
-205.11627309175725
30
0
10
311.57897609941483
20
-204.9998153347801
30
0
10
311.31708335876465
20
-204.87604141235352
30
0
10
311.02542798835225
20
-204.73820128321097
30
0
10
310.7380379929611
20
-204.59128761836041
30
0
10
310.45322036743164
20
-204.43966674804688
30
0
10
310.14583551817458
20
-204.27603235821974
30
0
10
309.84144682618114
20
-204.10691527010374
30
0
10
309.54002571105957
20
-203.93264389038086
30
0
10
309.22349519133599
20
-203.74963676968076
30
0
10
308.91023721802787
20
-203.56094566529609
30
0
10
308.59998512268066
20
-203.36745452880862
30
0
10
308.28222432655951
20
-203.16928053258195
30
0
10
307.96761666516386
20
-202.96607135259083
30
0
10
307.65624618530273
20
-202.75801849365237
30
0
10
307.34487548418093
20
-202.54996548687103
30
0
10
307.03674196919417
20
-202.33706879425856
30
0
10
306.73204612731934
20
-202.11933898925781
30
0
10
306.43455032624718
20
-201.90675419532886
30
0
10
306.14033165165301
20
-201.68956200562275
30
0
10
305.85014152526855
20
-201.46714210510254
30
0
10
305.57380362384413
20
-201.25533941797966
30
0
10
305.30111884472257
20
-201.0387961975494
30
0
10
305.03224754333496
20
-200.8174915313721
30
0
10
304.78311609121363
20
-200.61243449270177
30
0
10
304.53725872021101
20
-200.40328949005047
30
0
10
304.29850578308105
20
-200.18637847900393
30
0
10
304.08411542143307
20
-199.99160127264699
30
0
10
303.87545358124106
20
-199.79056209714284
30
0
10
303.66697883605957
20
-199.58934593200684
30
0
10
301.95185818547651
20
-197.93394158192399
30
0
10
300.24940076954903
20
-196.2665579640223
30
0
10
298.6113109588623
20
-194.53367805480957
30
0
10
298.21867756745718
20
-194.11832444524975
30
0
10
297.82974217170693
20
-193.69920799567481
30
0
10
297.46499252319336
20
-193.25977325439453
30
0
10
297.06718979982355
20
-192.78051758537075
30
0
10
296.69815478364376
20
-192.27709434936378
30
0
10
296.34690093994141
20
-191.76206207275391
30
0
10
295.97260724435608
20
-191.21324719822869
30
0
10
295.61850387091067
20
-190.6512503881587
30
0
10
295.28456497192383
20
-190.07742309570315
30
0
10
294.93645195480207
20
-189.47923956365707
30
0
10
294.61025151251857
20
-188.86819994001385
30
0
10
294.30414199829102
20
-188.24733924865725
30
0
10
293.99167955437497
20
-187.61359335074812
30
0
10
293.70015061749217
20
-186.96961450643261
30
0
10
293.42977905273438
20
-186.31687355041507
30
0
10
293.1594073871089
20
-185.66413235087924
30
0
10
292.91019310939487
20
-185.00262903310363
30
0
10
292.68300247192383
20
-184.33355903625488
30
0
10
292.46043132506747
20
-183.67809330851446
30
0
10
292.25899730591181
20
-183.01536548149912
30
0
10
292.08219909667969
20
-182.34623336791995
30
0
10
291.91259944232718
20
-181.70434578505322
30
0
10
291.76567028526495
20
-181.0565648152168
30
0
10
291.64216613769531
20
-180.40382862091064
30
0
10
291.52626424741237
20
-179.79127138890757
30
0
10
291.43099228591024
20
-179.17435019163324
30
0
10
291.37373352050781
20
-178.55417537689209
30
0
10
291.32123229214147
20
-177.98552987175586
30
0
10
291.30068978225341
20
-177.41414896272499
30
0
10
291.28351593017578
20
-176.84281635284424
30
0
10
291.19341173749854
20
-173.84526732711498
30
0
10
291.19603566617775
20
-170.8490478188686
30
0
10
291.28351593017578
20
-167.85154628753662
30
0
10
291.30638329546849
20
-167.06799855516942
30
0
10
291.33504890307398
20
-166.28436322203001
30
0
10
291.40724182128901
20
-165.5044846534729
30
0
10
291.48597676145926
20
-164.6539345724733
30
0
10
291.61648521571016
20
-163.80785297117708
30
0
10
291.77538299560547
20
-162.96775531768802
30
0
10
291.94470327669171
20
-162.07255356645919
30
0
10
292.14625927811488
20
-161.18414651230904
30
0
10
292.37887573242182
20
-160.3038215637207
30
0
10
292.6213653424677
20
-159.38613216753095
30
0
10
292.89760801556849
20
-158.47722550930271
30
0
10
293.20285034179688
20
-157.57827949523926
30
0
10
293.51442805965701
20
-156.66067559999243
30
0
10
293.85622171533061
20
-155.75345011180244
30
0
10
294.22702789306635
20
-154.85824012756348
30
0
10
294.59783429233039
20
-153.96302960850534
30
0
10
294.99765324832202
20
-153.07983460775492
30
0
10
295.42618560791016
20
-152.21067810058594
30
0
10
295.84600434859993
20
-151.35919470116957
30
0
10
296.29338066912049
20
-150.52118469254341
30
0
10
296.77079391479492
20
-149.70078849792483
30
0
10
297.22876876343616
20
-148.91379562233851
30
0
10
297.71438436058958
20
-148.14301142992556
30
0
10
298.22774887084961
20
-147.39037132263184
30
0
10
298.70951299859678
20
-146.68406031446682
30
0
10
299.21571498854757
20
-145.99372840610474
30
0
10
299.76117134094233
20
-145.33631896972656
30
0
10
300.2613076365883
20
-144.73353137950173
30
0
10
300.79444626708437
20
-144.1584227114873
30
0
10
301.33330917358398
20
-143.58920288085938
30
0
10
302.677640968302
20
-142.16913794919071
30
0
10
304.05759957219561
20
-140.78572402556287
30
0
10
305.47942352294916
20
-139.44308853149414
30
0
10
305.87545049019377
20
-139.06911827832101
30
0
10
306.27472543157501
20
-138.69831167466901
30
0
10
306.69345092773438
20
-138.35064697265625
30
0
10
307.1501195517211
20
-137.97147837047373
30
0
10
307.62992349667354
20
-137.61983573494302
30
0
10
308.12076377868652
20
-137.28511047363281
30
0
10
308.6437996451204
20
-136.92842964795017
30
0
10
309.1793671398276
20
-136.59095829765118
30
0
10
309.72621726989746
20
-136.27270889282227
30
0
10
310.29627808736643
20
-135.9409516052221
30
0
10
310.87859963390241
20
-135.63008261702811
30
0
10
311.47027778625488
20
-135.33837127685547
30
0
10
312.07423672446436
20
-135.04060521844377
30
0
10
312.68794470807245
20
-134.76280032799752
30
0
10
313.31000423431396
20
-134.50510406494141
30
0
10
313.93206287735984
20
-134.2474081677606
30
0
10
314.56247303932412
20
-134.00982084086976
30
0
10
315.20009326934814
20
-133.79343032836914
30
0
10
315.82474960108107
20
-133.58143940117512
30
0
10
316.4563257955852
20
-133.38979211644809
30
0
10
317.09400749206543
20
-133.22086715698242
30
0
10
317.70572431195376
20
-133.05882041865755
30
0
10
318.32305955334215
20
-132.91768327978579
30
0
10
318.94510936737061
20
-132.80151748657227
30
0
10
319.52886945508004
20
-132.69250217605236
30
0
10
320.11678157581616
20
-132.60547864714414
30
0
10
320.70782089233398
20
-132.54570388793948
30
0
10
321.24975100393658
20
-132.49089578800178
30
0
10
321.79431022636732
20
-132.45899640260649
30
0
10
322.33873653411865
20
-132.45973205566406
30
0
10
322.81417628382371
20
-132.46037449101408
30
0
10
323.28951466906688
20
-132.4859053218911
30
0
10
323.76345920562744
20
-132.52534866333008
30
0
10
324.33423553604649
20
-132.57285068930426
30
0
10
324.90299027918496
20
-132.64053091305937
30
0
10
325.46995258331299
20
-132.72060012817383
30
0
10
326.12100628374208
20
-132.81254514534902
30
0
10
326.7696964077918
20
-132.92082674478493
30
0
10
327.41619396209717
20
-133.04066848754883
30
0
10
328.1314874677787
20
-133.17326298808129
30
0
10
328.84409693825273
20
-133.32000884310352
30
0
10
329.55426216125488
20
-133.47767639160156
30
0
10
330.3161248761233
20
-133.64682157451773
30
0
10
331.07517452569755
20
-133.82853644901439
30
0
10
331.83150959014887
20
-134.02086257934573
30
0
10
332.62125032966759
20
-134.22168333662054
30
0
10
333.40803139381586
20
-134.43407340232383
30
0
10
334.19186449050903
20
-134.656852722168
30
0
10
334.99016658631808
20
-134.88374438913741
30
0
10
335.78541087541896
20
-135.12141240675834
30
0
10
336.57720518112177
20
-135.369987487793
30
0
10
337.36443020422081
20
-135.61712809299803
30
0
10
338.14824494732397
20
-135.87505023999103
30
0
10
338.92879772186279
20
-136.14270401000977
30
0
10
339.68618147101438
20
-136.4024130552196
30
0
10
340.440494026576
20
-136.67128457323258
30
0
10
341.18873786926264
20
-136.95597457885742
30
0
10
341.89629913689265
20
-137.22518577682496
30
0
10
342.5984336723314
20
-137.50854209875999
30
0
10
343.30137920379633
20
-137.7897834777832
30
0
10
347.08874095511669
20
-139.30506850930078
30
0
10
350.89964500998116
20
-140.75895912407753
30
0
10
354.60693168640137
20
-142.47269630432129
30
0
10
354.75287850172776
20
-142.54016194849549
30
0
10
354.89866473037949
20
-142.60803030403429
30
0
10
355.0384731292724
20
-142.68681716918945
30
0
10
355.18672343214848
20
-142.77036133902757
30
0
10
355.32825220416242
20
-142.8661823889903
30
0
10
355.46458053588867
20
-142.96856307983401
30
0
10
355.6071801581333
20
-143.07565342308541
30
0
10
355.74408988050834
20
-143.18992079322842
30
0
10
355.87476348876953
20
-143.31099319458008
30
0
10
356.00945829272484
20
-143.43579133539413
30
0
10
356.13752727151478
20
-143.56781977158286
30
0
10
356.25891876220703
20
-143.7056770324707
30
0
10
356.38217337937999
20
-143.84565013782063
30
0
10
356.49854396222031
20
-143.99163236348051
30
0
10
356.60759162902832
20
-144.14289665222168
30
0
10
356.71663955748988
20
-144.29416130391286
30
0
10
356.81836453477729
20
-144.45070804403335
30
0
10
356.91219520568848
20
-144.61188697814941
30
0
10
357.00460738199752
20
-144.7706292735225
30
0
10
357.08936213369179
20
-144.93386476622436
30
0
10
357.16522598266602
20
-145.10109710693359
30
0
10
357.23882480531751
20
-145.26333648117938
30
0
10
357.30405570166772
20
-145.42933760275452
30
0
10
357.36045837402344
20
-145.59848213195801
30
0
10
357.41438065607997
20
-145.76018828223599
30
0
10
357.46023410919184
20
-145.92476744734367
30
0
10
357.49308204650879
20
-146.091796875
30
0
10
357.52405941248099
20
-146.24931458025841
30
0
10
357.54347032145489
20
-146.40901142680195
30
0
10
357.55982971191406
20
-146.56889152526855
30
0
10
357.60583104618036
20
-147.01846193380348
30
0
10
357.62770430788487
20
-147.46948129821882
30
0
10
357.65608787536621
20
-147.92008590698242
30
0
10
357.71752814207207
20
-148.89548363876926
30
0
10
357.80947359011685
20
-149.8689379600925
30
0
10
357.90922355651855
20
-150.84140396118164
30
0
10
358.02085213727071
20
-151.92967499973153
30
0
10
358.14225469691053
20
-153.01670831666166
30
0
10
358.27549934387207
20
-154.10234832763672
30
0
10
358.41971192974233
20
-155.27735202855217
30
0
10
358.57779638677903
20
-156.45072360497986
30
0
10
358.74589538574219
20
-157.62261962890625
30
0
10
358.92270407123249
20
-158.85523491394548
30
0
10
359.11059194710765
20
-160.08621778012775
30
0
10
359.30882835388184
20
-161.31553745269775
30
0
10
359.51201062371206
20
-162.57552781210879
30
0
10
359.72606424364159
20
-163.83377095153105
30
0
10
359.95043754577637
20
-165.09017276763916
30
0
10
360.17481094242657
20
-166.34657511299599
30
0
10
360.40950402997612
20
-167.60113613348747
30
0
10
360.6549243927002
20
-168.85358142852783
30
0
10
360.89437067128313
20
-170.07553938546897
30
0
10
361.14402832938015
20
-171.29548336633729
30
0
10
361.40494155883789
20
-172.51309156417847
30
0
10
361.65300200948525
20
-173.67071948092331
30
0
10
361.9112364289407
20
-174.82623607138376
30
0
10
362.1820182800293
20
-175.97859764099124
30
0
10
362.43220608730621
20
-177.0433174999157
30
0
10
362.69310533839865
20
-178.10534399261269
30
0
10
362.96702575683588
20
-179.16476726531982
30
0
10
363.21179785688889
20
-180.111455580068
30
0
10
363.46696736133129
20
-181.05606522320159
30
0
10
363.74063491821289
20
-181.99314308166507
30
0
10
364.18796248140882
20
-183.52485827555839
30
0
10
364.6847132256089
20
-185.03645001276578
30
0
10
365.07580947875977
20
-186.59639930725098
30
0
10
365.13363569887412
20
-186.82704833685261
30
0
10
365.18915214087508
20
-187.05875454089423
30
0
10
365.22982406616211
20
-187.28813552856448
30
0
10
365.27342528969081
20
-187.53403713381346
30
0
10
365.29996671249353
20
-187.77726652489034
30
0
10
365.31021881103516
20
-188.0435848236084
30
0
10
365.32102236973378
20
-188.3242283778084
30
0
10
365.31373706846983
20
-188.63051154788923
30
0
10
365.31501770019531
20
-188.84415054321292
30
0
0
SPLINE
5
101
100
AcDbEntity
8
0
100
AcDbSpline
70
0
71
3
72
398
73
394
74
0
42
0.000000001
43
0.0000000001
44
0.0000000001
40
0
40
0
40
0
40
0
40
0.82900458737303917
40
0.82900458737303917
40
0.82900458737303917
40
1.6725700200582474
40
1.6725700200582474
40
1.6725700200582474
40
2.5161351000916592
40
2.5161351000916592
40
2.5161351000916592
40
3.3451408552288631
40
3.3451408552288631
40
3.3451408552288631
40
4.145719585407635
40
4.145719585407635
40
4.145719585407635
40
4.9054348462227644
40
4.9054348462227644
40
4.9054348462227644
40
5.6141065510482466
40
5.6141065510482466
40
5.6141065510482466
40
6.7764638173483087
40
6.7764638173483087
40
6.7764638173483087
40
7.5806618938131134
40
7.5806618938131134
40
7.5806618938131134
40
8.4620821761580647
40
8.4620821761580647
40
8.4620821761580647
40
9.4042170036588519
40
9.4042170036588519
40
9.4042170036588519
40
10.388122342215278
40
10.388122342215278
40
10.388122342215278
40
11.393287490617718
40
11.393287490617718
40
11.393287490617718
40
12.39845468498341
40
12.39845468498341
40
12.39845468498341
40
13.382357238552329
40
13.382357238552329
40
13.382357238552329
40
14.324495385154492
40
14.324495385154492
40
14.324495385154492
40
15.205912692468885
40
15.205912692468885
40
15.205912692468885
40
16.010112112273706
40
16.010112112273706
40
16.010112112273706
40
21.418155208549788
40
21.418155208549788
40
21.418155208549788
40
23.286273673816385
40
23.286273673816385
40
23.286273673816385
40
25.375291929930189
40
25.375291929930189
40
25.375291929930189
40
27.635285812832645
40
27.635285812832645
40
27.635285812832645
40
30.011799339204053
40
30.011799339204053
40
30.011799339204053
40
32.447334519675103
40
32.447334519675103
40
32.447334519675103
40
34.882870699012315
40
34.882870699012315
40
34.882870699012315
40
37.259384076754849
40
37.259384076754849
40
37.259384076754849
40
39.519376768166609
40
39.519376768166609
40
39.519376768166609
40
41.608394726701079
40
41.608394726701079
40
41.608394726701079
40
43.476510121365202
40
43.476510121365202
40
43.476510121365202
40
46.482124741523293
40
46.482124741523293
40
46.482124741523293
40
46.656986924041462
40
46.656986924041462
40
46.656986924041462
40
46.851721366613859
40
46.851721366613859
40
46.851721366613859
40
47.061885914479049
40
47.061885914479049
40
47.061885914479049
40
47.282585291495216
40
47.282585291495216
40
47.282585291495216
40
47.508625873034561
40
47.508625873034561
40
47.508625873034561
40
47.734666679021231
40
47.734666679021231
40
47.734666679021231
40
47.955365814199261
40
47.955365814199261
40
47.955365814199261
40
48.165530437239561
40
48.165530437239561
40
48.165530437239561
40
48.360264928565314
40
48.360264928565314
40
48.360264928565314
40
48.535128429416361
40
48.535128429416361
40
48.535128429416361
40
50.482901885989847
40
50.482901885989847
40
50.482901885989847
40
51.141758744231559
40
51.141758744231559
40
51.141758744231559
40
51.875486293522265
40
51.875486293522265
40
51.875486293522265
40
52.667351928789813
40
52.667351928789813
40
52.667351928789813
40
53.498910284850666
40
53.498910284850666
40
53.498910284850666
40
54.350595958370036
40
54.350595958370036
40
54.350595958370036
40
55.202280880955996
40
55.202280880955996
40
55.202280880955996
40
56.033838946109931
40
56.033838946109931
40
56.033838946109931
40
56.825705117239252
40
56.825705117239252
40
56.825705117239252
40
57.559432910538547
40
57.559432910538547
40
57.559432910538547
40
58.218290036620225
40
58.218290036620225
40
58.218290036620225
40
60.117517814200639
40
60.117517814200639
40
60.117517814200639
40
60.986577485133921
40
60.986577485133921
40
60.986577485133921
40
61.9544008757603
40
61.9544008757603
40
61.9544008757603
40
62.998908730504496
40
62.998908730504496
40
62.998908730504496
40
64.095774867384577
40
64.095774867384577
40
64.095774867384577
40
65.219187286254069
40
65.219187286254069
40
65.219187286254069
40
66.342600503423142
40
66.342600503423142
40
66.342600503423142
40
67.439467178466288
40
67.439467178466288
40
67.439467178466288
40
68.483974925508647
40
68.483974925508647
40
68.483974925508647
40
69.451797561950869
40
69.451797561950869
40
69.451797561950869
40
70.320862661346808
40
70.320862661346808
40
70.320862661346808
40
77.47065674013318
40
77.47065674013318
40
77.47065674013318
40
79.184389332014121
40
79.184389332014121
40
79.184389332014121
40
81.053417842270235
40
81.053417842270235
40
81.053417842270235
40
83.045041850948209
40
83.045041850948209
40
83.045041850948209
40
85.121200827145685
40
85.121200827145685
40
85.121200827145685
40
87.240447951162182
40
87.240447951162182
40
87.240447951162182
40
89.359695865806771
40
89.359695865806771
40
89.359695865806771
40
91.435852894484455
40
91.435852894484455
40
91.435852894484455
40
93.427476655689546
40
93.427476655689546
40
93.427476655689546
40
95.296506669648252
40
95.296506669648252
40
95.296506669648252
40
97.010242040933832
40
97.010242040933832
40
97.010242040933832
40
106.00151210624145
40
106.00151210624145
40
106.00151210624145
40
108.35183259720128
40
108.35183259720128
40
108.35183259720128
40
110.91513586588776
40
110.91513586588776
40
110.91513586588776
40
113.64657258104636
40
113.64657258104636
40
113.64657258104636
40
116.4939421959641
40
116.4939421959641
40
116.4939421959641
40
119.40040978020282
40
119.40040978020282
40
119.40040978020282
40
122.3068791008327
40
122.3068791008327
40
122.3068791008327
40
125.15424934660159
40
125.15424934660159
40
125.15424934660159
40
127.88568583091914
40
127.88568583091914
40
127.88568583091914
40
130.44898751824763
40
130.44898751824763
40
130.44898751824763
40
132.79931345156021
40
132.79931345156021
40
132.79931345156021
40
138.66280459558223
40
138.66280459558223
40
138.66280459558223
40
140.29598893883485
40
140.29598893883485
40
140.29598893883485
40
142.07716551774112
40
142.07716551774112
40
142.07716551774112
40
143.9751744411314
40
143.9751744411314
40
143.9751744411314
40
145.95374308167118
40
145.95374308167118
40
145.95374308167118
40
147.97337860575445
40
147.97337860575445
40
147.97337860575445
40
149.99301126237376
40
149.99301126237376
40
149.99301126237376
40
151.97158136935485
40
151.97158136935485
40
151.97158136935485
40
153.86958882424838
40
153.86958882424838
40
153.86958882424838
40
155.65076610837374
40
155.65076610837374
40
155.65076610837374
40
157.28394613107875
40
157.28394613107875
40
157.28394613107875
40
158.71017901175173
40
158.71017901175173
40
158.71017901175173
40
160.42780609077914
40
160.42780609077914
40
160.42780609077914
40
162.40019024686151
40
162.40019024686151
40
162.40019024686151
40
164.58246235007277
40
164.58246235007277
40
164.58246235007277
40
166.92359606837263
40
166.92359606837263
40
166.92359606837263
40
169.36813257197019
40
169.36813257197019
40
169.36813257197019
40
171.85779347342569
40
171.85779347342569
40
171.85779347342569
40
174.3330870522513
40
174.3330870522513
40
174.3330870522513
40
176.73490688062805
40
176.73490688062805
40
176.73490688062805
40
179.00613797593917
40
179.00613797593917
40
179.00613797593917
40
191.24317967227617
40
191.24317967227617
40
191.24317967227617
40
191.72492209482908
40
191.72492209482908
40
191.72492209482908
40
192.23575306505123
40
192.23575306505123
40
192.23575306505123
40
192.77008296157499
40
192.77008296157499
40
192.77008296157499
40
193.32085569692225
40
193.32085569692225
40
193.32085569692225
40
193.88008173704605
40
193.88008173704605
40
193.88008173704605
40
194.4393091190008
40
194.4393091190008
40
194.4393091190008
40
194.99008232477871
40
194.99008232477871
40
194.99008232477871
40
195.52441138982542
40
195.52441138982542
40
195.52441138982542
40
196.03524255000076
40
196.03524255000076
40
196.03524255000076
40
196.51698372132819
40
196.51698372132819
40
196.51698372132819
40
197.87160244672893
40
197.87160244672893
40
197.87160244672893
40
200.80386724494596
40
200.80386724494596
40
200.80386724494596
40
204.08531755136789
40
204.08531755136789
40
204.08531755136789
40
207.63687811973062
40
207.63687811973062
40
207.63687811973062
40
211.37245512735549
40
211.37245512735549
40
211.37245512735549
40
215.20123223185328
40
215.20123223185328
40
215.20123223185328
40
219.03001094919131
40
219.03001094919131
40
219.03001094919131
40
222.76558857285687
40
222.76558857285687
40
222.76558857285687
40
226.31714887771494
40
226.31714887771494
40
226.31714887771494
40
229.59859880322603
40
229.59859880322603
40
229.59859880322603
40
232.5308642913858
40
232.5308642913858
40
232.5308642913858
40
237.32384446926335
40
237.32384446926335
40
237.32384446926335
40
238.03251893120603
40
238.03251893120603
40
238.03251893120603
40
238.79223397803977
40
238.79223397803977
40
238.79223397803977
40
239.59281408067974
40
239.59281408067974
40
239.59281408067974
40
239.59281408067974
10
365.31501770019531
20
-188.84415054321292
30
0
10
365.29542135203138
20
-189.07239371142987
30
0
10
365.27754023673305
20
-189.3830508262597
30
0
10
365.24410247802734
20
-189.67011642456058
30
0
10
365.21007741010817
20
-189.96222411531178
30
0
10
365.1599444179077
20
-190.22990427680867
30
0
10
365.09921646118164
20
-190.50114631652832
30
0
10
365.03848852984288
20
-190.77238824285553
30
0
10
364.96716564283707
20
-191.04719204442733
30
0
10
364.88392639160156
20
-191.31677627563477
30
0
10
364.80212378980957
20
-191.58170767743766
30
0
10
364.70881260981395
20
-191.84159812609659
30
0
10
364.60353851318359
20
-192.09692573547363
30
0
10
364.50187431835894
20
-192.34349803250296
30
0
10
364.38905356931537
20
-192.58581504920269
30
0
10
364.26494979858398
20
-192.82238006591797
30
0
10
364.14718058364588
20
-193.04687023359136
30
0
10
364.01925077633223
20
-193.26618060734049
30
0
10
363.87650680541987
20
-193.47528076171875
30
0
10
363.74335348017087
20
-193.67033194803236
30
0
10
363.59730977784892
20
-193.8564988273238
30
0
10
363.4477653503418
20
-194.03954696655276
30
0
10
363.20248385996479
20
-194.33978095821163
30
0
10
362.94778462077784
20
-194.63162482812197
30
0
10
362.68747711181641
20
-194.91877174377441
30
0
10
362.50737861364763
20
-195.11743957502182
30
0
10
362.32459553958233
20
-195.31385906039887
30
0
10
362.1325569152832
20
-195.5008354187012
30
0
10
361.92207800044292
20
-195.70576596920827
30
0
10
361.70048068643212
20
-195.89935279043061
30
0
10
361.47321701049805
20
-196.0857906341553
30
0
10
361.23029881538491
20
-196.28507080645844
30
0
10
360.98090674470404
20
-196.47618319996747
30
0
10
360.72569847106934
20
-196.65923118591309
30
0
10
360.45917527763311
20
-196.8503947915105
30
0
10
360.18630871382038
20
-197.03276304996359
30
0
10
359.90840148925781
20
-197.20704078674316
30
0
10
359.62448936308783
20
-197.38508424304797
30
0
10
359.33531638982203
20
-197.55468376718537
30
0
10
359.04145431518555
20
-197.71572494506839
30
0
10
358.74759164240754
20
-197.87676645074265
30
0
10
358.44903984917011
20
-198.02924957532227
30
0
10
358.14620208740234
20
-198.17276382446292
30
0
10
357.8497709575459
20
-198.31324198271807
30
0
10
357.54923328311565
20
-198.4451267305206
30
0
10
357.24469184875488
20
-198.5669002532959
30
0
10
356.95307749986284
20
-198.68350476929865
30
0
10
356.65779207788842
20
-198.79083823841771
30
0
10
356.35911750793457
20
-198.88843154907227
30
0
10
356.07969252534417
20
-198.97973496715306
30
0
10
355.79730117833805
20
-199.06251327519215
30
0
10
355.51128959655762
20
-199.12943840026855
30
0
10
355.25033448912268
20
-199.19050044920976
30
0
10
354.98636567418953
20
-199.23836532743053
30
0
10
354.72208023071289
20
-199.28398704528809
30
0
10
352.94482569304205
20
-199.59078186535862
30
0
10
351.15325248009805
20
-199.79613578417005
30
0
10
349.37065887451172
20
-200.06451225280762
30
0
10
348.75489158653374
20
-200.15721843650098
30
0
10
348.14019578303839
20
-200.2574447356634
30
0
10
347.5272331237793
20
-200.36724662780762
30
0
10
346.84178934207267
20
-200.49003228702034
30
0
10
346.15851281705204
20
-200.62479200325572
30
0
10
345.47683143615723
20
-200.7670593261719
30
0
10
344.73935786626282
20
-200.92097051320266
30
0
10
344.00375123475544
20
-201.08366851697323
30
0
10
343.26994323730469
20
-201.25410842895508
30
0
10
342.49830193115145
20
-201.43333579736648
30
0
10
341.72864950630594
20
-201.62112396027123
30
0
10
340.96090698242188
20
-201.81639671325686
30
0
10
340.17409726906908
20
-202.0165191423558
30
0
10
339.38929350099113
20
-202.22450254352185
30
0
10
338.60658168792725
20
-202.44008255004886
30
0
10
337.82386955385613
20
-202.65566264498995
30
0
10
337.04324937651478
20
-202.87883935152303
30
0
10
336.26493549346924
20
-203.10980606079102
30
0
10
335.50548327476156
20
-203.33517552113634
30
0
10
334.74822692330088
20
-203.56796199321818
30
0
10
333.99362993240351
20
-203.80908203125003
30
0
10
333.27603090672113
20
-204.03837992993152
30
0
10
332.56083685714992
20
-204.27521423691593
30
0
10
331.84859132766724
20
-204.52068328857425
30
0
10
331.19022915347551
20
-204.74758192374563
30
0
10
330.5343862472742
20
-204.98185823829795
30
0
10
329.88263702392578
20
-205.22709655761719
30
0
10
329.29980682247947
20
-205.44640222601043
30
0
10
328.72025030872533
20
-205.67447412798276
30
0
10
328.14417743682861
20
-205.91091918945312
30
0
10
327.21733263323949
20
-206.29133612496443
30
0
10
326.29950546543677
20
-206.69342753386474
30
0
10
325.36735200881958
20
-207.06111907958984
30
0
10
325.3131207089142
20
-207.08251082613907
30
0
10
325.25884091825856
20
-207.10378613812583
30
0
10
325.20398545265198
20
-207.12347412109378
30
0
10
325.14289592281125
20
-207.14539955021417
30
0
10
325.08109243756371
20
-207.16535636469661
30
0
10
325.01899290084839
20
-207.1842956542969
30
0
10
324.95197280474201
20
-207.2047356297997
30
0
10
324.88460788216997
20
-207.22399044141386
30
0
10
324.81692957878113
20
-207.24208450317383
30
0
10
324.74585879378355
20
-207.26108555829319
30
0
10
324.67444242313081
20
-207.27880657814157
30
0
10
324.60277128219604
20
-207.29541778564453
30
0
10
324.529365608852
20
-207.31243100541346
30
0
10
324.4556926844794
20
-207.32828004508889
30
0
10
324.38179111480713
20
-207.34297943115237
30
0
10
324.30788947175415
20
-207.3576788318116
30
0
10
324.23375918294738
20
-207.37122857657585
30
0
10
324.15943050384521
20
-207.38360214233398
30
0
10
324.08685831881348
20
-207.39568330285709
30
0
10
324.01409700919493
20
-207.40664321716093
30
0
10
323.94116497039795
20
-207.41628646850586
30
0
10
323.87171415705893
20
-207.42546942376376
30
0
10
323.80210852420083
20
-207.4334584113123
30
0
10
323.73236799240112
20
-207.44022369384768
30
0
10
323.6677477590415
20
-207.44649227432589
30
0
10
323.60301170794429
20
-207.45171024058612
30
0
10
323.5381817817688
20
-207.4548263549805
30
0
10
323.47996719546825
20
-207.45762449653384
30
0
10
323.42167691491795
20
-207.45872785281409
30
0
10
323.36338710784906
20
-207.45973205566406
30
0
10
322.71410730706208
20
-207.47091769272765
30
0
10
322.06488625271481
20
-207.46980103039391
30
0
10
321.41561365127563
20
-207.45973205566406
30
0
10
321.19598969814956
20
-207.45632610871795
30
0
10
320.97635984696024
20
-207.45189583037515
30
0
10
320.7570161819458
20
-207.44124603271487
30
0
10
320.51274690285987
20
-207.4293860211813
30
0
10
320.26883254842124
20
-207.40981263669298
30
0
10
320.02535438537598
20
-207.38622665405273
30
0
10
319.76258383731624
20
-207.36077179803038
30
0
10
319.50032134390909
20
-207.33064326162099
30
0
10
319.2386417388916
20
-207.29603576660156
30
0
10
318.96384529304066
20
-207.25969355097305
30
0
10
318.68969163536133
20
-207.2184121022654
30
0
10
318.41625118255615
20
-207.17289733886719
30
0
10
318.13619228528518
20
-207.12628092086442
30
0
10
317.8568815360195
20
-207.07522377894594
30
0
10
317.57843208312988
20
-207.01983642578128
30
0
10
317.29998287574983
20
-206.96444912145176
30
0
10
317.02239496322699
20
-206.90473161351193
30
0
10
316.74581527709961
20
-206.84062576293945
30
0
10
316.47577166994188
20
-206.77803484973506
30
0
10
316.20668919980415
20
-206.71126055214373
30
0
10
315.93890190124512
20
-206.63967895507812
30
0
10
315.68389661457547
20
-206.57151408774425
30
0
10
315.43006580817644
20
-206.49898989190069
30
0
10
315.1775598526001
20
-206.42193984985354
30
0
10
314.94359274510799
20
-206.35054677942563
30
0
10
314.71076309030059
20
-206.27526803687019
30
0
10
314.48053741455078
20
-206.19277572631836
30
0
10
314.27380430663254
20
-206.11870105291723
30
0
10
314.06917086387273
20
-206.03880986676586
30
0
10
313.86499786376953
20
-205.95782089233398
30
0
10
313.27644684431857
20
-205.7243613093232
30
0
10
312.69172184422519
20
-205.48177972349382
30
0
10
312.1103401184082
20
-205.23101806640628
30
0
10
311.84430809355604
20
-205.11627309175725
30
0
10
311.57897609941483
20
-204.9998153347801
30
0
10
311.31708335876465
20
-204.87604141235352
30
0
10
311.02542798835225
20
-204.73820128321097
30
0
10
310.7380379929611
20
-204.59128761836041
30
0
10
310.45322036743164
20
-204.43966674804688
30
0
10
310.14583551817458
20
-204.27603235821974
30
0
10
309.84144682618114
20
-204.10691527010374
30
0
10
309.54002571105957
20
-203.93264389038086
30
0
10
309.22349519133599
20
-203.74963676968076
30
0
10
308.91023721802787
20
-203.56094566529609
30
0
10
308.59998512268066
20
-203.36745452880862
30
0
10
308.28222432655951
20
-203.16928053258195
30
0
10
307.96761666516386
20
-202.96607135259083
30
0
10
307.65624618530273
20
-202.75801849365237
30
0
10
307.34487548418093
20
-202.54996548687103
30
0
10
307.03674196919417
20
-202.33706879425856
30
0
10
306.73204612731934
20
-202.11933898925781
30
0
10
306.43455032624718
20
-201.90675419532886
30
0
10
306.14033165165301
20
-201.68956200562275
30
0
10
305.85014152526855
20
-201.46714210510254
30
0
10
305.57380362384413
20
-201.25533941797966
30
0
10
305.30111884472257
20
-201.0387961975494
30
0
10
305.03224754333496
20
-200.8174915313721
30
0
10
304.78311609121363
20
-200.61243449270177
30
0
10
304.53725872021101
20
-200.40328949005047
30
0
10
304.29850578308105
20
-200.18637847900393
30
0
10
304.08411542143307
20
-199.99160127264699
30
0
10
303.87545358124106
20
-199.79056209714284
30
0
10
303.66697883605957
20
-199.58934593200684
30
0
10
301.95185818547651
20
-197.93394158192399
30
0
10
300.24940076954903
20
-196.2665579640223
30
0
10
298.6113109588623
20
-194.53367805480957
30
0
10
298.21867756745718
20
-194.11832444524975
30
0
10
297.82974217170693
20
-193.69920799567481
30
0
10
297.46499252319336
20
-193.25977325439453
30
0
10
297.06718979982355
20
-192.78051758537075
30
0
10
296.69815478364376
20
-192.27709434936378
30
0
10
296.34690093994141
20
-191.76206207275391
30
0
10
295.97260724435608
20
-191.21324719822869
30
0
10
295.61850387091067
20
-190.6512503881587
30
0
10
295.28456497192383
20
-190.07742309570315
30
0
10
294.93645195480207
20
-189.47923956365707
30
0
10
294.61025151251857
20
-188.86819994001385
30
0
10
294.30414199829102
20
-188.24733924865725
30
0
10
293.99167955437497
20
-187.61359335074812
30
0
10
293.70015061749217
20
-186.96961450643261
30
0
10
293.42977905273438
20
-186.31687355041507
30
0
10
293.1594073871089
20
-185.66413235087924
30
0
10
292.91019310939487
20
-185.00262903310363
30
0
10
292.68300247192383
20
-184.33355903625488
30
0
10
292.46043132506747
20
-183.67809330851446
30
0
10
292.25899730591181
20
-183.01536548149912
30
0
10
292.08219909667969
20
-182.34623336791995
30
0
10
291.91259944232718
20
-181.70434578505322
30
0
10
291.76567028526495
20
-181.0565648152168
30
0
10
291.64216613769531
20
-180.40382862091064
30
0
10
291.52626424741237
20
-179.79127138890757
30
0
10
291.43099228591024
20
-179.17435019163324
30
0
10
291.37373352050781
20
-178.55417537689209
30
0
10
291.32123229214147
20
-177.98552987175586
30
0
10
291.30068978225341
20
-177.41414896272499
30
0
10
291.28351593017578
20
-176.84281635284424
30
0
10
291.19341173749854
20
-173.84526732711498
30
0
10
291.19603566617775
20
-170.8490478188686
30
0
10
291.28351593017578
20
-167.85154628753662
30
0
10
291.30638329546849
20
-167.06799855516942
30
0
10
291.33504890307398
20
-166.28436322203001
30
0
10
291.40724182128901
20
-165.5044846534729
30
0
10
291.48597676145926
20
-164.6539345724733
30
0
10
291.61648521571016
20
-163.80785297117708
30
0
10
291.77538299560547
20
-162.96775531768802
30
0
10
291.94470327669171
20
-162.07255356645919
30
0
10
292.14625927811488
20
-161.18414651230904
30
0
10
292.37887573242182
20
-160.3038215637207
30
0
10
292.6213653424677
20
-159.38613216753095
30
0
10
292.89760801556849
20
-158.47722550930271
30
0
10
293.20285034179688
20
-157.57827949523926
30
0
10
293.51442805965701
20
-156.66067559999243
30
0
10
293.85622171533061
20
-155.75345011180244
30
0
10
294.22702789306635
20
-154.85824012756348
30
0
10
294.59783429233039
20
-153.96302960850534
30
0
10
294.99765324832202
20
-153.07983460775492
30
0
10
295.42618560791016
20
-152.21067810058594
30
0
10
295.84600434859993
20
-151.35919470116957
30
0
10
296.29338066912049
20
-150.52118469254341
30
0
10
296.77079391479492
20
-149.70078849792483
30
0
10
297.22876876343616
20
-148.91379562233851
30
0
10
297.71438436058958
20
-148.14301142992556
30
0
10
298.22774887084961
20
-147.39037132263184
30
0
10
298.70951299859678
20
-146.68406031446682
30
0
10
299.21571498854757
20
-145.99372840610474
30
0
10
299.76117134094233
20
-145.33631896972656
30
0
10
300.2613076365883
20
-144.73353137950173
30
0
10
300.79444626708437
20
-144.1584227114873
30
0
10
301.33330917358398
20
-143.58920288085938
30
0
10
302.677640968302
20
-142.16913794919071
30
0
10
304.05759957219561
20
-140.78572402556287
30
0
10
305.47942352294916
20
-139.44308853149414
30
0
10
305.87545049019377
20
-139.06911827832101
30
0
10
306.27472543157501
20
-138.69831167466901
30
0
10
306.69345092773438
20
-138.35064697265625
30
0
10
307.1501195517211
20
-137.97147837047373
30
0
10
307.62992349667354
20
-137.61983573494302
30
0
10
308.12076377868652
20
-137.28511047363281
30
0
10
308.6437996451204
20
-136.92842964795017
30
0
10
309.1793671398276
20
-136.59095829765118
30
0
10
309.72621726989746
20
-136.27270889282227
30
0
10
310.29627808736643
20
-135.9409516052221
30
0
10
310.87859963390241
20
-135.63008261702811
30
0
10
311.47027778625488
20
-135.33837127685547
30
0
10
312.07423672446436
20
-135.04060521844377
30
0
10
312.68794470807245
20
-134.76280032799752
30
0
10
313.31000423431396
20
-134.50510406494141
30
0
10
313.93206287735984
20
-134.2474081677606
30
0
10
314.56247303932412
20
-134.00982084086976
30
0
10
315.20009326934814
20
-133.79343032836914
30
0
10
315.82474960108107
20
-133.58143940117512
30
0
10
316.4563257955852
20
-133.38979211644809
30
0
10
317.09400749206543
20
-133.22086715698242
30
0
10
317.70572431195376
20
-133.05882041865755
30
0
10
318.32305955334215
20
-132.91768327978579
30
0
10
318.94510936737061
20
-132.80151748657227
30
0
10
319.52886945508004
20
-132.69250217605236
30
0
10
320.11678157581616
20
-132.60547864714414
30
0
10
320.70782089233398
20
-132.54570388793948
30
0
10
321.24975100393658
20
-132.49089578800178
30
0
10
321.79431022636732
20
-132.45899640260649
30
0
10
322.33873653411865
20
-132.45973205566406
30
0
10
322.81417628382371
20
-132.46037449101408
30
0
10
323.28951466906688
20
-132.4859053218911
30
0
10
323.76345920562744
20
-132.52534866333008
30
0
10
324.33423553604649
20
-132.57285068930426
30
0
10
324.90299027918496
20
-132.64053091305937
30
0
10
325.46995258331299
20
-132.72060012817383
30
0
10
326.12100628374208
20
-132.81254514534902
30
0
10
326.7696964077918
20
-132.92082674478493
30
0
10
327.41619396209717
20
-133.04066848754883
30
0
10
328.1314874677787
20
-133.17326298808129
30
0
10
328.84409693825273
20
-133.32000884310352
30
0
10
329.55426216125488
20
-133.47767639160156
30
0
10
330.3161248761233
20
-133.64682157451773
30
0
10
331.07517452569755
20
-133.82853644901439
30
0
10
331.83150959014887
20
-134.02086257934573
30
0
10
332.62125032966759
20
-134.22168333662054
30
0
10
333.40803139381586
20
-134.43407340232383
30
0
10
334.19186449050903
20
-134.656852722168
30
0
10
334.99016658631808
20
-134.88374438913741
30
0
10
335.78541087541896
20
-135.12141240675834
30
0
10
336.57720518112177
20
-135.369987487793
30
0
10
337.36443020422081
20
-135.61712809299803
30
0
10
338.14824494732397
20
-135.87505023999103
30
0
10
338.92879772186279
20
-136.14270401000977
30
0
10
339.68618147101438
20
-136.4024130552196
30
0
10
340.440494026576
20
-136.67128457323258
30
0
10
341.18873786926264
20
-136.95597457885742
30
0
10
341.89629913689265
20
-137.22518577682496
30
0
10
342.5984336723314
20
-137.50854209875999
30
0
10
343.30137920379633
20
-137.7897834777832
30
0
10
347.08874095511669
20
-139.30506850930078
30
0
10
350.89964500998116
20
-140.75895912407753
30
0
10
354.60693168640137
20
-142.47269630432129
30
0
10
354.75287850172776
20
-142.54016194849549
30
0
10
354.89866473037949
20
-142.60803030403429
30
0
10
355.0384731292724
20
-142.68681716918945
30
0
10
355.18672343214848
20
-142.77036133902757
30
0
10
355.32825220416242
20
-142.8661823889903
30
0
10
355.46458053588867
20
-142.96856307983401
30
0
10
355.6071801581333
20
-143.07565342308541
30
0
10
355.74408988050834
20
-143.18992079322842
30
0
10
355.87476348876953
20
-143.31099319458008
30
0
10
356.00945829272484
20
-143.43579133539413
30
0
10
356.13752727151478
20
-143.56781977158286
30
0
10
356.25891876220703
20
-143.7056770324707
30
0
10
356.38217337937999
20
-143.84565013782063
30
0
10
356.49854396222031
20
-143.99163236348051
30
0
10
356.60759162902832
20
-144.14289665222168
30
0
10
356.71663955748988
20
-144.29416130391286
30
0
10
356.81836453477729
20
-144.45070804403335
30
0
10
356.91219520568848
20
-144.61188697814941
30
0
10
357.00460738199752
20
-144.7706292735225
30
0
10
357.08936213369179
20
-144.93386476622436
30
0
10
357.16522598266602
20
-145.10109710693359
30
0
10
357.23882480531751
20
-145.26333648117938
30
0
10
357.30405570166772
20
-145.42933760275452
30
0
10
357.36045837402344
20
-145.59848213195801
30
0
10
357.41438065607997
20
-145.76018828223599
30
0
10
357.46023410919184
20
-145.92476744734367
30
0
10
357.49308204650879
20
-146.091796875
30
0
10
357.52405941248099
20
-146.24931458025841
30
0
10
357.54347032145489
20
-146.40901142680195
30
0
10
357.55982971191406
20
-146.56889152526855
30
0
10
357.60583104618036
20
-147.01846193380348
30
0
10
357.62770430788487
20
-147.46948129821882
30
0
10
357.65608787536621
20
-147.92008590698242
30
0
10
357.71752814207207
20
-148.89548363876926
30
0
10
357.80947359011685
20
-149.8689379600925
30
0
10
357.90922355651855
20
-150.84140396118164
30
0
10
358.02085213727071
20
-151.92967499973153
30
0
10
358.14225469691053
20
-153.01670831666166
30
0
10
358.27549934387207
20
-154.10234832763672
30
0
10
358.41971192974233
20
-155.27735202855217
30
0
10
358.57779638677903
20
-156.45072360497986
30
0
10
358.74589538574219
20
-157.62261962890625
30
0
10
358.92270407123249
20
-158.85523491394548
30
0
10
359.11059194710765
20
-160.08621778012775
30
0
10
359.30882835388184
20
-161.31553745269775
30
0
10
359.51201062371206
20
-162.57552781210879
30
0
10
359.72606424364159
20
-163.83377095153105
30
0
10
359.95043754577637
20
-165.09017276763916
30
0
10
360.17481094242657
20
-166.34657511299599
30
0
10
360.40950402997612
20
-167.60113613348747
30
0
10
360.6549243927002
20
-168.85358142852783
30
0
10
360.89437067128313
20
-170.07553938546897
30
0
10
361.14402832938015
20
-171.29548336633729
30
0
10
361.40494155883789
20
-172.51309156417847
30
0
10
361.65300200948525
20
-173.67071948092331
30
0
10
361.9112364289407
20
-174.82623607138376
30
0
10
362.1820182800293
20
-175.97859764099124
30
0
10
362.43220608730621
20
-177.0433174999157
30
0
10
362.69310533839865
20
-178.10534399261269
30
0
10
362.96702575683588
20
-179.16476726531982
30
0
10
363.21179785688889
20
-180.111455580068
30
0
10
363.46696736133129
20
-181.05606522320159
30
0
10
363.74063491821289
20
-181.99314308166507
30
0
10
364.18796248140882
20
-183.52485827555839
30
0
10
364.6847132256089
20
-185.03645001276578
30
0
10
365.07580947875977
20
-186.59639930725098
30
0
10
365.13363569887412
20
-186.82704833685261
30
0
10
365.18915214087508
20
-187.05875454089423
30
0
10
365.22982406616211
20
-187.28813552856448
30
0
10
365.27342528969081
20
-187.53403713381346
30
0
10
365.29996671249353
20
-187.77726652489034
30
0
10
365.31021881103516
20
-188.0435848236084
30
0
10
365.32102236973378
20
-188.3242283778084
30
0
10
365.31373706846983
20
-188.63051154788923
30
0
10
365.31501770019531
20
-188.84415054321292
30
0
0
ENDSEC
0
SECTION
2
OBJECTS
0
DICTIONARY
5
C
100
AcDbDictionary
3
ACAD_GROUP
350
D
3
ACAD_MLINESTYLE
350
17
0
DICTIONARY
5
D
100
AcDbDictionary
0
DICTIONARY
5
1A
330
C
100
AcDbDictionary
0
DICTIONARY
5
17
100
AcDbDictionary
0
ENDSEC
0
EOF
