0
SECTION
2
HEADER
9
$INSUNITS
70
4
9
$ACADVER
1
AC1014
9
$HANDSEED
5
FFFF
0
ENDSEC
0
SECTION
2
TABLES
0
TABLE
2
VPORT
5
8
100
AcDbSymbolTable
0
ENDTAB
0
TABLE
2
LTYPE
5
5
100
AcDbSymbolTable
0
LTYPE
5
14
100
AcDbSymbolTableRecord
100
AcDbLinetypeTableRecord
2
BYBLOCK
70
0
0
LTYPE
5
15
100
AcDbSymbolTableRecord
100
AcDbLinetypeTableRecord
2
BYLAYER
70
0
0
LTYPE
5
16
100
AcDbSymbolTableRecord
100
AcDbLinetypeTableRecord
2
DASHED
70
0
3
Dashed __ __ __ __ __ __ __ __ __ __ __ __ __ _
72
65
73
2
40
0.75
49
0.5
74
0
49
-0.25
74
0
0
ENDTAB
0
TABLE
2
LAYER
5
2
100
AcDbSymbolTable
70
3
0
LAYER
5
50
100
AcDbSymbolTableRecord
100
AcDbLayerTableRecord
2
1
70
0
62
7
6
DASHED
0
LAYER
5
51
100
AcDbSymbolTableRecord
100
AcDbLayerTableRecord
2
0
70
0
62
7
6
CONTINUOUS
0
ENDTAB
0
TABLE
2
STYLE
5
3
100
AcDbSymbolTable
70
1
0
STYLE
5
11
100
AcDbSymbolTableRecord
100
AcDbTextStyleTableRecord
2
STANDARD
70
0
0
ENDTAB
0
TABLE
2
VIEW
5
6
100
AcDbSymbolTable
70
0
0
ENDTAB
0
TABLE
2
UCS
5
7
100
AcDbSymbolTable
70
0
0
ENDTAB
0
TABLE
2
APPID
5
9
100
AcDbSymbolTable
70
2
0
APPID
5
12
100
AcDbSymbolTableRecord
100
AcDbRegAppTableRecord
2
ACAD
70
0
0
ENDTAB
0
TABLE
2
DIMSTYLE
5
A
100
AcDbSymbolTable
70
1
0
ENDTAB
0
TABLE
2
BLOCK_RECORD
5
1
100
AcDbSymbolTable
70
1
0
BLOCK_RECORD
5
1F
100
AcDbSymbolTableRecord
100
AcDbBlockTableRecord
2
*MODEL_SPACE
0
BLOCK_RECORD
5
1B
100
AcDbSymbolTableRecord
100
AcDbBlockTableRecord
2
*PAPER_SPACE
0
ENDTAB
0
ENDSEC
0
SECTION
2
BLOCKS
0
BLOCK
5
20
100
AcDbEntity
100
AcDbBlockBegin
2
*MODEL_SPACE
0
ENDBLK
5
21
100
AcDbEntity
100
AcDbBlockEnd
0
BLOCK
5
1C
100
AcDbEntity
100
AcDbBlockBegin
2
*PAPER_SPACE
0
ENDBLK
5
1D
100
AcDbEntity
100
AcDbBlockEnd
0
ENDSEC
0
SECTION
2
ENTITIES
0
SPLINE
5
100
100
AcDbEntity
8
0
100
AcDbSpline
70
0
71
3
72
95
73
91
74
0
42
0.000000001
43
0.0000000001
44
0.0000000001
40
0
40
0
40
0
40
0
40
0.73282572601522511
40
1.2391870838628116
40
1.9323064114943995
40
2.8191596440899045
40
3.8890719360337869
40
5.1219425003840717
40
6.4914502627779447
40
7.9667971952701544
40
9.1078458103448732
40
10.437079965089897
40
11.921827221136736
40
13.525570910759967
40
15.208853105569828
40
16.9302569591785
40
18.647422051107519
40
20.318090992495872
40
21.901159476108329
40
23.35767759270928
40
25.321127483639515
40
26.895089574699103
40
28.565628228065076
40
30.314124515542492
40
32.117149076298134
40
33.948188727695111
40
35.779228661595376
40
37.582253262403547
40
39.33075054143611
40
41.001288515410693
40
42.575250387480665
40
50.560468227501971
40
51.562694992599674
40
52.500977989933077
40
53.381220142724892
40
54.216771137269625
40
55.027836278589497
40
55.83890206517237
40
56.674452016805766
40
57.554694730544952
40
58.492978165732325
40
59.495205798411071
40
60.211805756111886
40
61.063764155326808
40
62.042602415837202
40
63.132394182888056
40
64.312198646918489
40
65.557589685023615
40
66.841823335442243
40
68.136849548060496
40
69.414263132249147
40
70.64624269419761
40
73.233884677667973
40
74.425805720838085
40
75.612594944711716
40
76.794997101009841
40
77.974206438531951
40
79.151732665530872
40
80.329259351827048
40
81.508467830196693
40
82.690871433128237
40
83.877659700868108
40
85.069582098410947
40
90.058124865856016
40
91.56967537876325
40
93.244043148497141
40
95.045364897663077
40
96.933577504004631
40
98.865905934421534
40
100.79823305389407
40
102.68644618787575
40
104.48776788437993
40
106.16213515320904
40
107.67368508467996
40
110.88641072402322
40
111.97291493074484
40
113.17645444030839
40
114.47124961020526
40
115.82850308976255
40
117.21746325585468
40
118.60642703082631
40
119.96367794360575
40
121.25847267832724
40
122.4620134452897
40
123.54852074476244
40
129.59687856478129
40
130.93208710963827
40
132.07206015975285
40
133.01464959898101
40
134.44051435636351
40
134.44051435636351
40
134.44051435636351
40
134.44051435636351
10
272.78285980224609
20
271.58305358886719
30
0
10
272.50624972944962
20
271.52730153347756
30
0
10
272.15695597724198
20
271.85631634661672
30
0
10
272.0798719138142
20
272.50882414221104
30
0
10
272.12922761366815
20
273.20291701162012
30
0
10
272.31120278580181
20
274.06997864242942
30
0
10
272.61526279429495
20
275.08926660162126
30
0
10
273.03924574480743
20
276.23837514714302
30
0
10
273.57029129790828
20
277.49012745346874
30
0
10
274.14705563294388
20
278.6873555365475
30
0
10
274.73220330058928
20
279.86518742677856
30
0
10
275.30315365297758
20
281.05352822811903
30
0
10
275.93553664943192
20
282.38339667548951
30
0
10
276.61103975215667
20
283.82343389713975
30
0
10
277.31384854398442
20
285.33777288361057
30
0
10
278.02632371184905
20
286.88929203621484
30
0
10
278.73123925345641
20
288.43964402745877
30
0
10
279.4103445143719
20
289.95105668582994
30
0
10
280.04999557247208
20
291.38494125502933
30
0
10
280.71296863865575
20
292.91525853638814
30
0
10
281.40238207551511
20
294.43032282336446
30
0
10
282.00727520973624
20
296.0614944546881
30
0
10
282.35896567150445
20
297.69332677577739
30
0
10
282.54790258892791
20
299.42634244438955
30
0
10
282.55790406729892
20
301.22364592971627
30
0
10
282.39221021500833
20
303.04055743030881
30
0
10
282.05363417157616
20
304.83328025201979
30
0
10
281.55165211636427
20
306.55917764015368
30
0
10
280.89447109988276
20
308.17360530430335
30
0
10
280.11105064047115
20
309.64823904351454
30
0
10
277.87667662614359
20
312.66004352947044
30
0
10
275.47058637600173
20
315.2333592084388
30
0
10
273.48314284701132
20
317.88834295713252
30
0
10
273.07288385154311
20
318.74128247858391
30
0
10
272.8367921190287
20
319.59938455722926
30
0
10
272.79063658422996
20
320.4476288967154
30
0
10
272.93671916270017
20
321.26157374697789
30
0
10
273.27243599452015
20
322.01724959077438
30
0
10
273.78645689112744
20
322.69375378058817
30
0
10
274.46359191280146
20
323.27076728677474
30
0
10
275.28055665840844
20
323.75023979354984
30
0
10
276.12395775914871
20
324.02711535788484
30
0
10
276.92807279636321
20
324.32834361150123
30
0
10
277.65853464915483
20
324.7688604304069
30
0
10
278.44596140355981
20
325.34183695125319
30
0
10
279.26669981143925
20
326.0501301880264
30
0
10
280.10261432420509
20
326.87199669540257
30
0
10
280.93272561495996
20
327.78929804574028
30
0
10
281.73701444806198
20
328.77921519156166
30
0
10
282.49513122754416
20
329.81809154779734
30
0
10
283.19081381777255
20
330.87917715719993
30
0
10
284.03568663107905
20
332.35432525343538
30
0
10
284.77604695224494
20
333.85175864826283
30
0
10
285.64621733006209
20
335.26585161290132
30
0
10
286.44771657019044
20
336.15025628928493
30
0
10
287.36970513715704
20
336.89820466706306
30
0
10
288.39871902909005
20
337.48601425480757
30
0
10
289.50691708027455
20
337.90051872265855
30
0
10
290.66743394091878
20
338.13087854312153
30
0
10
291.85183307419095
20
338.17228232977607
30
0
10
293.02920785868116
20
338.02082525843133
30
0
10
294.1767473112082
20
337.69135410881609
30
0
10
296.37270954844217
20
336.5775931615247
30
0
10
298.531966567979
20
335.19333473779363
30
0
10
300.93589529879671
20
333.90664975500727
30
0
10
302.45565544058229
20
333.2299978924064
30
0
10
304.12240330304388
20
332.58142903789701
30
0
10
305.89912768083553
20
331.98357249687081
30
0
10
307.74136977153705
20
331.44922369989274
30
0
10
309.60431589189591
20
330.9923235278718
30
0
10
311.4422203580724
20
330.62296537100343
30
0
10
313.21014768707118
20
330.35319654790948
30
0
10
314.86478846008868
20
330.1786477195277
30
0
10
316.99788009891091
20
330.12043473452934
30
0
10
318.93463846721329
20
330.11874814819862
30
0
10
320.76906529522421
20
330.1676679098137
30
0
10
321.95842688782272
20
330.29334448596268
30
0
10
323.22921760845065
20
330.48719242761985
30
0
10
324.55030744087185
20
330.75270688162664
30
0
10
325.88940142984734
20
331.08111860255781
30
0
10
327.21359548162349
20
331.46523226190362
30
0
10
328.49076239945902
20
331.89488530463132
30
0
10
329.68863924391155
20
332.3613890747975
30
0
10
330.78166890417037
20
332.84672620338171
30
0
10
333.22869681343388
20
334.1677908896724
30
0
10
335.62311479692414
20
335.6646375790823
30
0
10
338.12838190054197
20
337.01149126603076
30
0
10
339.20157621590585
20
337.40845094670533
30
0
10
340.35538732969724
20
337.62982321877274
30
0
10
341.17266311611445
20
337.49071166274979
30
0
10
341.54571533203125
20
337.16262817382812
30
0
0
SPLINE
5
101
100
AcDbEntity
8
0
100
AcDbSpline
70
0
71
3
72
86
73
82
74
0
42
0.000000001
43
0.0000000001
44
0.0000000001
40
0
40
0
40
0
40
0
40
1.4258671839129908
40
2.368453796413859
40
3.5084283360724609
40
4.8436363597429013
40
5.6484164633251694
40
5.9700872956246887
40
6.3134337472072479
40
6.6741944370919439
40
7.0470995360217756
40
7.4262292787026487
40
7.8053609522395897
40
8.1782637681546362
40
8.5390248780455398
40
8.8823724778078912
40
9.2040430107865454
40
9.9147178194659151
40
10.753990677192631
40
11.706328296545777
40
12.751765280048733
40
13.867177950883573
40
15.027249340359653
40
16.205319826179984
40
17.374200848772887
40
18.506975549574161
40
19.577793838411118
40
20.313531392003298
40
21.134519158576001
40
22.037741627847666
40
23.013858143109957
40
24.049033848958587
40
25.12631625170593
40
26.226742526472975
40
27.330311505981463
40
28.41688337774648
40
29.467070913587627
40
31.833490106699184
40
33.360941767697874
40
35.069114462028026
40
36.917157930923267
40
38.860521447500282
40
40.852166249934108
40
42.843813896745907
40
44.787175576721637
40
46.635220702917714
40
48.343393206703752
40
49.870844469671397
40
51.02014199928967
40
52.294726821384373
40
53.552906000505153
40
54.796959214325696
40
56.030646377618659
40
57.25885016086783
40
58.487053594487961
40
59.720740986151078
40
60.964793908300287
40
62.222972624267577
40
63.497558194249386
40
64.201978983942112
40
65.212764966890745
40
66.208735840401204
40
67.19192799107617
40
68.165731197632169
40
69.134561752671715
40
70.103392499148299
40
71.077195638220473
40
72.060388063668029
40
73.056358772093247
40
74.067144630927686
40
79.542758723739482
40
82.394496650849078
40
85.566318765311138
40
88.986922352719091
40
92.57748230794212
40
96.254244272889267
40
99.9310046532092
40
103.52156648971095
40
106.94216899583513
40
110.11399014945634
40
113.4597496518535
40
113.4597496518535
40
113.4597496518535
40
113.4597496518535
10
341.54571533203125
20
337.16262817382812
30
0
10
341.91712316035319
20
336.83252407749131
30
0
10
342.15494052154918
20
336.03861783676814
30
0
10
342.07744200423474
20
334.8659873438117
30
0
10
341.81137358165762
20
333.75383857955819
30
0
10
341.42891876504711
20
332.72738852337159
30
0
10
341.08893684013509
20
331.98059379553797
30
0
10
340.9205081104202
20
331.51960354151458
30
0
10
340.84946645021608
20
331.18411718269164
30
0
10
340.80928754901316
20
330.82692401028851
30
0
10
340.80384419038558
20
330.45544612534093
30
0
10
340.83240700584361
20
330.07897465850692
30
0
10
340.89460229882144
20
329.7065921510096
30
0
10
340.98855941660065
20
329.34712259576327
30
0
10
341.11310086937419
20
329.01001960168009
30
0
10
341.26151274158769
20
328.70068472282634
30
0
10
341.52105640709584
20
328.321896656185
30
0
10
341.87375166735296
20
327.80684623564895
30
0
10
342.25749719023838
20
327.06428729616078
30
0
10
342.64479576611842
20
326.20146491931484
30
0
10
343.01614767240767
20
325.23181929003226
30
0
10
343.36531872071885
20
324.18106812284492
30
0
10
343.68291468761362
20
323.07419384670754
30
0
10
343.96051959974488
20
321.93840494024903
30
0
10
344.19432075045989
20
320.80179152021793
30
0
10
344.36760201732744
20
319.69114777902689
30
0
10
344.50316257281889
20
318.71978955901886
30
0
10
344.50918777353678
20
317.84029393494711
30
0
10
344.36280436959566
20
317.02961203594299
30
0
10
344.09677185100628
20
316.16810849094281
30
0
10
343.7089644013497
20
315.27535659813628
30
0
10
343.21127655407747
20
314.37261514621832
30
0
10
342.61480411135778
20
313.4816550616697
30
0
10
341.93442970255217
20
312.62370355427061
30
0
10
341.18562379804666
20
311.82092365066649
30
0
10
340.39011621462021
20
311.08786397457425
30
0
10
339.1890670322158
20
310.18525347245168
30
0
10
337.81945401474491
20
309.26847628555447
30
0
10
336.30812491162595
20
308.17107545922136
30
0
10
334.96846036728516
20
307.13304860175987
30
0
10
333.54560639581734
20
305.97693481411159
30
0
10
332.07562327280897
20
304.7296815124015
30
0
10
330.59444051699904
20
303.42225049384757
30
0
10
329.13856777802607
20
302.08668406997515
30
0
10
327.74384145195791
20
300.75583164389337
30
0
10
326.44424199971837
20
299.46264758914663
30
0
10
325.27236337817948
20
298.23851437020147
30
0
10
324.2902237580094
20
297.15531803885801
30
0
10
323.44500860083963
20
296.14551798169691
30
0
10
322.58012622194701
20
295.26859125541142
30
0
10
321.54496540767667
20
294.54048963858776
30
0
10
320.42045474307997
20
293.99323932244488
30
0
10
319.22855853665919
20
293.64608110736242
30
0
10
318.00046839935169
20
293.50649837385345
30
0
10
316.76652711024371
20
293.57849350724052
30
0
10
315.55751731652884
20
293.85987596159549
30
0
10
314.40419456085317
20
294.34418050424819
30
0
10
313.3325217956708
20
295.0161214373091
30
0
10
312.52499867550443
20
295.73872816035657
30
0
10
311.84833176032748
20
296.46997438394345
30
0
10
311.17403032331345
20
297.0770401067694
30
0
10
310.32490041215272
20
297.60827447373578
30
0
10
309.41287505378858
20
297.99007474325288
30
0
10
308.45761131828391
20
298.20950551766703
30
0
10
307.48366537335363
20
298.26170962209204
30
0
10
306.51541133836042
20
298.14494248263958
30
0
10
305.5765745318198
20
297.86278212898503
30
0
10
304.69280625851616
20
297.42056387067089
30
0
10
303.87736681125534
20
296.83691346096521
30
0
10
302.16409771179565
20
295.0156188925659
30
0
10
300.2504686601265
20
292.56025740735441
30
0
10
297.68138931104852
20
289.71230362639903
30
0
10
295.44774246359339
20
287.4923567806926
30
0
10
292.9451386831696
20
285.19806038499661
30
0
10
290.23037379250513
20
282.88974992877519
30
0
10
287.37076758629269
20
280.62374489806632
30
0
10
284.43705157064284
20
278.45350697680533
30
0
10
281.4978732637598
20
276.44138212409172
30
0
10
278.63768034797721
20
274.60397238332132
30
0
10
275.74134532974603
20
273.01679472433466
30
0
10
273.86903796487212
20
271.85712007979225
30
0
10
272.78285980224609
20
271.58305358886719
30
0
0
SPLINE
5
102
100
AcDbEntity
8
0
100
AcDbSpline
70
0
71
3
72
95
73
91
74
0
42
0.000000001
43
0.0000000001
44
0.0000000001
40
0
40
0
40
0
40
0
40
0.73282572601522511
40
1.2391870838628116
40
1.9323064114943995
40
2.8191596440899045
40
3.8890719360337869
40
5.1219425003840717
40
6.4914502627779447
40
7.9667971952701544
40
9.1078458103448732
40
10.437079965089897
40
11.921827221136736
40
13.525570910759967
40
15.208853105569828
40
16.9302569591785
40
18.647422051107519
40
20.318090992495872
40
21.901159476108329
40
23.35767759270928
40
25.321127483639515
40
26.895089574699103
40
28.565628228065076
40
30.314124515542492
40
32.117149076298134
40
33.948188727695111
40
35.779228661595376
40
37.582253262403547
40
39.33075054143611
40
41.001288515410693
40
42.575250387480665
40
50.560468227501971
40
51.562694992599674
40
52.500977989933077
40
53.381220142724892
40
54.216771137269625
40
55.027836278589497
40
55.83890206517237
40
56.674452016805766
40
57.554694730544952
40
58.492978165732325
40
59.495205798411071
40
60.211805756111886
40
61.063764155326808
40
62.042602415837202
40
63.132394182888056
40
64.312198646918489
40
65.557589685023615
40
66.841823335442243
40
68.136849548060496
40
69.414263132249147
40
70.64624269419761
40
73.233884677667973
40
74.425805720838085
40
75.612594944711716
40
76.794997101009841
40
77.974206438531951
40
79.151732665530872
40
80.329259351827048
40
81.508467830196693
40
82.690871433128237
40
83.877659700868108
40
85.069582098410947
40
90.058124865856016
40
91.56967537876325
40
93.244043148497141
40
95.045364897663077
40
96.933577504004631
40
98.865905934421534
40
100.79823305389407
40
102.68644618787575
40
104.48776788437993
40
106.16213515320904
40
107.67368508467996
40
110.88641072402322
40
111.97291493074484
40
113.17645444030839
40
114.47124961020526
40
115.82850308976255
40
117.21746325585468
40
118.60642703082631
40
119.96367794360575
40
121.25847267832724
40
122.4620134452897
40
123.54852074476244
40
129.59687856478129
40
130.93208710963827
40
132.07206015975285
40
133.01464959898101
40
134.44051435636351
40
134.44051435636351
40
134.44051435636351
40
134.44051435636351
10
272.78285980224609
20
271.58305358886719
30
0
10
272.50624972944962
20
271.52730153347756
30
0
10
272.15695597724198
20
271.85631634661672
30
0
10
272.0798719138142
20
272.50882414221104
30
0
10
272.12922761366815
20
273.20291701162012
30
0
10
272.31120278580181
20
274.06997864242942
30
0
10
272.61526279429495
20
275.08926660162126
30
0
10
273.03924574480743
20
276.23837514714302
30
0
10
273.57029129790828
20
277.49012745346874
30
0
10
274.14705563294388
20
278.6873555365475
30
0
10
274.73220330058928
20
279.86518742677856
30
0
10
275.30315365297758
20
281.05352822811903
30
0
10
275.93553664943192
20
282.38339667548951
30
0
10
276.61103975215667
20
283.82343389713975
30
0
10
277.31384854398442
20
285.33777288361057
30
0
10
278.02632371184905
20
286.88929203621484
30
0
10
278.73123925345641
20
288.43964402745877
30
0
10
279.4103445143719
20
289.95105668582994
30
0
10
280.04999557247208
20
291.38494125502933
30
0
10
280.71296863865575
20
292.91525853638814
30
0
10
281.40238207551511
20
294.43032282336446
30
0
10
282.00727520973624
20
296.0614944546881
30
0
10
282.35896567150445
20
297.69332677577739
30
0
10
282.54790258892791
20
299.42634244438955
30
0
10
282.55790406729892
20
301.22364592971627
30
0
10
282.39221021500833
20
303.04055743030881
30
0
10
282.05363417157616
20
304.83328025201979
30
0
10
281.55165211636427
20
306.55917764015368
30
0
10
280.89447109988276
20
308.17360530430335
30
0
10
280.11105064047115
20
309.64823904351454
30
0
10
277.87667662614359
20
312.66004352947044
30
0
10
275.47058637600173
20
315.2333592084388
30
0
10
273.48314284701132
20
317.88834295713252
30
0
10
273.07288385154311
20
318.74128247858391
30
0
10
272.8367921190287
20
319.59938455722926
30
0
10
272.79063658422996
20
320.4476288967154
30
0
10
272.93671916270017
20
321.26157374697789
30
0
10
273.27243599452015
20
322.01724959077438
30
0
10
273.78645689112744
20
322.69375378058817
30
0
10
274.46359191280146
20
323.27076728677474
30
0
10
275.28055665840844
20
323.75023979354984
30
0
10
276.12395775914871
20
324.02711535788484
30
0
10
276.92807279636321
20
324.32834361150123
30
0
10
277.65853464915483
20
324.7688604304069
30
0
10
278.44596140355981
20
325.34183695125319
30
0
10
279.26669981143925
20
326.0501301880264
30
0
10
280.10261432420509
20
326.87199669540257
30
0
10
280.93272561495996
20
327.78929804574028
30
0
10
281.73701444806198
20
328.77921519156166
30
0
10
282.49513122754416
20
329.81809154779734
30
0
10
283.19081381777255
20
330.87917715719993
30
0
10
284.03568663107905
20
332.35432525343538
30
0
10
284.77604695224494
20
333.85175864826283
30
0
10
285.64621733006209
20
335.26585161290132
30
0
10
286.44771657019044
20
336.15025628928493
30
0
10
287.36970513715704
20
336.89820466706306
30
0
10
288.39871902909005
20
337.48601425480757
30
0
10
289.50691708027455
20
337.90051872265855
30
0
10
290.66743394091878
20
338.13087854312153
30
0
10
291.85183307419095
20
338.17228232977607
30
0
10
293.02920785868116
20
338.02082525843133
30
0
10
294.1767473112082
20
337.69135410881609
30
0
10
296.37270954844217
20
336.5775931615247
30
0
10
298.531966567979
20
335.19333473779363
30
0
10
300.93589529879671
20
333.90664975500727
30
0
10
302.45565544058229
20
333.2299978924064
30
0
10
304.12240330304388
20
332.58142903789701
30
0
10
305.89912768083553
20
331.98357249687081
30
0
10
307.74136977153705
20
331.44922369989274
30
0
10
309.60431589189591
20
330.9923235278718
30
0
10
311.4422203580724
20
330.62296537100343
30
0
10
313.21014768707118
20
330.35319654790948
30
0
10
314.86478846008868
20
330.1786477195277
30
0
10
316.99788009891091
20
330.12043473452934
30
0
10
318.93463846721329
20
330.11874814819862
30
0
10
320.76906529522421
20
330.1676679098137
30
0
10
321.95842688782272
20
330.29334448596268
30
0
10
323.22921760845065
20
330.48719242761985
30
0
10
324.55030744087185
20
330.75270688162664
30
0
10
325.88940142984734
20
331.08111860255781
30
0
10
327.21359548162349
20
331.46523226190362
30
0
10
328.49076239945902
20
331.89488530463132
30
0
10
329.68863924391155
20
332.3613890747975
30
0
10
330.78166890417037
20
332.84672620338171
30
0
10
333.22869681343388
20
334.1677908896724
30
0
10
335.62311479692414
20
335.6646375790823
30
0
10
338.12838190054197
20
337.01149126603076
30
0
10
339.20157621590585
20
337.40845094670533
30
0
10
340.35538732969724
20
337.62982321877274
30
0
10
341.17266311611445
20
337.49071166274979
30
0
10
341.54571533203125
20
337.16262817382812
30
0
0
SPLINE
5
103
100
AcDbEntity
8
0
100
AcDbSpline
70
0
71
3
72
86
73
82
74
0
42
0.000000001
43
0.0000000001
44
0.0000000001
40
0
40
0
40
0
40
0
40
1.4258671839129908
40
2.368453796413859
40
3.5084283360724609
40
4.8436363597429013
40
5.6484164633251694
40
5.9700872956246887
40
6.3134337472072479
40
6.6741944370919439
40
7.0470995360217756
40
7.4262292787026487
40
7.8053609522395897
40
8.1782637681546362
40
8.5390248780455398
40
8.8823724778078912
40
9.2040430107865454
40
9.9147178194659151
40
10.753990677192631
40
11.706328296545777
40
12.751765280048733
40
13.867177950883573
40
15.027249340359653
40
16.205319826179984
40
17.374200848772887
40
18.506975549574161
40
19.577793838411118
40
20.313531392003298
40
21.134519158576001
40
22.037741627847666
40
23.013858143109957
40
24.049033848958587
40
25.12631625170593
40
26.226742526472975
40
27.330311505981463
40
28.41688337774648
40
29.467070913587627
40
31.833490106699184
40
33.360941767697874
40
35.069114462028026
40
36.917157930923267
40
38.860521447500282
40
40.852166249934108
40
42.843813896745907
40
44.787175576721637
40
46.635220702917714
40
48.343393206703752
40
49.870844469671397
40
51.02014199928967
40
52.294726821384373
40
53.552906000505153
40
54.796959214325696
40
56.030646377618659
40
57.25885016086783
40
58.487053594487961
40
59.720740986151078
40
60.964793908300287
40
62.222972624267577
40
63.497558194249386
40
64.201978983942112
40
65.212764966890745
40
66.208735840401204
40
67.19192799107617
40
68.165731197632169
40
69.134561752671715
40
70.103392499148299
40
71.077195638220473
40
72.060388063668029
40
73.056358772093247
40
74.067144630927686
40
79.542758723739482
40
82.394496650849078
40
85.566318765311138
40
88.986922352719091
40
92.57748230794212
40
96.254244272889267
40
99.9310046532092
40
103.52156648971095
40
106.94216899583513
40
110.11399014945634
40
113.4597496518535
40
113.4597496518535
40
113.4597496518535
40
113.4597496518535
10
341.54571533203125
20
337.16262817382812
30
0
10
341.91712316035319
20
336.83252407749131
30
0
10
342.15494052154918
20
336.03861783676814
30
0
10
342.07744200423474
20
334.8659873438117
30
0
10
341.81137358165762
20
333.75383857955819
30
0
10
341.42891876504711
20
332.72738852337159
30
0
10
341.08893684013509
20
331.98059379553797
30
0
10
340.9205081104202
20
331.51960354151458
30
0
10
340.84946645021608
20
331.18411718269164
30
0
10
340.80928754901316
20
330.82692401028851
30
0
10
340.80384419038558
20
330.45544612534093
30
0
10
340.83240700584361
20
330.07897465850692
30
0
10
340.89460229882144
20
329.7065921510096
30
0
10
340.98855941660065
20
329.34712259576327
30
0
10
341.11310086937419
20
329.01001960168009
30
0
10
341.26151274158769
20
328.70068472282634
30
0
10
341.52105640709584
20
328.321896656185
30
0
10
341.87375166735296
20
327.80684623564895
30
0
10
342.25749719023838
20
327.06428729616078
30
0
10
342.64479576611842
20
326.20146491931484
30
0
10
343.01614767240767
20
325.23181929003226
30
0
10
343.36531872071885
20
324.18106812284492
30
0
10
343.68291468761362
20
323.07419384670754
30
0
10
343.96051959974488
20
321.93840494024903
30
0
10
344.19432075045989
20
320.80179152021793
30
0
10
344.36760201732744
20
319.69114777902689
30
0
10
344.50316257281889
20
318.71978955901886
30
0
10
344.50918777353678
20
317.84029393494711
30
0
10
344.36280436959566
20
317.02961203594299
30
0
10
344.09677185100628
20
316.16810849094281
30
0
10
343.7089644013497
20
315.27535659813628
30
0
10
343.21127655407747
20
314.37261514621832
30
0
10
342.61480411135778
20
313.4816550616697
30
0
10
341.93442970255217
20
312.62370355427061
30
0
10
341.18562379804666
20
311.82092365066649
30
0
10
340.39011621462021
20
311.08786397457425
30
0
10
339.1890670322158
20
310.18525347245168
30
0
10
337.81945401474491
20
309.26847628555447
30
0
10
336.30812491162595
20
308.17107545922136
30
0
10
334.96846036728516
20
307.13304860175987
30
0
10
333.54560639581734
20
305.97693481411159
30
0
10
332.07562327280897
20
304.7296815124015
30
0
10
330.59444051699904
20
303.42225049384757
30
0
10
329.13856777802607
20
302.08668406997515
30
0
10
327.74384145195791
20
300.75583164389337
30
0
10
326.44424199971837
20
299.46264758914663
30
0
10
325.27236337817948
20
298.23851437020147
30
0
10
324.2902237580094
20
297.15531803885801
30
0
10
323.44500860083963
20
296.14551798169691
30
0
10
322.58012622194701
20
295.26859125541142
30
0
10
321.54496540767667
20
294.54048963858776
30
0
10
320.42045474307997
20
293.99323932244488
30
0
10
319.22855853665919
20
293.64608110736242
30
0
10
318.00046839935169
20
293.50649837385345
30
0
10
316.76652711024371
20
293.57849350724052
30
0
10
315.55751731652884
20
293.85987596159549
30
0
10
314.40419456085317
20
294.34418050424819
30
0
10
313.3325217956708
20
295.0161214373091
30
0
10
312.52499867550443
20
295.73872816035657
30
0
10
311.84833176032748
20
296.46997438394345
30
0
10
311.17403032331345
20
297.0770401067694
30
0
10
310.32490041215272
20
297.60827447373578
30
0
10
309.41287505378858
20
297.99007474325288
30
0
10
308.45761131828391
20
298.20950551766703
30
0
10
307.48366537335363
20
298.26170962209204
30
0
10
306.51541133836042
20
298.14494248263958
30
0
10
305.5765745318198
20
297.86278212898503
30
0
10
304.69280625851616
20
297.42056387067089
30
0
10
303.87736681125534
20
296.83691346096521
30
0
10
302.16409771179565
20
295.0156188925659
30
0
10
300.2504686601265
20
292.56025740735441
30
0
10
297.68138931104852
20
289.71230362639903
30
0
10
295.44774246359339
20
287.4923567806926
30
0
10
292.9451386831696
20
285.19806038499661
30
0
10
290.23037379250513
20
282.88974992877519
30
0
10
287.37076758629269
20
280.62374489806632
30
0
10
284.43705157064284
20
278.45350697680533
30
0
10
281.4978732637598
20
276.44138212409172
30
0
10
278.63768034797721
20
274.60397238332132
30
0
10
275.74134532974603
20
273.01679472433466
30
0
10
273.86903796487212
20
271.85712007979225
30
0
10
272.78285980224609
20
271.58305358886719
30
0
0
ENDSEC
0
SECTION
2
OBJECTS
0
DICTIONARY
5
C
100
AcDbDictionary
3
ACAD_GROUP
350
D
3
ACAD_MLINESTYLE
350
17
0
DICTIONARY
5
D
100
AcDbDictionary
0
DICTIONARY
5
1A
330
C
100
AcDbDictionary
0
DICTIONARY
5
17
100
AcDbDictionary
0
ENDSEC
0
EOF
