0
SECTION
2
HEADER
9
$INSUNITS
70
4
9
$ACADVER
1
AC1014
9
$HANDSEED
5
FFFF
0
ENDSEC
0
SECTION
2
TABLES
0
TABLE
2
VPORT
5
8
100
AcDbSymbolTable
0
ENDTAB
0
TABLE
2
LTYPE
5
5
100
AcDbSymbolTable
0
LTYPE
5
14
100
AcDbSymbolTableRecord
100
AcDbLinetypeTableRecord
2
BYBLOCK
70
0
0
LTYPE
5
15
100
AcDbSymbolTableRecord
100
AcDbLinetypeTableRecord
2
BYLAYER
70
0
0
LTYPE
5
16
100
AcDbSymbolTableRecord
100
AcDbLinetypeTableRecord
2
DASHED
70
0
3
Dashed __ __ __ __ __ __ __ __ __ __ __ __ __ _
72
65
73
2
40
0.75
49
0.5
74
0
49
-0.25
74
0
0
ENDTAB
0
TABLE
2
LAYER
5
2
100
AcDbSymbolTable
70
3
0
LAYER
5
50
100
AcDbSymbolTableRecord
100
AcDbLayerTableRecord
2
1
70
0
62
7
6
DASHED
0
LAYER
5
51
100
AcDbSymbolTableRecord
100
AcDbLayerTableRecord
2
0
70
0
62
7
6
CONTINUOUS
0
ENDTAB
0
TABLE
2
STYLE
5
3
100
AcDbSymbolTable
70
1
0
STYLE
5
11
100
AcDbSymbolTableRecord
100
AcDbTextStyleTableRecord
2
STANDARD
70
0
0
ENDTAB
0
TABLE
2
VIEW
5
6
100
AcDbSymbolTable
70
0
0
ENDTAB
0
TABLE
2
UCS
5
7
100
AcDbSymbolTable
70
0
0
ENDTAB
0
TABLE
2
APPID
5
9
100
AcDbSymbolTable
70
2
0
APPID
5
12
100
AcDbSymbolTableRecord
100
AcDbRegAppTableRecord
2
ACAD
70
0
0
ENDTAB
0
TABLE
2
DIMSTYLE
5
A
100
AcDbSymbolTable
70
1
0
ENDTAB
0
TABLE
2
BLOCK_RECORD
5
1
100
AcDbSymbolTable
70
1
0
BLOCK_RECORD
5
1F
100
AcDbSymbolTableRecord
100
AcDbBlockTableRecord
2
*MODEL_SPACE
0
BLOCK_RECORD
5
1B
100
AcDbSymbolTableRecord
100
AcDbBlockTableRecord
2
*PAPER_SPACE
0
ENDTAB
0
ENDSEC
0
SECTION
2
BLOCKS
0
BLOCK
5
20
100
AcDbEntity
100
AcDbBlockBegin
2
*MODEL_SPACE
0
ENDBLK
5
21
100
AcDbEntity
100
AcDbBlockEnd
0
BLOCK
5
1C
100
AcDbEntity
100
AcDbBlockBegin
2
*PAPER_SPACE
0
ENDBLK
5
1D
100
AcDbEntity
100
AcDbBlockEnd
0
ENDSEC
0
SECTION
2
ENTITIES
0
SPLINE
5
100
100
AcDbEntity
8
0
100
AcDbSpline
70
0
71
3
72
134
73
130
74
0
42
0.000000001
43
0.0000000001
44
0.0000000001
40
0
40
0
40
0
40
0
40
2.1264494880095808
40
3.1303959879660148
40
4.2528988448317158
40
5.5718151930514672
40
7.1208656228952361
40
8.9028464579132507
40
18.582850535322873
40
20.441176027421562
40
22.489381988103748
40
24.68622662154274
40
26.985045047550162
40
29.33570029892503
40
31.686355820174029
40
33.985175011264907
40
36.182019607592693
40
38.23022422312944
40
40.088552599577099
40
47.998798000024308
40
49.082563681141913
40
50.117084002296536
40
51.10778731433156
40
52.065399144550447
40
53.00514908341939
40
53.944897258450425
40
54.902509910948005
40
55.893211865583922
40
56.927733623185219
40
58.011502460700179
40
59.31656440047729
40
60.860427020187728
40
62.61686340962315
40
64.550568200106255
40
66.6198410288427
40
68.778543002414381
40
70.977747383940127
40
73.167300077767194
40
75.29734052026312
40
77.319821130182603
40
85.980249453454462
40
87.256662196646801
40
88.570889649266448
40
89.916444205053423
40
91.284310955637778
40
92.663762105288541
40
94.043213437461461
40
95.41107975707844
40
96.756634254958101
40
98.070861043550707
40
99.347275619289618
40
101.27919682605855
40
102.85552476774299
40
104.50796553280301
40
106.22249166983897
40
107.98075190688441
40
109.76157329106535
40
111.54239717668729
40
113.3006556695223
40
115.01518258391383
40
116.66762164719648
40
118.24395189583507
40
121.4426200578412
40
123.32419705967655
40
124.95687185953423
40
126.34308087512404
40
127.51823116674971
40
128.56550203166546
40
129.61277285464584
40
130.78792555685391
40
132.17413310850981
40
133.80681021346888
40
135.68838275976645
40
147.58048608788269
40
149.34943212141434
40
151.29908638846584
40
153.3902056406188
40
155.57837634220428
40
157.81588205573325
40
160.05338767076228
40
162.24155884684563
40
164.33267769076249
40
166.28233246343711
40
168.05127856998379
40
171.22172866983752
40
172.01959710800909
40
172.88530319724717
40
173.800667140391
40
174.74579476379657
40
175.69981397334536
40
176.64156741211434
40
177.55028990521998
40
178.40631340277574
40
179.191802787325
40
179.89163433737301
40
181.04476939478613
40
182.17595979172975
40
183.28542889886327
40
184.37560833753244
40
185.4509948357551
40
186.51773604305527
40
187.58298629885462
40
188.65407503019182
40
189.73764552820009
40
190.83892778262421
40
191.91576534273634
40
193.11535484697575
40
194.41024073507731
40
195.77018198188077
40
197.16310364611445
40
198.5560259478296
40
199.91596544395722
40
201.21085138699041
40
202.41044280430603
40
203.48727632716904
40
204.88513929477418
40
207.32077466536961
40
210.01104799899457
40
212.90031838813195
40
215.92597104335502
40
219.02091444968568
40
222.1158589576815
40
225.14151269464844
40
228.0307818118593
40
230.72105595544517
40
233.15669264491461
40
243.50089076184634
40
245.28287350316839
40
248.15083845936891
40
248.15083845936891
40
248.15083845936891
40
248.15083845936891
10
328.38699340820312
20
-315.00751495361328
30
0
10
328.4274974814835
20
-315.70444974479932
30
0
10
328.17400547068542
20
-316.81665090876857
30
0
10
327.06933674486044
20
-317.76712860663025
30
0
10
325.97446127328806
20
-318.16852348865984
30
0
10
324.64060679926212
20
-318.29364405997302
30
0
10
323.08877008316654
20
-318.16218933076738
30
0
10
318.8697177664273
20
-317.12960582174316
30
0
10
314.64823764769989
20
-315.75108671518234
30
0
10
310.24689203822408
20
-314.67055945598463
30
0
10
308.23308210627329
20
-314.36552858405429
30
0
10
306.0607964342513
20
-314.15908651362565
30
0
10
303.77921860581046
20
-314.07036699654395
30
0
10
301.44506069349399
20
-314.09763325297013
30
0
10
299.11518207691716
20
-314.24169204047746
30
0
10
296.84629957002142
20
-314.49767753444655
30
0
10
294.69489769551734
20
-314.86264316201988
30
0
10
292.70929801121633
20
-315.31565929087492
30
0
10
288.95779250338848
20
-316.52663898900266
30
0
10
285.62472391795785
20
-317.93611758267309
30
0
10
282.42274165036577
20
-318.9246581285654
30
0
10
281.38497370435471
20
-319.03097985344266
30
0
10
280.38799237307694
20
-318.9603223650102
30
0
10
279.45337139953392
20
-318.70238297797465
30
0
10
278.60695748537017
20
-318.26509878784782
30
0
10
277.87189428912791
20
-317.65907382817909
30
0
10
277.2668512616151
20
-316.90138741161672
30
0
10
276.80997837320996
20
-316.01261205956081
30
0
10
276.49762349685506
20
-315.01692032718904
30
0
10
276.38482535110154
20
-313.87853376863279
30
0
10
276.24778196714749
20
-312.57406954463113
30
0
10
275.87989075351425
20
-311.0795073829488
30
0
10
275.35904752644751
20
-309.41421650444249
30
0
10
274.6728017042937
20
-307.61982090126776
30
0
10
273.84495856412877
20
-305.7394606048743
30
0
10
272.89300883335682
20
-303.81938179426305
30
0
10
271.84113111779277
20
-301.90633802189484
30
0
10
270.71357127417258
20
-300.0482020291555
30
0
10
269.5427712821654
20
-298.28689248603803
30
0
10
266.98628700015951
20
-294.86359936558915
30
0
10
264.38831588779385
20
-291.83771681217524
30
0
10
262.22754448530577
20
-288.76259595425427
30
0
10
261.67346382924944
20
-287.56619292776679
30
0
10
261.26741016431816
20
-286.28331728213163
30
0
10
261.03164105508392
20
-284.93535145499044
30
0
10
260.96814896668366
20
-283.55761917991276
30
0
10
261.07952511989987
20
-282.18286186894801
30
0
10
261.3623169175367
20
-280.8441345157234
30
0
10
261.811916030698
20
-279.57541337616783
30
0
10
262.4104679035114
20
-278.40176434441776
30
0
10
263.30820153023802
20
-277.18508381424277
30
0
10
264.37993961500212
20
-276.00363796049362
30
0
10
265.40313689902229
20
-274.61467101458254
30
0
10
266.17700220125136
20
-273.15392167523845
30
0
10
266.79631660024432
20
-271.5579982098289
30
0
10
267.23913740907864
20
-269.85978234680397
30
0
10
267.49704488370537
20
-268.10183067601281
30
0
10
267.56302916974772
20
-266.32632969385077
30
0
10
267.43654454055422
20
-264.57579168584004
30
0
10
267.11703444084708
20
-262.894267599655
30
0
10
266.62409533947186
20
-261.3157493556775
30
0
10
265.67399011743231
20
-259.38966242815718
30
0
10
264.51018067620362
20
-257.50062214512405
30
0
10
263.48562841040496
20
-255.50646431114097
30
0
10
262.95454448010776
20
-253.95421455726972
30
0
10
262.74361182585915
20
-252.56201935251735
30
0
10
262.87468486768779
20
-251.34707062024398
30
0
10
263.38243621836108
20
-250.34908657992847
30
0
10
264.25664703004134
20
-249.64946989738522
30
0
10
265.41979444009775
20
-249.27452374058453
30
0
10
266.82561000531251
20
-249.1992798021748
30
0
10
268.4543756994027
20
-249.40140403417041
30
0
10
273.3995802481918
20
-250.81355643624568
30
0
10
278.25931148216114
20
-252.61265241891022
30
0
10
283.26515427826757
20
-254.04604660333291
30
0
10
285.17013362998472
20
-254.40689976781013
30
0
10
287.22911264626759
20
-254.68015056924287
30
0
10
289.39626686974589
20
-254.84502501933233
30
0
10
291.61750148053545
20
-254.90140601810504
30
0
10
293.83880289348878
20
-254.84651192544732
30
0
10
296.00597377809424
20
-254.68275831020202
30
0
10
298.06543054971246
20
-254.41177928424452
30
0
10
299.96963171053881
20
-254.04898648396744
30
0
10
302.18337675879286
20
-253.43114854039356
30
0
10
303.9868533432695
20
-252.79301406072651
30
0
10
305.53558783883244
20
-252.34513330379571
30
0
10
306.3783907546088
20
-252.17194613994229
30
0
10
307.27704255574093
20
-252.03494243748531
30
0
10
308.21104904279969
20
-251.94214446945946
30
0
10
309.15718313792939
20
-251.89454903255626
30
0
10
310.09240791088479
20
-251.89370649620804
30
0
10
310.99386196389582
20
-251.9393974270962
30
0
10
311.83951185810906
20
-252.0306916651887
30
0
10
312.60917652594208
20
-252.16425620905056
30
0
10
313.46142819887939
20
-252.3857574654497
30
0
10
314.38805124942087
20
-252.75930528903933
30
0
10
315.36539684491083
20
-253.33770214283965
30
0
10
316.22132233093214
20
-254.05286029268979
30
0
10
316.93453173259917
20
-254.88624484198678
30
0
10
317.4868417954105
20
-255.81779969308232
30
0
10
317.86385312193721
20
-256.82417913397245
30
0
10
318.05658076676906
20
-257.8803693105142
30
0
10
318.05759717133293
20
-258.95853048655113
30
0
10
317.87716846092331
20
-260.03582390433905
30
0
10
317.48775908845198
20
-261.05481464392187
30
0
10
317.03403951866369
20
-262.084798801175
30
0
10
316.63586583165369
20
-263.20778388019153
30
0
10
316.24189680966663
20
-264.43066023568093
30
0
10
315.87386264438697
20
-265.72909395799809
30
0
10
315.53734658946121
20
-267.06960952437674
30
0
10
315.24175652403932
20
-268.41977147978861
30
0
10
314.99363028330276
20
-269.74627288948443
30
0
10
314.80050005054613
20
-271.01665481537475
30
0
10
314.66186584867859
20
-272.19951005195463
30
0
10
314.58753827658433
20
-273.42236931937595
30
0
10
314.52314402084983
20
-275.05781433170915
30
0
10
314.5157966046483
20
-277.23408637280903
30
0
10
314.71719405215538
20
-279.90048710898583
30
0
10
315.08637138754875
20
-282.74610994882346
30
0
10
315.62639578894476
20
-285.70177455014033
30
0
10
316.32087010362125
20
-288.69521824179878
30
0
10
317.15415564728323
20
-291.65300287713245
30
0
10
318.10434955580814
20
-294.50345002782035
30
0
10
319.15219697021803
20
-297.17460036014143
30
0
10
320.25758600543753
20
-299.60979309534804
30
0
10
322.77528553937555
20
-304.11388684910412
30
0
10
325.44574145129991
20
-308.17000517891051
30
0
10
327.87937807909719
20
-312.54114444004648
30
0
10
328.33834778605137
20
-314.04609410163704
30
0
10
328.38699340820312
20
-315.00751495361328
30
0
0
ENDSEC
0
SECTION
2
OBJECTS
0
DICTIONARY
5
C
100
AcDbDictionary
3
ACAD_GROUP
350
D
3
ACAD_MLINESTYLE
350
17
0
DICTIONARY
5
D
100
AcDbDictionary
0
DICTIONARY
5
1A
330
C
100
AcDbDictionary
0
DICTIONARY
5
17
100
AcDbDictionary
0
ENDSEC
0
EOF
